<svg width="1691" height="1208" viewBox="0 0 1691 1208" fill="none" xmlns="http://www.w3.org/2000/svg">
<g filter="url(#filter0_di)">
<mask id="path-1-inside-1" fill="white">
<path fill-rule="evenodd" clip-rule="evenodd" d="M46.9837 14.8385H15.4279V50.0034L46.9837 14.8385ZM49.5309 12H15.4279H12.5894V14.8385V53.1666V57.4167L15.4279 54.2535L50.7976 14.8385L53.3448 12H49.5309ZM1626.42 71.8752L1627.08 72.6667L1627.08 73.7V548.9L1677.34 608.775L1677.34 608.776L1678 609.567V610.6V1128.74V1129.78L1677.33 1130.57L1677.32 1130.58L1623.33 1194L1623.31 1194.02L1622.48 1195H1621.16H65.2408H63.9173L63.0665 1193.99L13.6642 1135.12L13.6623 1135.12L12.9999 1134.33V1133.3V552.849V73.7V72.6667L13.6642 71.8752L63.0665 13.0137L63.9173 12H65.2407H1574.84H1576.17L1577.01 13.006L1577.02 13.0137L1626.42 71.8752ZM1624.91 550.725L1675.16 610.6V1128.74L1621.16 1192.16H65.2408L15.8384 1133.3V552.849V73.7L65.2407 14.8385H1574.84L1624.24 73.7L1624.24 548.9C1624.24 549.484 1624.42 550.052 1624.76 550.527C1624.77 550.541 1624.78 550.556 1624.79 550.57L1624.82 550.612L1624.84 550.636C1624.86 550.666 1624.88 550.696 1624.91 550.725ZM1675.63 1192.19H1633.89L1675.63 1145.67V1192.19ZM1675.63 1195.03H1631.34H1627.52L1630.07 1192.19L1675.63 1141.42L1678.47 1138.26V1142.51V1192.19V1195.03H1675.63ZM15.4279 1192.19V1157.03L46.9837 1192.19H15.4279ZM12.5894 1192.19V1153.87V1149.62L15.4279 1152.78L50.7976 1192.19L53.3448 1195.03H49.5309H15.4279H12.5894V1192.19ZM1624.69 51.0035V15.8385H1593.13L1624.69 51.0035ZM1627.52 54.1666V15.8385V13H1624.69H1590.58H1586.77L1589.32 15.8385L1624.69 55.2535L1627.52 58.4167V54.1666ZM1676 28H1676.16H1678.84H1679V30.8385V587.161V590H1678.84H1676.16H1676V587.161V30.8385V28Z"/>
</mask>
<path fill-rule="evenodd" clip-rule="evenodd" d="M46.9837 14.8385H15.4279V50.0034L46.9837 14.8385ZM49.5309 12H15.4279H12.5894V14.8385V53.1666V57.4167L15.4279 54.2535L50.7976 14.8385L53.3448 12H49.5309ZM1626.42 71.8752L1627.08 72.6667L1627.08 73.7V548.9L1677.34 608.775L1677.34 608.776L1678 609.567V610.6V1128.74V1129.78L1677.33 1130.57L1677.32 1130.58L1623.33 1194L1623.31 1194.02L1622.48 1195H1621.16H65.2408H63.9173L63.0665 1193.99L13.6642 1135.12L13.6623 1135.12L12.9999 1134.33V1133.3V552.849V73.7V72.6667L13.6642 71.8752L63.0665 13.0137L63.9173 12H65.2407H1574.84H1576.17L1577.01 13.006L1577.02 13.0137L1626.42 71.8752ZM1624.91 550.725L1675.16 610.6V1128.74L1621.16 1192.16H65.2408L15.8384 1133.3V552.849V73.7L65.2407 14.8385H1574.84L1624.24 73.7L1624.24 548.9C1624.24 549.484 1624.42 550.052 1624.76 550.527C1624.77 550.541 1624.78 550.556 1624.79 550.57L1624.82 550.612L1624.84 550.636C1624.86 550.666 1624.88 550.696 1624.91 550.725ZM1675.63 1192.19H1633.89L1675.63 1145.67V1192.19ZM1675.63 1195.03H1631.34H1627.52L1630.07 1192.19L1675.63 1141.42L1678.47 1138.26V1142.51V1192.19V1195.03H1675.63ZM15.4279 1192.19V1157.03L46.9837 1192.19H15.4279ZM12.5894 1192.19V1153.87V1149.62L15.4279 1152.78L50.7976 1192.19L53.3448 1195.03H49.5309H15.4279H12.5894V1192.19ZM1624.69 51.0035V15.8385H1593.13L1624.69 51.0035ZM1627.52 54.1666V15.8385V13H1624.69H1590.58H1586.77L1589.32 15.8385L1624.69 55.2535L1627.52 58.4167V54.1666ZM1676 28H1676.16H1678.84H1679V30.8385V587.161V590H1678.84H1676.16H1676V587.161V30.8385V28Z" fill="black" fill-opacity="0.148246"/>
<path d="M15.4279 14.8385V11.9485C13.8318 11.9485 12.5379 13.2424 12.5379 14.8385H15.4279ZM46.9837 14.8385L49.1346 16.7687C49.8964 15.9199 50.0876 14.7024 49.6229 13.6609C49.1581 12.6193 48.1242 11.9485 46.9837 11.9485V14.8385ZM15.4279 50.0034H12.5379C12.5379 51.2008 13.2763 52.2742 14.3945 52.7024C15.5127 53.1305 16.7791 52.8248 17.5788 51.9336L15.4279 50.0034ZM12.5894 12V9.11C10.9933 9.11 9.69936 10.4039 9.69936 12H12.5894ZM12.5894 57.4167H9.69936C9.69936 58.6141 10.4377 59.6875 11.5559 60.1156C12.6741 60.5438 13.9406 60.238 14.7403 59.3469L12.5894 57.4167ZM15.4279 54.2535L13.277 52.3233H13.277L15.4279 54.2535ZM50.7976 14.8385L52.9485 16.7687L52.9485 16.7687L50.7976 14.8385ZM53.3448 12L55.4957 13.9302C56.2575 13.0813 56.4487 11.8638 55.984 10.8223C55.5192 9.78078 54.4853 9.11 53.3448 9.11V12ZM1627.08 72.6667L1629.97 72.667C1629.97 71.9872 1629.73 71.3292 1629.3 70.8086L1627.08 72.6667ZM1626.42 71.8752L1624.2 73.7331L1624.2 73.7333L1626.42 71.8752ZM1627.08 73.7L1624.19 73.6997V73.7H1627.08ZM1627.08 548.9H1624.19C1624.19 549.58 1624.43 550.237 1624.87 550.758L1627.08 548.9ZM1677.34 608.775L1675.12 610.633C1675.13 610.641 1675.13 610.648 1675.14 610.656L1677.34 608.775ZM1677.34 608.776L1679.55 606.918C1679.54 606.911 1679.54 606.903 1679.53 606.895L1677.34 608.776ZM1678 609.567H1680.89C1680.89 608.887 1680.65 608.229 1680.21 607.709L1678 609.567ZM1678 1129.78L1680.2 1131.65C1680.65 1131.13 1680.89 1130.47 1680.89 1129.78H1678ZM1677.33 1130.57L1675.13 1128.69L1675.12 1128.7L1677.33 1130.57ZM1677.32 1130.58L1679.52 1132.45L1679.53 1132.44L1677.32 1130.58ZM1623.33 1194L1625.52 1195.88L1625.53 1195.88L1623.33 1194ZM1623.31 1194.02L1621.12 1192.14L1621.11 1192.14L1623.31 1194.02ZM1622.48 1195V1197.89C1623.32 1197.89 1624.13 1197.52 1624.68 1196.87L1622.48 1195ZM63.9173 1195L61.7037 1196.86C62.2528 1197.51 63.0632 1197.89 63.9173 1197.89V1195ZM63.0665 1193.99L65.2802 1192.13H65.2802L63.0665 1193.99ZM13.6642 1135.12L15.8778 1133.27C15.8717 1133.26 15.8655 1133.25 15.8593 1133.25L13.6642 1135.12ZM13.6623 1135.12L11.4486 1136.98C11.4548 1136.99 11.4609 1137 11.4672 1137L13.6623 1135.12ZM12.9999 1134.33H10.1099C10.1099 1135.01 10.3493 1135.67 10.7862 1136.19L12.9999 1134.33ZM12.9999 72.6667L10.7862 70.8088C10.3494 71.3293 10.1099 71.9871 10.1099 72.6667H12.9999ZM13.6642 71.8752L15.8778 73.7331L15.8778 73.7331L13.6642 71.8752ZM63.0665 13.0137L65.2802 14.8716L65.2802 14.8716L63.0665 13.0137ZM63.9173 12V9.11C63.0632 9.11 62.2528 9.48784 61.7037 10.1421L63.9173 12ZM1576.17 12L1578.38 10.1421C1577.83 9.48784 1577.02 9.11 1576.17 9.11V12ZM1577.01 13.006L1574.8 14.8639L1574.8 14.8676L1577.01 13.006ZM1577.02 13.0137L1579.23 11.1558L1579.23 11.1522L1577.02 13.0137ZM1675.16 610.6H1678.05C1678.05 609.92 1677.81 609.263 1677.38 608.742L1675.16 610.6ZM1624.91 550.725L1627.12 548.867L1627.12 548.866L1624.91 550.725ZM1675.16 1128.74L1677.36 1130.61C1677.81 1130.09 1678.05 1129.42 1678.05 1128.74H1675.16ZM1621.16 1192.16V1195.05C1622.01 1195.05 1622.82 1194.68 1623.36 1194.03L1621.16 1192.16ZM65.2408 1192.16L63.0271 1194.02C63.5762 1194.67 64.3866 1195.05 65.2408 1195.05V1192.16ZM15.8384 1133.3H12.9484C12.9484 1133.98 13.1879 1134.64 13.6248 1135.16L15.8384 1133.3ZM15.8384 73.7L13.6248 71.8421C13.1879 72.3626 12.9484 73.0204 12.9484 73.7H15.8384ZM65.2407 14.8385V11.9485C64.3866 11.9485 63.5762 12.3264 63.0271 12.9806L65.2407 14.8385ZM1574.84 14.8385L1577.06 12.9806C1576.51 12.3264 1575.7 11.9485 1574.84 11.9485V14.8385ZM1624.24 73.7H1627.13C1627.13 73.0204 1626.89 72.3626 1626.46 71.8421L1624.24 73.7ZM1624.24 548.9H1627.13H1624.24ZM1624.76 550.527L1627.13 548.873L1627.12 548.871L1624.76 550.527ZM1624.79 550.57L1622.46 552.278C1622.46 552.283 1622.46 552.287 1622.47 552.292L1624.79 550.57ZM1624.82 550.612L1622.5 552.335C1622.51 552.345 1622.51 552.356 1622.52 552.366L1624.82 550.612ZM1624.84 550.636L1622.54 552.39C1622.54 552.394 1622.55 552.398 1622.55 552.402L1624.84 550.636ZM1633.89 1192.19L1631.73 1190.26C1630.97 1191.11 1630.78 1192.33 1631.25 1193.37C1631.71 1194.41 1632.74 1195.08 1633.89 1195.08V1192.19ZM1675.63 1192.19V1195.08C1677.23 1195.08 1678.52 1193.79 1678.52 1192.19H1675.63ZM1675.63 1145.67H1678.52C1678.52 1144.48 1677.78 1143.4 1676.66 1142.97C1675.55 1142.55 1674.28 1142.85 1673.48 1143.74L1675.63 1145.67ZM1627.52 1195.03L1625.37 1193.1C1624.61 1193.95 1624.42 1195.17 1624.88 1196.21C1625.35 1197.25 1626.38 1197.92 1627.52 1197.92V1195.03ZM1630.07 1192.19L1632.22 1194.12L1630.07 1192.19ZM1675.63 1141.42L1677.78 1143.35H1677.78L1675.63 1141.42ZM1678.47 1138.26H1681.36C1681.36 1137.06 1680.62 1135.99 1679.5 1135.56C1678.38 1135.13 1677.12 1135.44 1676.32 1136.33L1678.47 1138.26ZM1678.47 1195.03V1197.92C1680.06 1197.92 1681.36 1196.63 1681.36 1195.03H1678.47ZM15.4279 1157.03L17.5788 1155.1C16.7791 1154.21 15.5127 1153.9 14.3945 1154.33C13.2763 1154.76 12.5379 1155.83 12.5379 1157.03H15.4279ZM15.4279 1192.19H12.5379C12.5379 1193.79 13.8318 1195.08 15.4279 1195.08V1192.19ZM46.9837 1192.19V1195.08C48.1242 1195.08 49.1581 1194.41 49.6229 1193.37C50.0876 1192.33 49.8964 1191.11 49.1347 1190.26L46.9837 1192.19ZM12.5894 1149.62L14.7403 1147.69C13.9406 1146.79 12.6742 1146.49 11.5559 1146.92C10.4377 1147.34 9.69936 1148.42 9.69936 1149.62H12.5894ZM15.4279 1152.78L13.277 1154.71H13.277L15.4279 1152.78ZM50.7976 1192.19L48.6467 1194.12H48.6467L50.7976 1192.19ZM53.3448 1195.03V1197.92C54.4853 1197.92 55.5192 1197.25 55.984 1196.21C56.4487 1195.17 56.2575 1193.95 55.4957 1193.1L53.3448 1195.03ZM12.5894 1195.03H9.69936C9.69936 1196.63 10.9933 1197.92 12.5894 1197.92V1195.03ZM1624.69 15.8385H1627.58C1627.58 14.2424 1626.28 12.9485 1624.69 12.9485V15.8385ZM1624.69 51.0035L1622.53 52.9337C1623.33 53.8248 1624.6 54.1306 1625.72 53.7024C1626.84 53.2742 1627.58 52.2009 1627.58 51.0035H1624.69ZM1593.13 15.8385V12.9485C1591.99 12.9485 1590.95 13.6193 1590.49 14.6609C1590.03 15.7024 1590.22 16.9199 1590.98 17.7687L1593.13 15.8385ZM1627.52 13H1630.41C1630.41 11.4039 1629.12 10.11 1627.52 10.11V13ZM1586.77 13V10.11C1585.63 10.11 1584.59 10.7808 1584.13 11.8223C1583.66 12.8639 1583.86 14.0813 1584.62 14.9302L1586.77 13ZM1589.32 15.8385L1591.47 13.9084V13.9084L1589.32 15.8385ZM1624.69 55.2535L1626.84 53.3234L1626.84 53.3233L1624.69 55.2535ZM1627.52 58.4167L1625.37 60.3469C1626.17 61.238 1627.44 61.5438 1628.56 61.1156C1629.68 60.6875 1630.41 59.6141 1630.41 58.4167H1627.52ZM1676 28V25.11C1674.4 25.11 1673.11 26.4039 1673.11 28H1676ZM1679 28H1681.89C1681.89 26.4039 1680.6 25.11 1679 25.11V28ZM1679 590V592.89C1680.6 592.89 1681.89 591.596 1681.89 590H1679ZM1676 590H1673.11C1673.11 591.596 1674.4 592.89 1676 592.89V590ZM15.4279 17.7285H46.9837V11.9485H15.4279V17.7285ZM18.3179 50.0034V14.8385H12.5379V50.0034H18.3179ZM44.8328 12.9084L13.277 48.0733L17.5788 51.9336L49.1346 16.7687L44.8328 12.9084ZM15.4279 14.89H49.5309V9.11H15.4279V14.89ZM12.5894 14.89H15.4279V9.11H12.5894V14.89ZM15.4794 14.8385V12H9.69936V14.8385H15.4794ZM15.4794 53.1666V14.8385H9.69936V53.1666H15.4794ZM15.4794 57.4167V53.1666H9.69936V57.4167H15.4794ZM13.277 52.3233L10.4384 55.4865L14.7403 59.3469L17.5788 56.1837L13.277 52.3233ZM48.6467 12.9084L13.277 52.3233L17.5788 56.1837L52.9485 16.7687L48.6467 12.9084ZM51.1939 10.0698L48.6467 12.9084L52.9485 16.7687L55.4957 13.9302L51.1939 10.0698ZM49.5309 14.89H53.3448V9.11H49.5309V14.89ZM1629.3 70.8086L1628.63 70.0171L1624.2 73.7333L1624.87 74.5248L1629.3 70.8086ZM1629.97 73.7003L1629.97 72.667L1624.19 72.6663L1624.19 73.6997L1629.97 73.7003ZM1629.97 548.9V73.7H1624.19V548.9H1629.97ZM1679.55 606.917L1629.3 547.042L1624.87 550.758L1675.12 610.633L1679.55 606.917ZM1679.53 606.895L1679.53 606.894L1675.14 610.656L1675.14 610.657L1679.53 606.895ZM1680.21 607.709L1679.55 606.918L1675.12 610.634L1675.79 611.425L1680.21 607.709ZM1680.89 610.6V609.567H1675.11V610.6H1680.89ZM1680.89 1128.74V610.6H1675.11V1128.74H1680.89ZM1680.89 1129.78V1128.74H1675.11V1129.78H1680.89ZM1679.53 1132.44L1680.2 1131.65L1675.8 1127.91L1675.13 1128.69L1679.53 1132.44ZM1679.53 1132.44L1679.54 1132.43L1675.12 1128.7L1675.12 1128.71L1679.53 1132.44ZM1625.53 1195.88L1679.52 1132.45L1675.12 1128.7L1621.12 1192.13L1625.53 1195.88ZM1625.5 1195.9L1625.52 1195.88L1621.13 1192.12L1621.12 1192.14L1625.5 1195.9ZM1624.68 1196.87L1625.51 1195.89L1621.11 1192.14L1620.27 1193.13L1624.68 1196.87ZM1621.16 1197.89H1622.48V1192.11H1621.16V1197.89ZM65.2408 1197.89H1621.16V1192.11H65.2408V1197.89ZM63.9173 1197.89H65.2408V1192.11H63.9173V1197.89ZM60.8529 1195.84L61.7037 1196.86L66.131 1193.14L65.2802 1192.13L60.8529 1195.84ZM11.4505 1136.98L60.8529 1195.84L65.2802 1192.13L15.8778 1133.27L11.4505 1136.98ZM11.4672 1137L11.4691 1137L15.8593 1133.25L15.8574 1133.24L11.4672 1137ZM10.7862 1136.19L11.4486 1136.98L15.876 1133.26L15.2136 1132.48L10.7862 1136.19ZM10.1099 1133.3V1134.33H15.8899V1133.3H10.1099ZM10.1099 552.849V1133.3H15.8899V552.849H10.1099ZM10.1099 73.7V552.849H15.8899V73.7H10.1099ZM10.1099 72.6667V73.7H15.8899V72.6667H10.1099ZM11.4505 70.0173L10.7862 70.8088L15.2135 74.5246L15.8778 73.7331L11.4505 70.0173ZM60.8529 11.1558L11.4505 70.0173L15.8778 73.7331L65.2802 14.8716L60.8529 11.1558ZM61.7037 10.1421L60.8529 11.1558L65.2802 14.8716L66.131 13.8579L61.7037 10.1421ZM65.2407 9.11H63.9173V14.89H65.2407V9.11ZM1574.84 9.11H65.2407V14.89H1574.84V9.11ZM1576.17 9.11H1574.84V14.89H1576.17V9.11ZM1579.22 11.1481L1578.38 10.1421L1573.95 13.8579L1574.8 14.8639L1579.22 11.1481ZM1579.23 11.1522L1579.22 11.1445L1574.8 14.8676L1574.81 14.8753L1579.23 11.1522ZM1628.63 70.0173L1579.23 11.1558L1574.8 14.8716L1624.2 73.7331L1628.63 70.0173ZM1677.38 608.742L1627.12 548.867L1622.69 552.583L1672.95 612.458L1677.38 608.742ZM1678.05 1128.74V610.6H1672.27V1128.74H1678.05ZM1623.36 1194.03L1677.36 1130.61L1672.96 1126.86L1618.96 1190.29L1623.36 1194.03ZM65.2408 1195.05H1621.16V1189.27H65.2408V1195.05ZM13.6248 1135.16L63.0271 1194.02L67.4544 1190.3L18.0521 1131.44L13.6248 1135.16ZM12.9484 552.849V1133.3H18.7284V552.849H12.9484ZM12.9484 73.7V552.849H18.7284V73.7H12.9484ZM63.0271 12.9806L13.6248 71.8421L18.0521 75.5579L67.4544 16.6965L63.0271 12.9806ZM1574.84 11.9485H65.2407V17.7285H1574.84V11.9485ZM1626.46 71.8421L1577.06 12.9806L1572.63 16.6965L1622.03 75.5579L1626.46 71.8421ZM1627.13 548.9L1627.13 73.7H1621.35L1621.35 548.9H1627.13ZM1627.12 548.871C1627.13 548.879 1627.13 548.889 1627.13 548.9H1621.35C1621.35 550.079 1621.72 551.224 1622.39 552.183L1627.12 548.871ZM1627.12 548.862C1627.12 548.871 1627.13 548.876 1627.13 548.873L1622.39 552.181C1622.4 552.207 1622.43 552.24 1622.46 552.278L1627.12 548.862ZM1627.14 548.89L1627.11 548.848L1622.47 552.292L1622.5 552.335L1627.14 548.89ZM1627.13 548.883L1627.12 548.859L1622.52 552.366L1622.54 552.39L1627.13 548.883ZM1627.12 548.866C1627.12 548.869 1627.13 548.871 1627.13 548.871L1622.55 552.402C1622.6 552.462 1622.64 552.523 1622.7 552.584L1627.12 548.866ZM1633.89 1195.08H1675.63V1189.3H1633.89V1195.08ZM1673.48 1143.74L1631.73 1190.26L1636.04 1194.12L1677.78 1147.6L1673.48 1143.74ZM1678.52 1192.19V1145.67H1672.74V1192.19H1678.52ZM1631.34 1197.92H1675.63V1192.14H1631.34V1197.92ZM1627.52 1197.92H1631.34V1192.14H1627.52V1197.92ZM1627.92 1190.26L1625.37 1193.1L1629.67 1196.96L1632.22 1194.12L1627.92 1190.26ZM1673.48 1139.49L1627.92 1190.26L1632.22 1194.12L1677.78 1143.35L1673.48 1139.49ZM1676.32 1136.33L1673.48 1139.49L1677.78 1143.35L1680.62 1140.19L1676.32 1136.33ZM1681.36 1142.51V1138.26H1675.58V1142.51H1681.36ZM1681.36 1192.19V1142.51H1675.58V1192.19H1681.36ZM1681.36 1195.03V1192.19H1675.58V1195.03H1681.36ZM1675.63 1197.92H1678.47V1192.14H1675.63V1197.92ZM12.5379 1157.03V1192.19H18.3179V1157.03H12.5379ZM49.1347 1190.26L17.5788 1155.1L13.277 1158.96L44.8328 1194.12L49.1347 1190.26ZM15.4279 1195.08H46.9837V1189.3H15.4279V1195.08ZM9.69936 1153.87V1192.19H15.4794V1153.87H9.69936ZM9.69936 1149.62V1153.87H15.4794V1149.62H9.69936ZM17.5788 1150.85L14.7403 1147.69L10.4384 1151.55L13.277 1154.71L17.5788 1150.85ZM52.9485 1190.26L17.5788 1150.85L13.277 1154.71L48.6467 1194.12L52.9485 1190.26ZM55.4957 1193.1L52.9485 1190.26L48.6467 1194.12L51.1939 1196.96L55.4957 1193.1ZM49.5309 1197.92H53.3448V1192.14H49.5309V1197.92ZM15.4279 1197.92H49.5309V1192.14H15.4279V1197.92ZM12.5894 1197.92H15.4279V1192.14H12.5894V1197.92ZM9.69936 1192.19V1195.03H15.4794V1192.19H9.69936ZM1621.8 15.8385V51.0035H1627.58V15.8385H1621.8ZM1593.13 18.7285H1624.69V12.9485H1593.13V18.7285ZM1626.84 49.0733L1595.28 13.9084L1590.98 17.7687L1622.53 52.9337L1626.84 49.0733ZM1624.63 15.8385V54.1666H1630.41V15.8385H1624.63ZM1624.63 13V15.8385H1630.41V13H1624.63ZM1624.69 15.89H1627.52V10.11H1624.69V15.89ZM1590.58 15.89H1624.69V10.11H1590.58V15.89ZM1586.77 15.89H1590.58V10.11H1586.77V15.89ZM1591.47 13.9084L1588.92 11.0698L1584.62 14.9302L1587.16 17.7687L1591.47 13.9084ZM1626.84 53.3233L1591.47 13.9084L1587.16 17.7687L1622.53 57.1837L1626.84 53.3233ZM1629.68 56.4865L1626.84 53.3234L1622.53 57.1837L1625.37 60.3469L1629.68 56.4865ZM1624.63 54.1666V58.4167H1630.41V54.1666H1624.63ZM1676.16 25.11H1676V30.89H1676.16V25.11ZM1678.84 25.11H1676.16V30.89H1678.84V25.11ZM1679 25.11H1678.84V30.89H1679V25.11ZM1681.89 30.8385V28H1676.11V30.8385H1681.89ZM1681.89 587.161V30.8385H1676.11V587.161H1681.89ZM1681.89 590V587.161H1676.11V590H1681.89ZM1678.84 592.89H1679V587.11H1678.84V592.89ZM1676.16 592.89H1678.84V587.11H1676.16V592.89ZM1676 592.89H1676.16V587.11H1676V592.89ZM1673.11 587.161V590H1678.89V587.161H1673.11ZM1673.11 30.8385V587.161H1678.89V30.8385H1673.11ZM1673.11 28V30.8385H1678.89V28H1673.11Z" fill="#00709B" mask="url(#path-1-inside-1)"/>
<path d="M15.4279 14.8385V11.9485C13.8318 11.9485 12.5379 13.2424 12.5379 14.8385H15.4279ZM46.9837 14.8385L49.1346 16.7687C49.8964 15.9199 50.0876 14.7024 49.6229 13.6609C49.1581 12.6193 48.1242 11.9485 46.9837 11.9485V14.8385ZM15.4279 50.0034H12.5379C12.5379 51.2008 13.2763 52.2742 14.3945 52.7024C15.5127 53.1305 16.7791 52.8248 17.5788 51.9336L15.4279 50.0034ZM12.5894 12V9.11C10.9933 9.11 9.69936 10.4039 9.69936 12H12.5894ZM12.5894 57.4167H9.69936C9.69936 58.6141 10.4377 59.6875 11.5559 60.1156C12.6741 60.5438 13.9406 60.238 14.7403 59.3469L12.5894 57.4167ZM15.4279 54.2535L13.277 52.3233H13.277L15.4279 54.2535ZM50.7976 14.8385L52.9485 16.7687L52.9485 16.7687L50.7976 14.8385ZM53.3448 12L55.4957 13.9302C56.2575 13.0813 56.4487 11.8638 55.984 10.8223C55.5192 9.78078 54.4853 9.11 53.3448 9.11V12ZM1627.08 72.6667L1629.97 72.667C1629.97 71.9872 1629.73 71.3292 1629.3 70.8086L1627.08 72.6667ZM1626.42 71.8752L1624.2 73.7331L1624.2 73.7333L1626.42 71.8752ZM1627.08 73.7L1624.19 73.6997V73.7H1627.08ZM1627.08 548.9H1624.19C1624.19 549.58 1624.43 550.237 1624.87 550.758L1627.08 548.9ZM1677.34 608.775L1675.12 610.633C1675.13 610.641 1675.13 610.648 1675.14 610.656L1677.34 608.775ZM1677.34 608.776L1679.55 606.918C1679.54 606.911 1679.54 606.903 1679.53 606.895L1677.34 608.776ZM1678 609.567H1680.89C1680.89 608.887 1680.65 608.229 1680.21 607.709L1678 609.567ZM1678 1129.78L1680.2 1131.65C1680.65 1131.13 1680.89 1130.47 1680.89 1129.78H1678ZM1677.33 1130.57L1675.13 1128.69L1675.12 1128.7L1677.33 1130.57ZM1677.32 1130.58L1679.52 1132.45L1679.53 1132.44L1677.32 1130.58ZM1623.33 1194L1625.52 1195.88L1625.53 1195.88L1623.33 1194ZM1623.31 1194.02L1621.12 1192.14L1621.11 1192.14L1623.31 1194.02ZM1622.48 1195V1197.89C1623.32 1197.89 1624.13 1197.52 1624.68 1196.87L1622.48 1195ZM63.9173 1195L61.7037 1196.86C62.2528 1197.51 63.0632 1197.89 63.9173 1197.89V1195ZM63.0665 1193.99L65.2802 1192.13H65.2802L63.0665 1193.99ZM13.6642 1135.12L15.8778 1133.27C15.8717 1133.26 15.8655 1133.25 15.8593 1133.25L13.6642 1135.12ZM13.6623 1135.12L11.4486 1136.98C11.4548 1136.99 11.4609 1137 11.4672 1137L13.6623 1135.12ZM12.9999 1134.33H10.1099C10.1099 1135.01 10.3493 1135.67 10.7862 1136.19L12.9999 1134.33ZM12.9999 72.6667L10.7862 70.8088C10.3494 71.3293 10.1099 71.9871 10.1099 72.6667H12.9999ZM13.6642 71.8752L15.8778 73.7331L15.8778 73.7331L13.6642 71.8752ZM63.0665 13.0137L65.2802 14.8716L65.2802 14.8716L63.0665 13.0137ZM63.9173 12V9.11C63.0632 9.11 62.2528 9.48784 61.7037 10.1421L63.9173 12ZM1576.17 12L1578.38 10.1421C1577.83 9.48784 1577.02 9.11 1576.17 9.11V12ZM1577.01 13.006L1574.8 14.8639L1574.8 14.8676L1577.01 13.006ZM1577.02 13.0137L1579.23 11.1558L1579.23 11.1522L1577.02 13.0137ZM1675.16 610.6H1678.05C1678.05 609.92 1677.81 609.263 1677.38 608.742L1675.16 610.6ZM1624.91 550.725L1627.12 548.867L1627.12 548.866L1624.91 550.725ZM1675.16 1128.74L1677.36 1130.61C1677.81 1130.09 1678.05 1129.42 1678.05 1128.74H1675.16ZM1621.16 1192.16V1195.05C1622.01 1195.05 1622.82 1194.68 1623.36 1194.03L1621.16 1192.16ZM65.2408 1192.16L63.0271 1194.02C63.5762 1194.67 64.3866 1195.05 65.2408 1195.05V1192.16ZM15.8384 1133.3H12.9484C12.9484 1133.98 13.1879 1134.64 13.6248 1135.16L15.8384 1133.3ZM15.8384 73.7L13.6248 71.8421C13.1879 72.3626 12.9484 73.0204 12.9484 73.7H15.8384ZM65.2407 14.8385V11.9485C64.3866 11.9485 63.5762 12.3264 63.0271 12.9806L65.2407 14.8385ZM1574.84 14.8385L1577.06 12.9806C1576.51 12.3264 1575.7 11.9485 1574.84 11.9485V14.8385ZM1624.24 73.7H1627.13C1627.13 73.0204 1626.89 72.3626 1626.46 71.8421L1624.24 73.7ZM1624.24 548.9H1627.13H1624.24ZM1624.76 550.527L1627.13 548.873L1627.12 548.871L1624.76 550.527ZM1624.79 550.57L1622.46 552.278C1622.46 552.283 1622.46 552.287 1622.47 552.292L1624.79 550.57ZM1624.82 550.612L1622.5 552.335C1622.51 552.345 1622.51 552.356 1622.52 552.366L1624.82 550.612ZM1624.84 550.636L1622.54 552.39C1622.54 552.394 1622.55 552.398 1622.55 552.402L1624.84 550.636ZM1633.89 1192.19L1631.73 1190.26C1630.97 1191.11 1630.78 1192.33 1631.25 1193.37C1631.71 1194.41 1632.74 1195.08 1633.89 1195.08V1192.19ZM1675.63 1192.19V1195.08C1677.23 1195.08 1678.52 1193.79 1678.52 1192.19H1675.63ZM1675.63 1145.67H1678.52C1678.52 1144.48 1677.78 1143.4 1676.66 1142.97C1675.55 1142.55 1674.28 1142.85 1673.48 1143.74L1675.63 1145.67ZM1627.52 1195.03L1625.37 1193.1C1624.61 1193.95 1624.42 1195.17 1624.88 1196.21C1625.35 1197.25 1626.38 1197.92 1627.52 1197.92V1195.03ZM1630.07 1192.19L1632.22 1194.12L1630.07 1192.19ZM1675.63 1141.42L1677.78 1143.35H1677.78L1675.63 1141.42ZM1678.47 1138.26H1681.36C1681.36 1137.06 1680.62 1135.99 1679.5 1135.56C1678.38 1135.13 1677.12 1135.44 1676.32 1136.33L1678.47 1138.26ZM1678.47 1195.03V1197.92C1680.06 1197.92 1681.36 1196.63 1681.36 1195.03H1678.47ZM15.4279 1157.03L17.5788 1155.1C16.7791 1154.21 15.5127 1153.9 14.3945 1154.33C13.2763 1154.76 12.5379 1155.83 12.5379 1157.03H15.4279ZM15.4279 1192.19H12.5379C12.5379 1193.79 13.8318 1195.08 15.4279 1195.08V1192.19ZM46.9837 1192.19V1195.08C48.1242 1195.08 49.1581 1194.41 49.6229 1193.37C50.0876 1192.33 49.8964 1191.11 49.1347 1190.26L46.9837 1192.19ZM12.5894 1149.62L14.7403 1147.69C13.9406 1146.79 12.6742 1146.49 11.5559 1146.92C10.4377 1147.34 9.69936 1148.42 9.69936 1149.62H12.5894ZM15.4279 1152.78L13.277 1154.71H13.277L15.4279 1152.78ZM50.7976 1192.19L48.6467 1194.12H48.6467L50.7976 1192.19ZM53.3448 1195.03V1197.92C54.4853 1197.92 55.5192 1197.25 55.984 1196.21C56.4487 1195.17 56.2575 1193.95 55.4957 1193.1L53.3448 1195.03ZM12.5894 1195.03H9.69936C9.69936 1196.63 10.9933 1197.92 12.5894 1197.92V1195.03ZM1624.69 15.8385H1627.58C1627.58 14.2424 1626.28 12.9485 1624.69 12.9485V15.8385ZM1624.69 51.0035L1622.53 52.9337C1623.33 53.8248 1624.6 54.1306 1625.72 53.7024C1626.84 53.2742 1627.58 52.2009 1627.58 51.0035H1624.69ZM1593.13 15.8385V12.9485C1591.99 12.9485 1590.95 13.6193 1590.49 14.6609C1590.03 15.7024 1590.22 16.9199 1590.98 17.7687L1593.13 15.8385ZM1627.52 13H1630.41C1630.41 11.4039 1629.12 10.11 1627.52 10.11V13ZM1586.77 13V10.11C1585.63 10.11 1584.59 10.7808 1584.13 11.8223C1583.66 12.8639 1583.86 14.0813 1584.62 14.9302L1586.77 13ZM1589.32 15.8385L1591.47 13.9084V13.9084L1589.32 15.8385ZM1624.69 55.2535L1626.84 53.3234L1626.84 53.3233L1624.69 55.2535ZM1627.52 58.4167L1625.37 60.3469C1626.17 61.238 1627.44 61.5438 1628.56 61.1156C1629.68 60.6875 1630.41 59.6141 1630.41 58.4167H1627.52ZM1676 28V25.11C1674.4 25.11 1673.11 26.4039 1673.11 28H1676ZM1679 28H1681.89C1681.89 26.4039 1680.6 25.11 1679 25.11V28ZM1679 590V592.89C1680.6 592.89 1681.89 591.596 1681.89 590H1679ZM1676 590H1673.11C1673.11 591.596 1674.4 592.89 1676 592.89V590ZM15.4279 17.7285H46.9837V11.9485H15.4279V17.7285ZM18.3179 50.0034V14.8385H12.5379V50.0034H18.3179ZM44.8328 12.9084L13.277 48.0733L17.5788 51.9336L49.1346 16.7687L44.8328 12.9084ZM15.4279 14.89H49.5309V9.11H15.4279V14.89ZM12.5894 14.89H15.4279V9.11H12.5894V14.89ZM15.4794 14.8385V12H9.69936V14.8385H15.4794ZM15.4794 53.1666V14.8385H9.69936V53.1666H15.4794ZM15.4794 57.4167V53.1666H9.69936V57.4167H15.4794ZM13.277 52.3233L10.4384 55.4865L14.7403 59.3469L17.5788 56.1837L13.277 52.3233ZM48.6467 12.9084L13.277 52.3233L17.5788 56.1837L52.9485 16.7687L48.6467 12.9084ZM51.1939 10.0698L48.6467 12.9084L52.9485 16.7687L55.4957 13.9302L51.1939 10.0698ZM49.5309 14.89H53.3448V9.11H49.5309V14.89ZM1629.3 70.8086L1628.63 70.0171L1624.2 73.7333L1624.87 74.5248L1629.3 70.8086ZM1629.97 73.7003L1629.97 72.667L1624.19 72.6663L1624.19 73.6997L1629.97 73.7003ZM1629.97 548.9V73.7H1624.19V548.9H1629.97ZM1679.55 606.917L1629.3 547.042L1624.87 550.758L1675.12 610.633L1679.55 606.917ZM1679.53 606.895L1679.53 606.894L1675.14 610.656L1675.14 610.657L1679.53 606.895ZM1680.21 607.709L1679.55 606.918L1675.12 610.634L1675.79 611.425L1680.21 607.709ZM1680.89 610.6V609.567H1675.11V610.6H1680.89ZM1680.89 1128.74V610.6H1675.11V1128.74H1680.89ZM1680.89 1129.78V1128.74H1675.11V1129.78H1680.89ZM1679.53 1132.44L1680.2 1131.65L1675.8 1127.91L1675.13 1128.69L1679.53 1132.44ZM1679.53 1132.44L1679.54 1132.43L1675.12 1128.7L1675.12 1128.71L1679.53 1132.44ZM1625.53 1195.88L1679.52 1132.45L1675.12 1128.7L1621.12 1192.13L1625.53 1195.88ZM1625.5 1195.9L1625.52 1195.88L1621.13 1192.12L1621.12 1192.14L1625.5 1195.9ZM1624.68 1196.87L1625.51 1195.89L1621.11 1192.14L1620.27 1193.13L1624.68 1196.87ZM1621.16 1197.89H1622.48V1192.11H1621.16V1197.89ZM65.2408 1197.89H1621.16V1192.11H65.2408V1197.89ZM63.9173 1197.89H65.2408V1192.11H63.9173V1197.89ZM60.8529 1195.84L61.7037 1196.86L66.131 1193.14L65.2802 1192.13L60.8529 1195.84ZM11.4505 1136.98L60.8529 1195.84L65.2802 1192.13L15.8778 1133.27L11.4505 1136.98ZM11.4672 1137L11.4691 1137L15.8593 1133.25L15.8574 1133.24L11.4672 1137ZM10.7862 1136.19L11.4486 1136.98L15.876 1133.26L15.2136 1132.48L10.7862 1136.19ZM10.1099 1133.3V1134.33H15.8899V1133.3H10.1099ZM10.1099 552.849V1133.3H15.8899V552.849H10.1099ZM10.1099 73.7V552.849H15.8899V73.7H10.1099ZM10.1099 72.6667V73.7H15.8899V72.6667H10.1099ZM11.4505 70.0173L10.7862 70.8088L15.2135 74.5246L15.8778 73.7331L11.4505 70.0173ZM60.8529 11.1558L11.4505 70.0173L15.8778 73.7331L65.2802 14.8716L60.8529 11.1558ZM61.7037 10.1421L60.8529 11.1558L65.2802 14.8716L66.131 13.8579L61.7037 10.1421ZM65.2407 9.11H63.9173V14.89H65.2407V9.11ZM1574.84 9.11H65.2407V14.89H1574.84V9.11ZM1576.17 9.11H1574.84V14.89H1576.17V9.11ZM1579.22 11.1481L1578.38 10.1421L1573.95 13.8579L1574.8 14.8639L1579.22 11.1481ZM1579.23 11.1522L1579.22 11.1445L1574.8 14.8676L1574.81 14.8753L1579.23 11.1522ZM1628.63 70.0173L1579.23 11.1558L1574.8 14.8716L1624.2 73.7331L1628.63 70.0173ZM1677.38 608.742L1627.12 548.867L1622.69 552.583L1672.95 612.458L1677.38 608.742ZM1678.05 1128.74V610.6H1672.27V1128.74H1678.05ZM1623.36 1194.03L1677.36 1130.61L1672.96 1126.86L1618.96 1190.29L1623.36 1194.03ZM65.2408 1195.05H1621.16V1189.27H65.2408V1195.05ZM13.6248 1135.16L63.0271 1194.02L67.4544 1190.3L18.0521 1131.44L13.6248 1135.16ZM12.9484 552.849V1133.3H18.7284V552.849H12.9484ZM12.9484 73.7V552.849H18.7284V73.7H12.9484ZM63.0271 12.9806L13.6248 71.8421L18.0521 75.5579L67.4544 16.6965L63.0271 12.9806ZM1574.84 11.9485H65.2407V17.7285H1574.84V11.9485ZM1626.46 71.8421L1577.06 12.9806L1572.63 16.6965L1622.03 75.5579L1626.46 71.8421ZM1627.13 548.9L1627.13 73.7H1621.35L1621.35 548.9H1627.13ZM1627.12 548.871C1627.13 548.879 1627.13 548.889 1627.13 548.9H1621.35C1621.35 550.079 1621.72 551.224 1622.39 552.183L1627.12 548.871ZM1627.12 548.862C1627.12 548.871 1627.13 548.876 1627.13 548.873L1622.39 552.181C1622.4 552.207 1622.43 552.24 1622.46 552.278L1627.12 548.862ZM1627.14 548.89L1627.11 548.848L1622.47 552.292L1622.5 552.335L1627.14 548.89ZM1627.13 548.883L1627.12 548.859L1622.52 552.366L1622.54 552.39L1627.13 548.883ZM1627.12 548.866C1627.12 548.869 1627.13 548.871 1627.13 548.871L1622.55 552.402C1622.6 552.462 1622.64 552.523 1622.7 552.584L1627.12 548.866ZM1633.89 1195.08H1675.63V1189.3H1633.89V1195.08ZM1673.48 1143.74L1631.73 1190.26L1636.04 1194.12L1677.78 1147.6L1673.48 1143.74ZM1678.52 1192.19V1145.67H1672.74V1192.19H1678.52ZM1631.34 1197.92H1675.63V1192.14H1631.34V1197.92ZM1627.52 1197.92H1631.34V1192.14H1627.52V1197.92ZM1627.92 1190.26L1625.37 1193.1L1629.67 1196.96L1632.22 1194.12L1627.92 1190.26ZM1673.48 1139.49L1627.92 1190.26L1632.22 1194.12L1677.78 1143.35L1673.48 1139.49ZM1676.32 1136.33L1673.48 1139.49L1677.78 1143.35L1680.62 1140.19L1676.32 1136.33ZM1681.36 1142.51V1138.26H1675.58V1142.51H1681.36ZM1681.36 1192.19V1142.51H1675.58V1192.19H1681.36ZM1681.36 1195.03V1192.19H1675.58V1195.03H1681.36ZM1675.63 1197.92H1678.47V1192.14H1675.63V1197.92ZM12.5379 1157.03V1192.19H18.3179V1157.03H12.5379ZM49.1347 1190.26L17.5788 1155.1L13.277 1158.96L44.8328 1194.12L49.1347 1190.26ZM15.4279 1195.08H46.9837V1189.3H15.4279V1195.08ZM9.69936 1153.87V1192.19H15.4794V1153.87H9.69936ZM9.69936 1149.62V1153.87H15.4794V1149.62H9.69936ZM17.5788 1150.85L14.7403 1147.69L10.4384 1151.55L13.277 1154.71L17.5788 1150.85ZM52.9485 1190.26L17.5788 1150.85L13.277 1154.71L48.6467 1194.12L52.9485 1190.26ZM55.4957 1193.1L52.9485 1190.26L48.6467 1194.12L51.1939 1196.96L55.4957 1193.1ZM49.5309 1197.92H53.3448V1192.14H49.5309V1197.92ZM15.4279 1197.92H49.5309V1192.14H15.4279V1197.92ZM12.5894 1197.92H15.4279V1192.14H12.5894V1197.92ZM9.69936 1192.19V1195.03H15.4794V1192.19H9.69936ZM1621.8 15.8385V51.0035H1627.58V15.8385H1621.8ZM1593.13 18.7285H1624.69V12.9485H1593.13V18.7285ZM1626.84 49.0733L1595.28 13.9084L1590.98 17.7687L1622.53 52.9337L1626.84 49.0733ZM1624.63 15.8385V54.1666H1630.41V15.8385H1624.63ZM1624.63 13V15.8385H1630.41V13H1624.63ZM1624.69 15.89H1627.52V10.11H1624.69V15.89ZM1590.58 15.89H1624.69V10.11H1590.58V15.89ZM1586.77 15.89H1590.58V10.11H1586.77V15.89ZM1591.47 13.9084L1588.92 11.0698L1584.62 14.9302L1587.16 17.7687L1591.47 13.9084ZM1626.84 53.3233L1591.47 13.9084L1587.16 17.7687L1622.53 57.1837L1626.84 53.3233ZM1629.68 56.4865L1626.84 53.3234L1622.53 57.1837L1625.37 60.3469L1629.68 56.4865ZM1624.63 54.1666V58.4167H1630.41V54.1666H1624.63ZM1676.16 25.11H1676V30.89H1676.16V25.11ZM1678.84 25.11H1676.16V30.89H1678.84V25.11ZM1679 25.11H1678.84V30.89H1679V25.11ZM1681.89 30.8385V28H1676.11V30.8385H1681.89ZM1681.89 587.161V30.8385H1676.11V587.161H1681.89ZM1681.89 590V587.161H1676.11V590H1681.89ZM1678.84 592.89H1679V587.11H1678.84V592.89ZM1676.16 592.89H1678.84V587.11H1676.16V592.89ZM1676 592.89H1676.16V587.11H1676V592.89ZM1673.11 587.161V590H1678.89V587.161H1673.11ZM1673.11 30.8385V587.161H1678.89V30.8385H1673.11ZM1673.11 28V30.8385H1678.89V28H1673.11Z" fill="url(#paint0_linear)" mask="url(#path-1-inside-1)"/>
</g>
<defs>
<filter id="filter0_di" x="0.589355" y="0" width="1690.41" height="1207.03" filterUnits="userSpaceOnUse" color-interpolation-filters="sRGB">
<feFlood flood-opacity="0" result="BackgroundImageFix"/>
<feColorMatrix in="SourceAlpha" type="matrix" values="0 0 0 0 0 0 0 0 0 0 0 0 0 0 0 0 0 0 127 0"/>
<feOffset/>
<feGaussianBlur stdDeviation="6"/>
<feColorMatrix type="matrix" values="0 0 0 0 0 0 0 0 0 0.439216 0 0 0 0 0.607843 0 0 0 1 0"/>
<feBlend mode="normal" in2="BackgroundImageFix" result="effect1_dropShadow"/>
<feBlend mode="normal" in="SourceGraphic" in2="effect1_dropShadow" result="shape"/>
<feColorMatrix in="SourceAlpha" type="matrix" values="0 0 0 0 0 0 0 0 0 0 0 0 0 0 0 0 0 0 127 0" result="hardAlpha"/>
<feOffset/>
<feGaussianBlur stdDeviation="43.5"/>
<feComposite in2="hardAlpha" operator="arithmetic" k2="-1" k3="1"/>
<feColorMatrix type="matrix" values="0 0 0 0 0 0 0 0 0 0.439216 0 0 0 0 0.607843 0 0 0 0.1 0"/>
<feBlend mode="normal" in2="shape" result="effect2_innerShadow"/>
</filter>
<linearGradient id="paint0_linear" x1="-726.52" y1="662.3" x2="255.768" y2="2140.46" gradientUnits="userSpaceOnUse">
<stop stop-color="#5FE6E9"/>
<stop offset="0.500655" stop-color="#4C8499" stop-opacity="0.01"/>
<stop offset="1" stop-color="#35E0E4"/>
</linearGradient>
</defs>
</svg>
