<svg width="1847" height="1230" viewBox="0 0 1847 1230" fill="none" xmlns="http://www.w3.org/2000/svg">
<g filter="url(#filter0_d)">
<path d="M1778.34 610.124L1779.36 609.13L1778.36 608.117L1777.35 609.111L1778.34 610.124ZM1779.34 611.137L1778.33 612.131H1778.33L1779.34 611.137ZM1776.32 612.112L1775.32 611.099L1774.31 612.093L1775.31 613.106L1776.32 612.112ZM1777.31 613.125L1778.33 612.131L1777.31 613.125ZM1820.48 657.122L1819.47 658.116L1820.48 657.122ZM1821.47 658.136L1820.46 659.13L1821.46 660.143L1822.47 659.149L1821.47 658.136ZM1823.5 656.148L1824.49 657.161L1825.51 656.167L1824.51 655.154L1823.5 656.148ZM1822.51 655.135L1821.49 656.129L1822.51 655.135ZM1778.34 791.791L1779.36 790.797L1778.36 789.784L1777.35 790.778L1778.34 791.791ZM1779.34 792.804L1778.33 793.798H1778.33L1779.34 792.804ZM1776.32 793.779L1775.32 792.766L1774.31 793.76L1775.31 794.773L1776.32 793.779ZM1777.31 794.792L1776.3 795.786H1776.3L1777.31 794.792ZM1820.48 838.789L1819.47 839.783H1819.47L1820.48 838.789ZM1821.47 839.802L1820.46 840.796L1821.46 841.81L1822.47 840.816L1821.47 839.802ZM1823.5 837.815L1824.49 838.828L1825.51 837.834L1824.51 836.821L1823.5 837.815ZM1822.51 836.801L1821.49 837.795H1821.49L1822.51 836.801ZM1779.34 974.471L1780.35 973.477H1780.35L1779.34 974.471ZM1778.34 973.458L1779.36 972.464L1778.36 971.451L1777.35 972.445L1778.34 973.458ZM1822.51 1018.47L1823.52 1017.47H1823.52L1822.51 1018.47ZM1823.5 1019.48L1824.49 1020.49L1825.51 1019.5L1824.51 1018.49L1823.5 1019.48ZM1821.47 1021.47L1820.46 1022.46L1821.46 1023.48L1822.47 1022.48L1821.47 1021.47ZM1820.48 1020.46L1821.49 1019.46H1821.49L1820.48 1020.46ZM1777.31 976.459L1776.3 977.453H1776.3L1777.31 976.459ZM1776.32 975.446L1775.32 974.433L1774.31 975.427L1775.31 976.44L1776.32 975.446ZM1778.34 700.958L1779.36 699.964L1778.36 698.951L1777.35 699.945L1778.34 700.958ZM1779.34 701.971L1780.35 700.977H1780.35L1779.34 701.971ZM1776.32 702.946L1775.32 701.933L1774.31 702.927L1775.31 703.94L1776.32 702.946ZM1777.31 703.959L1778.33 702.965H1778.33L1777.31 703.959ZM1820.48 747.957L1819.47 748.951L1820.48 747.957ZM1821.47 748.97L1820.46 749.964L1821.46 750.977L1822.47 749.983L1821.47 748.97ZM1823.5 746.982L1824.49 747.995L1825.51 747.001L1824.51 745.988L1823.5 746.982ZM1822.51 745.969L1821.49 746.963H1821.49L1822.51 745.969ZM1779.34 883.638L1780.35 882.644H1780.35L1779.34 883.638ZM1778.34 882.625L1779.36 881.631L1778.36 880.618L1777.35 881.612L1778.34 882.625ZM1822.51 927.635L1823.52 926.641H1823.52L1822.51 927.635ZM1823.5 928.648L1824.49 929.662L1825.51 928.668L1824.51 927.655L1823.5 928.648ZM1821.47 930.636L1820.46 931.63L1821.46 932.644L1822.47 931.65L1821.47 930.636ZM1820.48 929.623L1821.49 928.629H1821.49L1820.48 929.623ZM1777.31 885.626L1778.33 884.632H1778.33L1777.31 885.626ZM1776.32 884.613L1775.32 883.6L1774.31 884.594L1775.31 885.607L1776.32 884.613ZM1778.34 1064.29L1779.36 1063.3L1778.36 1062.28L1777.35 1063.28L1778.34 1064.29ZM1779.34 1065.3L1780.35 1064.31H1780.35L1779.34 1065.3ZM1776.32 1066.28L1775.32 1065.27L1774.31 1066.26L1775.31 1067.27L1776.32 1066.28ZM1777.31 1067.29L1776.3 1068.29H1776.3L1777.31 1067.29ZM1820.48 1111.29L1821.49 1110.3H1821.49L1820.48 1111.29ZM1821.47 1112.3L1820.46 1113.3L1821.46 1114.31L1822.47 1113.32L1821.47 1112.3ZM1823.5 1110.31L1824.49 1111.33L1825.51 1110.33L1824.51 1109.32L1823.5 1110.31ZM1822.51 1109.3L1823.52 1108.31H1823.52L1822.51 1109.3ZM1779.34 656.554L1780.35 655.56H1780.35L1779.34 656.554ZM1778.34 655.541L1779.36 654.547L1778.36 653.534L1777.35 654.528L1778.34 655.541ZM1822.51 700.552L1821.49 701.545L1822.51 700.552ZM1823.5 701.565L1824.49 702.578L1825.51 701.584L1824.51 700.571L1823.5 701.565ZM1821.47 703.553L1820.46 704.547L1821.46 705.56L1822.47 704.566L1821.47 703.553ZM1820.48 702.539L1819.47 703.533L1820.48 702.539ZM1777.31 658.542L1776.3 659.536H1776.3L1777.31 658.542ZM1776.32 657.529L1775.32 656.516L1774.31 657.51L1775.31 658.523L1776.32 657.529ZM1778.34 837.208L1779.36 836.214L1778.36 835.201L1777.35 836.195L1778.34 837.208ZM1779.34 838.221L1778.33 839.215L1779.34 838.221ZM1776.32 839.196L1775.32 838.183L1774.31 839.177L1775.31 840.19L1776.32 839.196ZM1777.31 840.209L1776.3 841.203H1776.3L1777.31 840.209ZM1820.48 884.206L1819.47 885.2H1819.47L1820.48 884.206ZM1821.47 885.22L1820.46 886.214L1821.46 887.227L1822.47 886.233L1821.47 885.22ZM1823.5 883.232L1824.49 884.245L1825.51 883.251L1824.51 882.238L1823.5 883.232ZM1822.51 882.219L1821.49 883.212H1821.49L1822.51 882.219ZM1779.34 1019.89L1780.35 1018.89H1780.35L1779.34 1019.89ZM1778.34 1018.88L1779.36 1017.88L1778.36 1016.87L1777.35 1017.86L1778.34 1018.88ZM1822.51 1063.89L1823.52 1062.89H1823.52L1822.51 1063.89ZM1823.5 1064.9L1824.49 1065.91L1825.51 1064.92L1824.51 1063.9L1823.5 1064.9ZM1821.47 1066.89L1820.46 1067.88L1821.46 1068.89L1822.47 1067.9L1821.47 1066.89ZM1820.48 1065.87L1821.49 1064.88H1821.49L1820.48 1065.87ZM1777.31 1021.88L1776.3 1022.87H1776.3L1777.31 1021.88ZM1776.32 1020.86L1775.32 1019.85L1774.31 1020.84L1775.31 1021.86L1776.32 1020.86ZM1778.34 746.374L1779.36 745.38L1778.36 744.367L1777.35 745.361L1778.34 746.374ZM1779.34 747.387L1780.35 746.393H1780.35L1779.34 747.387ZM1776.32 748.362L1775.32 747.349L1774.31 748.343L1775.31 749.356L1776.32 748.362ZM1777.31 749.375L1778.33 748.381H1778.33L1777.31 749.375ZM1820.48 793.373L1819.47 794.367L1820.48 793.373ZM1821.47 794.386L1820.46 795.38L1821.46 796.393L1822.47 795.399L1821.47 794.386ZM1823.5 792.398L1824.49 793.411L1825.51 792.417L1824.51 791.404L1823.5 792.398ZM1822.51 791.385L1821.49 792.379H1821.49L1822.51 791.385ZM1779.34 929.054L1780.35 928.06H1780.35L1779.34 929.054ZM1778.34 928.041L1779.36 927.047L1778.36 926.034L1777.35 927.028L1778.34 928.041ZM1822.51 973.051L1823.52 972.057H1823.52L1822.51 973.051ZM1823.5 974.065L1824.49 975.078L1825.51 974.084L1824.51 973.071L1823.5 974.065ZM1821.47 976.053L1820.46 977.047L1821.46 978.06L1822.47 977.066L1821.47 976.053ZM1820.48 975.039L1821.49 974.045H1821.49L1820.48 975.039ZM1777.31 931.042L1776.3 932.036H1776.3L1777.31 931.042ZM1776.32 930.029L1775.32 929.016L1774.31 930.01L1775.31 931.023L1776.32 930.029ZM1778.34 632.833L1779.36 631.839L1778.36 630.826L1777.35 631.82L1778.34 632.833ZM1779.34 633.846L1778.33 634.84H1778.33L1779.34 633.846ZM1776.32 634.821L1775.32 633.808L1774.31 634.802L1775.31 635.815L1776.32 634.821ZM1777.31 635.834L1776.3 636.828H1776.3L1777.31 635.834ZM1820.48 679.831L1819.47 680.825L1820.48 679.831ZM1821.47 680.845L1820.46 681.839L1821.46 682.852L1822.47 681.858L1821.47 680.845ZM1823.5 678.857L1824.49 679.87L1825.51 678.876L1824.51 677.863L1823.5 678.857ZM1822.51 677.843L1821.49 678.837L1822.51 677.843ZM1779.34 815.513L1778.33 816.507L1779.34 815.513ZM1778.34 814.5L1779.36 813.506L1778.36 812.493L1777.35 813.487L1778.34 814.5ZM1822.51 859.51L1821.49 860.504L1822.51 859.51ZM1823.5 860.524L1824.49 861.537L1825.51 860.543L1824.51 859.53L1823.5 860.524ZM1821.47 862.512L1820.46 863.506L1821.46 864.519L1822.47 863.525L1821.47 862.512ZM1820.48 861.498L1819.47 862.492H1819.47L1820.48 861.498ZM1777.31 817.501L1776.3 818.495H1776.3L1777.31 817.501ZM1776.32 816.488L1775.32 815.475L1774.31 816.469L1775.31 817.482L1776.32 816.488ZM1778.34 996.166L1779.36 995.172L1778.36 994.159L1777.35 995.153L1778.34 996.166ZM1779.34 997.179L1780.35 996.185H1780.35L1779.34 997.179ZM1776.32 998.154L1775.32 997.141L1774.31 998.135L1775.31 999.148L1776.32 998.154ZM1777.31 999.167L1778.33 998.173H1778.33L1777.31 999.167ZM1820.48 1043.16L1821.49 1042.17H1821.49L1820.48 1043.16ZM1821.47 1044.18L1820.46 1045.17L1821.46 1046.18L1822.47 1045.19L1821.47 1044.18ZM1823.5 1042.19L1824.49 1043.2L1825.51 1042.21L1824.51 1041.2L1823.5 1042.19ZM1822.51 1041.18L1823.52 1040.18H1823.52L1822.51 1041.18ZM1779.34 724.679L1778.33 725.673L1779.34 724.679ZM1778.34 723.666L1779.36 722.672L1778.36 721.659L1777.35 722.653L1778.34 723.666ZM1822.51 768.677L1821.49 769.671L1822.51 768.677ZM1823.5 769.69L1824.49 770.703L1825.51 769.709L1824.51 768.696L1823.5 769.69ZM1821.47 771.678L1820.46 772.672L1821.46 773.685L1822.47 772.691L1821.47 771.678ZM1820.48 770.664L1819.47 771.658H1819.47L1820.48 770.664ZM1777.31 726.667L1776.3 727.661H1776.3L1777.31 726.667ZM1776.32 725.654L1775.32 724.641L1774.31 725.635L1775.31 726.648L1776.32 725.654ZM1778.34 905.333L1779.36 904.339L1778.36 903.326L1777.35 904.32L1778.34 905.333ZM1779.34 906.346L1780.35 905.352H1780.35L1779.34 906.346ZM1776.32 907.321L1775.32 906.308L1774.31 907.302L1775.31 908.315L1776.32 907.321ZM1777.31 908.334L1776.3 909.328H1776.3L1777.31 908.334ZM1820.48 952.331L1821.49 951.337H1821.49L1820.48 952.331ZM1821.47 953.345L1820.46 954.339L1821.46 955.352L1822.47 954.358L1821.47 953.345ZM1823.5 951.357L1824.49 952.37L1825.51 951.376L1824.51 950.363L1823.5 951.357ZM1822.51 950.343L1823.52 949.349H1823.52L1822.51 950.343ZM1779.34 1088.01L1780.35 1087.02H1780.35L1779.34 1088.01ZM1778.34 1087L1779.36 1086.01L1778.36 1084.99L1777.35 1085.99L1778.34 1087ZM1822.51 1132.01L1821.49 1133L1821.49 1133L1822.51 1132.01ZM1823.5 1133.02L1824.49 1134.04L1825.51 1133.04L1824.51 1132.03L1823.5 1133.02ZM1821.47 1135.01L1820.46 1136.01L1821.46 1137.02L1822.47 1136.02L1821.47 1135.01ZM1820.48 1134L1819.47 1134.99L1819.47 1134.99L1820.48 1134ZM1777.31 1090L1776.3 1091H1776.3L1777.31 1090ZM1776.32 1088.99L1775.32 1087.97L1774.31 1088.97L1775.31 1089.98L1776.32 1088.99ZM1778.34 678.25L1779.36 677.256L1778.36 676.243L1777.35 677.237L1778.34 678.25ZM1779.34 679.263L1778.33 680.257H1778.33L1779.34 679.263ZM1776.32 680.238L1775.32 679.225L1774.31 680.219L1775.31 681.232L1776.32 680.238ZM1777.31 681.251L1776.3 682.245H1776.3L1777.31 681.251ZM1820.48 725.248L1821.49 724.254L1820.48 725.248ZM1821.47 726.261L1820.46 727.255L1821.46 728.269L1822.47 727.275L1821.47 726.261ZM1823.5 724.274L1824.49 725.287L1825.51 724.293L1824.51 723.28L1823.5 724.274ZM1822.51 723.26L1821.49 724.254H1821.49L1822.51 723.26ZM1779.34 860.929L1780.35 859.935H1780.35L1779.34 860.929ZM1778.34 859.916L1779.36 858.922L1778.36 857.909L1777.35 858.903L1778.34 859.916ZM1822.51 904.927L1821.49 905.921H1821.49L1822.51 904.927ZM1823.5 905.94L1824.49 906.953L1825.51 905.959L1824.51 904.946L1823.5 905.94ZM1821.47 907.928L1820.46 908.922L1821.46 909.935L1822.47 908.941L1821.47 907.928ZM1820.48 906.915L1819.47 907.909H1819.47L1820.48 906.915ZM1777.31 862.917L1778.33 861.923H1778.33L1777.31 862.917ZM1776.32 861.904L1775.32 860.891L1774.31 861.885L1775.31 862.898L1776.32 861.904ZM1778.34 1041.58L1779.36 1040.59L1778.36 1039.58L1777.35 1040.57L1778.34 1041.58ZM1779.34 1042.6L1780.35 1041.6H1780.35L1779.34 1042.6ZM1776.32 1043.57L1775.32 1042.56L1774.31 1043.55L1775.31 1044.56L1776.32 1043.57ZM1777.31 1044.58L1776.3 1045.58H1776.3L1777.31 1044.58ZM1820.48 1088.58L1821.49 1087.59H1821.49L1820.48 1088.58ZM1821.47 1089.59L1820.46 1090.59L1821.46 1091.6L1822.47 1090.61L1821.47 1089.59ZM1823.5 1087.61L1824.49 1088.62L1825.51 1087.63L1824.51 1086.61L1823.5 1087.61ZM1822.51 1086.59L1823.52 1085.6H1823.52L1822.51 1086.59ZM1779.34 770.096L1778.33 771.09L1779.34 770.096ZM1778.34 769.083L1779.36 768.089L1778.36 767.076L1777.35 768.07L1778.34 769.083ZM1822.51 814.094L1821.49 815.087L1822.51 814.094ZM1823.5 815.107L1824.49 816.12L1825.51 815.126L1824.51 814.113L1823.5 815.107ZM1821.47 817.095L1820.46 818.089L1821.46 819.102L1822.47 818.108L1821.47 817.095ZM1820.48 816.081L1819.47 817.075H1819.47L1820.48 816.081ZM1777.31 772.084L1776.3 773.078H1776.3L1777.31 772.084ZM1776.32 771.071L1775.32 770.058L1774.31 771.052L1775.31 772.065L1776.32 771.071ZM1778.34 950.75L1779.36 949.756L1778.36 948.743L1777.35 949.737L1778.34 950.75ZM1779.34 951.763L1780.35 950.769H1780.35L1779.34 951.763ZM1776.32 952.738L1775.32 951.725L1774.31 952.719L1775.31 953.732L1776.32 952.738ZM1777.31 953.751L1776.3 954.745H1776.3L1777.31 953.751ZM1820.48 997.749L1821.49 996.755H1821.49L1820.48 997.749ZM1821.47 998.762L1820.46 999.756L1821.46 1000.77L1822.47 999.775L1821.47 998.762ZM1823.5 996.774L1824.49 997.787L1825.51 996.793L1824.51 995.78L1823.5 996.774ZM1822.51 995.761L1823.52 994.767H1823.52L1822.51 995.761ZM1777.33 611.118L1778.33 612.131L1780.35 610.143L1779.36 609.13L1777.33 611.118ZM1777.31 613.125L1779.34 611.137L1777.35 609.111L1775.32 611.099L1777.31 613.125ZM1778.33 612.131L1777.33 611.118L1775.31 613.106L1776.3 614.119L1778.33 612.131ZM1821.49 656.128L1778.33 612.131L1776.3 614.119L1819.47 658.116L1821.49 656.128ZM1822.49 657.142L1821.49 656.128L1819.47 658.116L1820.46 659.13L1822.49 657.142ZM1822.51 655.135L1820.48 657.122L1822.47 659.149L1824.49 657.161L1822.51 655.135ZM1821.49 656.129L1822.49 657.142L1824.51 655.154L1823.52 654.141L1821.49 656.129ZM1778.33 612.131L1821.49 656.129L1823.52 654.141L1780.35 610.143L1778.33 612.131ZM1777.33 792.785L1778.33 793.798L1780.35 791.81L1779.36 790.797L1777.33 792.785ZM1777.31 794.792L1779.34 792.804L1777.35 790.778L1775.32 792.766L1777.31 794.792ZM1778.33 793.798L1777.33 792.785L1775.31 794.773L1776.3 795.786L1778.33 793.798ZM1821.49 837.795L1778.33 793.798L1776.3 795.786L1819.47 839.783L1821.49 837.795ZM1822.49 838.809L1821.49 837.795L1819.47 839.783L1820.46 840.796L1822.49 838.809ZM1822.51 836.801L1820.48 838.789L1822.47 840.816L1824.49 838.828L1822.51 836.801ZM1821.49 837.795L1822.49 838.809L1824.51 836.821L1823.52 835.807L1821.49 837.795ZM1778.33 793.798L1821.49 837.795L1823.52 835.807L1780.35 791.81L1778.33 793.798ZM1780.35 973.477L1779.36 972.464L1777.33 974.452L1778.33 975.465L1780.35 973.477ZM1823.52 1017.47L1780.35 973.477L1778.33 975.465L1821.49 1019.46L1823.52 1017.47ZM1824.51 1018.49L1823.52 1017.47L1821.49 1019.46L1822.49 1020.48L1824.51 1018.49ZM1822.47 1022.48L1824.49 1020.49L1822.51 1018.47L1820.48 1020.46L1822.47 1022.48ZM1819.47 1021.45L1820.46 1022.46L1822.49 1020.48L1821.49 1019.46L1819.47 1021.45ZM1776.3 977.453L1819.47 1021.45L1821.49 1019.46L1778.33 975.465L1776.3 977.453ZM1775.31 976.44L1776.3 977.453L1778.33 975.465L1777.33 974.452L1775.31 976.44ZM1777.35 972.445L1775.32 974.433L1777.31 976.459L1779.34 974.471L1777.35 972.445ZM1777.33 701.952L1778.33 702.965L1780.35 700.977L1779.36 699.964L1777.33 701.952ZM1777.31 703.959L1779.34 701.971L1777.35 699.945L1775.32 701.933L1777.31 703.959ZM1778.33 702.965L1777.33 701.952L1775.31 703.94L1776.3 704.953L1778.33 702.965ZM1821.49 746.963L1778.33 702.965L1776.3 704.953L1819.47 748.951L1821.49 746.963ZM1822.49 747.976L1821.49 746.963L1819.47 748.951L1820.46 749.964L1822.49 747.976ZM1822.51 745.969L1820.48 747.957L1822.47 749.983L1824.49 747.995L1822.51 745.969ZM1821.49 746.963L1822.49 747.976L1824.51 745.988L1823.52 744.975L1821.49 746.963ZM1778.33 702.965L1821.49 746.963L1823.52 744.975L1780.35 700.977L1778.33 702.965ZM1780.35 882.644L1779.36 881.631L1777.33 883.619L1778.33 884.632L1780.35 882.644ZM1823.52 926.641L1780.35 882.644L1778.33 884.632L1821.49 928.629L1823.52 926.641ZM1824.51 927.655L1823.52 926.641L1821.49 928.629L1822.49 929.642L1824.51 927.655ZM1822.47 931.65L1824.49 929.662L1822.51 927.635L1820.48 929.623L1822.47 931.65ZM1819.47 930.617L1820.46 931.63L1822.49 929.642L1821.49 928.629L1819.47 930.617ZM1776.3 886.62L1819.47 930.617L1821.49 928.629L1778.33 884.632L1776.3 886.62ZM1775.31 885.607L1776.3 886.62L1778.33 884.632L1777.33 883.619L1775.31 885.607ZM1777.35 881.612L1775.32 883.6L1777.31 885.626L1779.34 883.638L1777.35 881.612ZM1777.33 1065.29L1778.33 1066.3L1780.35 1064.31L1779.36 1063.3L1777.33 1065.29ZM1777.31 1067.29L1779.34 1065.3L1777.35 1063.28L1775.32 1065.27L1777.31 1067.29ZM1778.33 1066.3L1777.33 1065.28L1775.31 1067.27L1776.3 1068.29L1778.33 1066.3ZM1821.49 1110.3L1778.33 1066.3L1776.3 1068.29L1819.47 1112.28L1821.49 1110.3ZM1822.49 1111.31L1821.49 1110.3L1819.47 1112.28L1820.46 1113.3L1822.49 1111.31ZM1822.51 1109.3L1820.48 1111.29L1822.47 1113.32L1824.49 1111.33L1822.51 1109.3ZM1821.49 1110.3L1822.49 1111.31L1824.51 1109.32L1823.52 1108.31L1821.49 1110.3ZM1778.33 1066.3L1821.49 1110.3L1823.52 1108.31L1780.35 1064.31L1778.33 1066.3ZM1780.35 655.56L1779.36 654.547L1777.33 656.535L1778.33 657.548L1780.35 655.56ZM1823.52 699.558L1780.35 655.56L1778.33 657.548L1821.49 701.545L1823.52 699.558ZM1824.51 700.571L1823.52 699.558L1821.49 701.545L1822.49 702.559L1824.51 700.571ZM1822.47 704.566L1824.49 702.578L1822.51 700.552L1820.48 702.539L1822.47 704.566ZM1819.47 703.533L1820.46 704.547L1822.49 702.559L1821.49 701.545L1819.47 703.533ZM1776.3 659.536L1819.47 703.533L1821.49 701.545L1778.33 657.548L1776.3 659.536ZM1775.31 658.523L1776.3 659.536L1778.33 657.548L1777.33 656.535L1775.31 658.523ZM1777.35 654.528L1775.32 656.516L1777.31 658.542L1779.34 656.554L1777.35 654.528ZM1777.33 838.202L1778.33 839.215L1780.35 837.227L1779.36 836.214L1777.33 838.202ZM1777.31 840.209L1779.34 838.221L1777.35 836.195L1775.32 838.183L1777.31 840.209ZM1778.33 839.215L1777.33 838.202L1775.31 840.19L1776.3 841.203L1778.33 839.215ZM1821.49 883.212L1778.33 839.215L1776.3 841.203L1819.47 885.2L1821.49 883.212ZM1822.49 884.226L1821.49 883.212L1819.47 885.2L1820.46 886.214L1822.49 884.226ZM1822.51 882.219L1820.48 884.206L1822.47 886.233L1824.49 884.245L1822.51 882.219ZM1821.49 883.212L1822.49 884.226L1824.51 882.238L1823.52 881.225L1821.49 883.212ZM1778.33 839.215L1821.49 883.212L1823.52 881.225L1780.35 837.227L1778.33 839.215ZM1780.35 1018.89L1779.36 1017.88L1777.33 1019.87L1778.33 1020.88L1780.35 1018.89ZM1823.52 1062.89L1780.35 1018.89L1778.33 1020.88L1821.49 1064.88L1823.52 1062.89ZM1824.51 1063.9L1823.52 1062.89L1821.49 1064.88L1822.49 1065.89L1824.51 1063.9ZM1822.47 1067.9L1824.49 1065.91L1822.51 1063.89L1820.48 1065.87L1822.47 1067.9ZM1819.47 1066.87L1820.46 1067.88L1822.49 1065.89L1821.49 1064.88L1819.47 1066.87ZM1776.3 1022.87L1819.47 1066.87L1821.49 1064.88L1778.33 1020.88L1776.3 1022.87ZM1775.31 1021.86L1776.3 1022.87L1778.33 1020.88L1777.33 1019.87L1775.31 1021.86ZM1777.35 1017.86L1775.32 1019.85L1777.31 1021.88L1779.34 1019.89L1777.35 1017.86ZM1777.33 747.368L1778.33 748.381L1780.35 746.393L1779.36 745.38L1777.33 747.368ZM1777.31 749.375L1779.34 747.387L1777.35 745.361L1775.32 747.349L1777.31 749.375ZM1778.33 748.381L1777.33 747.368L1775.31 749.356L1776.3 750.369L1778.33 748.381ZM1821.49 792.379L1778.33 748.381L1776.3 750.369L1819.47 794.367L1821.49 792.379ZM1822.49 793.392L1821.49 792.379L1819.47 794.367L1820.46 795.38L1822.49 793.392ZM1822.51 791.385L1820.48 793.373L1822.47 795.399L1824.49 793.411L1822.51 791.385ZM1821.49 792.379L1822.49 793.392L1824.51 791.404L1823.52 790.391L1821.49 792.379ZM1778.33 748.381L1821.49 792.379L1823.52 790.391L1780.35 746.393L1778.33 748.381ZM1780.35 928.06L1779.36 927.047L1777.33 929.035L1778.33 930.048L1780.35 928.06ZM1823.52 972.057L1780.35 928.06L1778.33 930.048L1821.49 974.045L1823.52 972.057ZM1824.51 973.071L1823.52 972.057L1821.49 974.045L1822.49 975.059L1824.51 973.071ZM1822.47 977.066L1824.49 975.078L1822.51 973.052L1820.48 975.039L1822.47 977.066ZM1819.47 976.033L1820.46 977.047L1822.49 975.059L1821.49 974.045L1819.47 976.033ZM1776.3 932.036L1819.47 976.033L1821.49 974.045L1778.33 930.048L1776.3 932.036ZM1775.31 931.023L1776.3 932.036L1778.33 930.048L1777.33 929.035L1775.31 931.023ZM1777.35 927.028L1775.32 929.016L1777.31 931.042L1779.34 929.054L1777.35 927.028ZM1777.33 633.827L1778.33 634.84L1780.35 632.852L1779.36 631.839L1777.33 633.827ZM1777.31 635.834L1779.34 633.846L1777.35 631.82L1775.32 633.808L1777.31 635.834ZM1778.33 634.84L1777.33 633.827L1775.31 635.815L1776.3 636.828L1778.33 634.84ZM1821.49 678.837L1778.33 634.84L1776.3 636.828L1819.47 680.825L1821.49 678.837ZM1822.49 679.851L1821.49 678.837L1819.47 680.825L1820.46 681.839L1822.49 679.851ZM1822.51 677.843L1820.48 679.831L1822.47 681.858L1824.49 679.87L1822.51 677.843ZM1821.49 678.837L1822.49 679.851L1824.51 677.863L1823.52 676.85L1821.49 678.837ZM1778.33 634.84L1821.49 678.837L1823.52 676.85L1780.35 632.852L1778.33 634.84ZM1780.35 814.519L1779.36 813.506L1777.33 815.494L1778.33 816.507L1780.35 814.519ZM1823.52 858.517L1780.35 814.519L1778.33 816.507L1821.49 860.504L1823.52 858.517ZM1824.51 859.53L1823.52 858.517L1821.49 860.504L1822.49 861.518L1824.51 859.53ZM1822.47 863.525L1824.49 861.537L1822.51 859.51L1820.48 861.498L1822.47 863.525ZM1819.47 862.492L1820.46 863.506L1822.49 861.518L1821.49 860.504L1819.47 862.492ZM1776.3 818.495L1819.47 862.492L1821.49 860.504L1778.33 816.507L1776.3 818.495ZM1775.31 817.482L1776.3 818.495L1778.33 816.507L1777.33 815.494L1775.31 817.482ZM1777.35 813.487L1775.32 815.475L1777.31 817.501L1779.34 815.513L1777.35 813.487ZM1777.33 997.16L1778.33 998.173L1780.35 996.185L1779.36 995.172L1777.33 997.16ZM1777.31 999.167L1779.34 997.179L1777.35 995.153L1775.32 997.141L1777.31 999.167ZM1778.33 998.173L1777.33 997.16L1775.31 999.148L1776.3 1000.16L1778.33 998.173ZM1821.49 1042.17L1778.33 998.173L1776.3 1000.16L1819.47 1044.16L1821.49 1042.17ZM1822.49 1043.18L1821.49 1042.17L1819.47 1044.16L1820.46 1045.17L1822.49 1043.18ZM1822.51 1041.18L1820.48 1043.16L1822.47 1045.19L1824.49 1043.2L1822.51 1041.18ZM1821.49 1042.17L1822.49 1043.18L1824.51 1041.2L1823.52 1040.18L1821.49 1042.17ZM1778.33 998.173L1821.49 1042.17L1823.52 1040.18L1780.35 996.185L1778.33 998.173ZM1780.35 723.685L1779.36 722.672L1777.33 724.66L1778.33 725.673L1780.35 723.685ZM1823.52 767.683L1780.35 723.685L1778.33 725.673L1821.49 769.671L1823.52 767.683ZM1824.51 768.696L1823.52 767.683L1821.49 769.671L1822.49 770.684L1824.51 768.696ZM1822.47 772.691L1824.49 770.703L1822.51 768.677L1820.48 770.664L1822.47 772.691ZM1819.47 771.658L1820.46 772.672L1822.49 770.684L1821.49 769.671L1819.47 771.658ZM1776.3 727.661L1819.47 771.658L1821.49 769.671L1778.33 725.673L1776.3 727.661ZM1775.31 726.648L1776.3 727.661L1778.33 725.673L1777.33 724.66L1775.31 726.648ZM1777.35 722.653L1775.32 724.641L1777.31 726.667L1779.34 724.679L1777.35 722.653ZM1777.33 906.327L1778.33 907.34L1780.35 905.352L1779.36 904.339L1777.33 906.327ZM1777.31 908.334L1779.34 906.346L1777.35 904.32L1775.32 906.308L1777.31 908.334ZM1778.33 907.34L1777.33 906.327L1775.31 908.315L1776.3 909.328L1778.33 907.34ZM1821.49 951.337L1778.33 907.34L1776.3 909.328L1819.47 953.325L1821.49 951.337ZM1822.49 952.351L1821.49 951.337L1819.47 953.325L1820.46 954.339L1822.49 952.351ZM1822.51 950.344L1820.48 952.331L1822.47 954.358L1824.49 952.37L1822.51 950.344ZM1821.49 951.337L1822.49 952.351L1824.51 950.363L1823.52 949.349L1821.49 951.337ZM1778.33 907.34L1821.49 951.337L1823.52 949.349L1780.35 905.352L1778.33 907.34ZM1780.35 1087.02L1779.36 1086.01L1777.33 1087.99L1778.33 1089.01L1780.35 1087.02ZM1823.52 1131.02L1780.35 1087.02L1778.33 1089.01L1821.49 1133L1823.52 1131.02ZM1824.51 1132.03L1823.52 1131.02L1821.49 1133L1822.49 1134.02L1824.51 1132.03ZM1822.47 1136.02L1824.49 1134.04L1822.51 1132.01L1820.48 1134L1822.47 1136.02ZM1819.47 1134.99L1820.46 1136.01L1822.49 1134.02L1821.49 1133L1819.47 1134.99ZM1776.3 1091L1819.47 1134.99L1821.49 1133L1778.33 1089.01L1776.3 1091ZM1775.31 1089.98L1776.3 1091L1778.33 1089.01L1777.33 1087.99L1775.31 1089.98ZM1777.35 1085.99L1775.32 1087.97L1777.31 1090L1779.34 1088.01L1777.35 1085.99ZM1777.33 679.244L1778.33 680.257L1780.35 678.269L1779.36 677.256L1777.33 679.244ZM1777.31 681.251L1779.34 679.263L1777.35 677.237L1775.32 679.225L1777.31 681.251ZM1778.33 680.257L1777.33 679.244L1775.31 681.232L1776.3 682.245L1778.33 680.257ZM1821.49 724.254L1778.33 680.257L1776.3 682.245L1819.47 726.242L1821.49 724.254ZM1822.49 725.267L1821.49 724.254L1819.47 726.242L1820.46 727.255L1822.49 725.267ZM1822.51 723.26L1820.48 725.248L1822.47 727.275L1824.49 725.287L1822.51 723.26ZM1821.49 724.254L1822.49 725.267L1824.51 723.28L1823.52 722.266L1821.49 724.254ZM1778.33 680.257L1821.49 724.254L1823.52 722.266L1780.35 678.269L1778.33 680.257ZM1780.35 859.935L1779.36 858.922L1777.33 860.91L1778.33 861.923L1780.35 859.935ZM1823.52 903.933L1780.35 859.935L1778.33 861.923L1821.49 905.921L1823.52 903.933ZM1824.51 904.946L1823.52 903.933L1821.49 905.921L1822.49 906.934L1824.51 904.946ZM1822.47 908.941L1824.49 906.953L1822.51 904.927L1820.48 906.915L1822.47 908.941ZM1819.47 907.909L1820.46 908.922L1822.49 906.934L1821.49 905.921L1819.47 907.909ZM1776.3 863.911L1819.47 907.909L1821.49 905.921L1778.33 861.923L1776.3 863.911ZM1775.31 862.898L1776.3 863.911L1778.33 861.923L1777.33 860.91L1775.31 862.898ZM1777.35 858.903L1775.32 860.891L1777.31 862.917L1779.34 860.929L1777.35 858.903ZM1777.33 1042.58L1778.33 1043.59L1780.35 1041.6L1779.36 1040.59L1777.33 1042.58ZM1777.31 1044.58L1779.34 1042.6L1777.35 1040.57L1775.32 1042.56L1777.31 1044.58ZM1778.33 1043.59L1777.33 1042.58L1775.31 1044.56L1776.3 1045.58L1778.33 1043.59ZM1821.49 1087.59L1778.33 1043.59L1776.3 1045.58L1819.47 1089.58L1821.49 1087.59ZM1822.49 1088.6L1821.49 1087.59L1819.47 1089.58L1820.46 1090.59L1822.49 1088.6ZM1822.51 1086.59L1820.48 1088.58L1822.47 1090.61L1824.49 1088.62L1822.51 1086.59ZM1821.49 1087.59L1822.49 1088.6L1824.51 1086.61L1823.52 1085.6L1821.49 1087.59ZM1778.33 1043.59L1821.49 1087.59L1823.52 1085.6L1780.35 1041.6L1778.33 1043.59ZM1780.35 769.102L1779.36 768.089L1777.33 770.077L1778.33 771.09L1780.35 769.102ZM1823.52 813.1L1780.35 769.102L1778.33 771.09L1821.49 815.087L1823.52 813.1ZM1824.51 814.113L1823.52 813.1L1821.49 815.087L1822.49 816.101L1824.51 814.113ZM1822.47 818.108L1824.49 816.12L1822.51 814.094L1820.48 816.081L1822.47 818.108ZM1819.47 817.075L1820.46 818.089L1822.49 816.101L1821.49 815.087L1819.47 817.075ZM1776.3 773.078L1819.47 817.075L1821.49 815.087L1778.33 771.09L1776.3 773.078ZM1775.31 772.065L1776.3 773.078L1778.33 771.09L1777.33 770.077L1775.31 772.065ZM1777.35 768.07L1775.32 770.058L1777.31 772.084L1779.34 770.096L1777.35 768.07ZM1777.33 951.744L1778.33 952.757L1780.35 950.769L1779.36 949.756L1777.33 951.744ZM1777.31 953.751L1779.34 951.763L1777.35 949.737L1775.32 951.725L1777.31 953.751ZM1778.33 952.757L1777.33 951.744L1775.31 953.732L1776.3 954.745L1778.33 952.757ZM1821.49 996.755L1778.33 952.757L1776.3 954.745L1819.47 998.742L1821.49 996.755ZM1822.49 997.768L1821.49 996.755L1819.47 998.742L1820.46 999.756L1822.49 997.768ZM1822.51 995.761L1820.48 997.749L1822.47 999.775L1824.49 997.787L1822.51 995.761ZM1821.49 996.755L1822.49 997.768L1824.51 995.78L1823.52 994.767L1821.49 996.755ZM1778.33 952.757L1821.49 996.755L1823.52 994.767L1780.35 950.769L1778.33 952.757Z" fill="#00709B"/>
</g>
<g filter="url(#filter1_di)">
<mask id="path-2-inside-1" fill="white">
<path fill-rule="evenodd" clip-rule="evenodd" d="M49.799 36.8385H14.8385V72.4706L49.799 36.8385ZM52.584 34H14.8385H12V36.8385V75.3637V79.4167L14.8385 76.5236L53.7757 36.8385L56.5607 34H52.584ZM1784.48 1214.19H1830.58V1167.21L1784.48 1214.19ZM1781.69 1217.03H1830.58H1833.42V1214.19V1164.31V1160.26L1830.58 1163.15L1780.5 1214.19L1777.72 1217.03H1781.69ZM14.8385 1214.19V1178.56L49.799 1214.19H14.8385ZM12 1214.19V1175.67V1171.62L14.8385 1174.51L53.7757 1214.19L56.5607 1217.03H52.5841H14.8385H12V1214.19ZM1774.88 73.4706V37.8385H1739.92L1774.88 73.4706ZM1777.72 76.3637V37.8385V35H1774.88H1737.13H1733.16L1735.94 37.8385L1774.88 77.5236L1777.72 80.4167V76.3637ZM1830.73 34H1831.16H1833.57H1834V36.8385V609.161V612H1833.57H1831.16H1830.73V609.161V36.8385V34Z"/>
</mask>
<path fill-rule="evenodd" clip-rule="evenodd" d="M49.799 36.8385H14.8385V72.4706L49.799 36.8385ZM52.584 34H14.8385H12V36.8385V75.3637V79.4167L14.8385 76.5236L53.7757 36.8385L56.5607 34H52.584ZM1784.48 1214.19H1830.58V1167.21L1784.48 1214.19ZM1781.69 1217.03H1830.58H1833.42V1214.19V1164.31V1160.26L1830.58 1163.15L1780.5 1214.19L1777.72 1217.03H1781.69ZM14.8385 1214.19V1178.56L49.799 1214.19H14.8385ZM12 1214.19V1175.67V1171.62L14.8385 1174.51L53.7757 1214.19L56.5607 1217.03H52.5841H14.8385H12V1214.19ZM1774.88 73.4706V37.8385H1739.92L1774.88 73.4706ZM1777.72 76.3637V37.8385V35H1774.88H1737.13H1733.16L1735.94 37.8385L1774.88 77.5236L1777.72 80.4167V76.3637ZM1830.73 34H1831.16H1833.57H1834V36.8385V609.161V612H1833.57H1831.16H1830.73V609.161V36.8385V34Z" fill="black" fill-opacity="0.148246"/>
<path d="M14.8385 36.8385V33.9485C13.2424 33.9485 11.9485 35.2424 11.9485 36.8385H14.8385ZM49.799 36.8385L51.8619 38.8625C52.677 38.0318 52.9142 36.7931 52.4637 35.7199C52.0132 34.6467 50.9629 33.9485 49.799 33.9485V36.8385ZM14.8385 72.4706H11.9485C11.9485 73.6445 12.6586 74.7018 13.7453 75.1458C14.832 75.5899 16.0793 75.3325 16.9014 74.4946L14.8385 72.4706ZM12 34V31.11C10.4039 31.11 9.11 32.4039 9.11 34H12ZM12 79.4167H9.11C9.11 80.5906 9.82009 81.6479 10.9068 82.0919C11.9934 82.536 13.2407 82.2786 14.0629 81.4407L12 79.4167ZM14.8385 76.5236L16.9014 78.5476H16.9014L14.8385 76.5236ZM53.7757 36.8385L51.7128 34.8145V34.8145L53.7757 36.8385ZM56.5607 34L58.6236 36.024C59.4387 35.1932 59.6759 33.9545 59.2254 32.8814C58.7749 31.8082 57.7246 31.11 56.5607 31.11V34ZM1830.58 1214.19V1217.08C1832.18 1217.08 1833.47 1215.79 1833.47 1214.19H1830.58ZM1784.48 1214.19L1782.42 1212.17C1781.6 1213 1781.36 1214.24 1781.81 1215.31C1782.27 1216.38 1783.32 1217.08 1784.48 1217.08V1214.19ZM1830.58 1167.21H1833.47C1833.47 1166.03 1832.76 1164.98 1831.67 1164.53C1830.59 1164.09 1829.34 1164.34 1828.52 1165.18L1830.58 1167.21ZM1833.42 1217.03V1219.92C1835.01 1219.92 1836.31 1218.63 1836.31 1217.03H1833.42ZM1833.42 1160.26H1836.31C1836.31 1159.09 1835.6 1158.03 1834.51 1157.59C1833.43 1157.14 1832.18 1157.4 1831.36 1158.24L1833.42 1160.26ZM1830.58 1163.15L1832.64 1165.18L1830.58 1163.15ZM1780.5 1214.19L1782.57 1216.22L1780.5 1214.19ZM1777.72 1217.03L1775.66 1215.01C1774.84 1215.84 1774.6 1217.08 1775.05 1218.15C1775.5 1219.22 1776.55 1219.92 1777.72 1219.92V1217.03ZM14.8385 1178.56L16.9014 1176.54C16.0793 1175.7 14.832 1175.44 13.7453 1175.89C12.6586 1176.33 11.9485 1177.39 11.9485 1178.56H14.8385ZM14.8385 1214.19H11.9485C11.9485 1215.79 13.2424 1217.08 14.8385 1217.08V1214.19ZM49.799 1214.19V1217.08C50.9629 1217.08 52.0132 1216.39 52.4637 1215.31C52.9142 1214.24 52.677 1213 51.8619 1212.17L49.799 1214.19ZM12 1171.62L14.0629 1169.59C13.2407 1168.75 11.9934 1168.5 10.9068 1168.94C9.82009 1169.38 9.11 1170.44 9.11 1171.62H12ZM14.8385 1174.51L16.9014 1172.48H16.9014L14.8385 1174.51ZM53.7757 1214.19L51.7128 1216.22H51.7128L53.7757 1214.19ZM56.5607 1217.03V1219.92C57.7246 1219.92 58.7749 1219.22 59.2254 1218.15C59.6759 1217.08 59.4387 1215.84 58.6236 1215.01L56.5607 1217.03ZM12 1217.03H9.11C9.11 1218.63 10.4039 1219.92 12 1219.92V1217.03ZM1774.88 37.8385H1777.77C1777.77 36.2424 1776.48 34.9485 1774.88 34.9485V37.8385ZM1774.88 73.4706L1772.82 75.4946C1773.64 76.3325 1774.89 76.5899 1775.97 76.1458C1777.06 75.7018 1777.77 74.6445 1777.77 73.4706H1774.88ZM1739.92 37.8385V34.9485C1738.75 34.9485 1737.7 35.6467 1737.25 36.7199C1736.8 37.7931 1737.04 39.0318 1737.86 39.8626L1739.92 37.8385ZM1777.72 35H1780.61C1780.61 33.4039 1779.31 32.11 1777.72 32.11V35ZM1733.16 35V32.11C1731.99 32.11 1730.94 32.8082 1730.49 33.8814C1730.04 34.9546 1730.28 36.1933 1731.09 37.024L1733.16 35ZM1735.94 37.8385L1738.01 35.8145V35.8145L1735.94 37.8385ZM1774.88 77.5236L1776.94 75.4996V75.4996L1774.88 77.5236ZM1777.72 80.4167L1775.66 82.4407C1776.48 83.2786 1777.72 83.536 1778.81 83.0919C1779.9 82.6479 1780.61 81.5906 1780.61 80.4167H1777.72ZM1830.73 34V31.11C1829.13 31.11 1827.84 32.4039 1827.84 34H1830.73ZM1834 34H1836.89C1836.89 32.4039 1835.6 31.11 1834 31.11V34ZM1834 612V614.89C1835.6 614.89 1836.89 613.596 1836.89 612H1834ZM1830.73 612H1827.84C1827.84 613.596 1829.13 614.89 1830.73 614.89V612ZM14.8385 39.7285H49.799V33.9485H14.8385V39.7285ZM17.7285 72.4706V36.8385H11.9485V72.4706H17.7285ZM47.7361 34.8145L12.7757 70.4466L16.9014 74.4946L51.8619 38.8625L47.7361 34.8145ZM14.8385 36.89H52.584V31.11H14.8385V36.89ZM12 36.89H14.8385V31.11H12V36.89ZM14.89 36.8385V34H9.11V36.8385H14.89ZM14.89 75.3637V36.8385H9.11V75.3637H14.89ZM14.89 79.4167V75.3637H9.11V79.4167H14.89ZM12.7757 74.4996L9.93711 77.3927L14.0629 81.4407L16.9014 78.5476L12.7757 74.4996ZM51.7128 34.8145L12.7757 74.4996L16.9014 78.5476L55.8385 38.8625L51.7128 34.8145ZM54.4978 31.976L51.7128 34.8145L55.8385 38.8626L58.6236 36.024L54.4978 31.976ZM52.584 36.89H56.5607V31.11H52.584V36.89ZM1830.58 1211.3H1784.48V1217.08H1830.58V1211.3ZM1827.69 1167.21V1214.19H1833.47V1167.21H1827.69ZM1786.54 1216.22L1832.64 1169.23L1828.52 1165.18L1782.42 1212.17L1786.54 1216.22ZM1830.58 1214.14H1781.69V1219.92H1830.58V1214.14ZM1833.42 1214.14H1830.58V1219.92H1833.42V1214.14ZM1830.53 1214.19V1217.03H1836.31V1214.19H1830.53ZM1830.53 1164.31V1214.19H1836.31V1164.31H1830.53ZM1830.53 1160.26V1164.31H1836.31V1160.26H1830.53ZM1832.64 1165.18L1835.48 1162.28L1831.36 1158.24L1828.52 1161.13L1832.64 1165.18ZM1782.57 1216.22L1832.64 1165.18L1828.52 1161.13L1778.44 1212.17L1782.57 1216.22ZM1779.78 1219.06L1782.57 1216.22L1778.44 1212.17L1775.66 1215.01L1779.78 1219.06ZM1781.69 1214.14H1777.72V1219.92H1781.69V1214.14ZM11.9485 1178.56V1214.19H17.7285V1178.56H11.9485ZM51.8619 1212.17L16.9014 1176.54L12.7757 1180.59L47.7361 1216.22L51.8619 1212.17ZM14.8385 1217.08H49.799V1211.3H14.8385V1217.08ZM9.11 1175.67V1214.19H14.89V1175.67H9.11ZM9.11 1171.62V1175.67H14.89V1171.62H9.11ZM16.9014 1172.48L14.0629 1169.59L9.93712 1173.64L12.7757 1176.53L16.9014 1172.48ZM55.8386 1212.17L16.9014 1172.48L12.7757 1176.53L51.7128 1216.22L55.8386 1212.17ZM58.6236 1215.01L55.8385 1212.17L51.7128 1216.22L54.4978 1219.06L58.6236 1215.01ZM52.5841 1219.92H56.5607V1214.14H52.5841V1219.92ZM14.8385 1219.92H52.5841V1214.14H14.8385V1219.92ZM12 1219.92H14.8385V1214.14H12V1219.92ZM9.11 1214.19V1217.03H14.89V1214.19H9.11ZM1771.99 37.8385V73.4706H1777.77V37.8385H1771.99ZM1739.92 40.7285H1774.88V34.9485H1739.92V40.7285ZM1776.94 71.4466L1741.98 35.8145L1737.86 39.8626L1772.82 75.4946L1776.94 71.4466ZM1774.83 37.8385V76.3637H1780.61V37.8385H1774.83ZM1774.83 35V37.8385H1780.61V35H1774.83ZM1774.88 37.89H1777.72V32.11H1774.88V37.89ZM1737.13 37.89H1774.88V32.11H1737.13V37.89ZM1733.16 37.89H1737.13V32.11H1733.16V37.89ZM1738.01 35.8145L1735.22 32.976L1731.09 37.024L1733.88 39.8626L1738.01 35.8145ZM1776.94 75.4996L1738.01 35.8145L1733.88 39.8626L1772.82 79.5476L1776.94 75.4996ZM1779.78 78.3927L1776.94 75.4996L1772.82 79.5476L1775.66 82.4407L1779.78 78.3927ZM1774.83 76.3637V80.4167H1780.61V76.3637H1774.83ZM1831.16 31.11H1830.73V36.89H1831.16V31.11ZM1833.57 31.11H1831.16V36.89H1833.57V31.11ZM1834 31.11H1833.57V36.89H1834V31.11ZM1836.89 36.8385V34H1831.11V36.8385H1836.89ZM1836.89 609.161V36.8385H1831.11V609.161H1836.89ZM1836.89 612V609.161H1831.11V612H1836.89ZM1833.57 614.89H1834V609.11H1833.57V614.89ZM1831.16 614.89H1833.57V609.11H1831.16V614.89ZM1830.73 614.89H1831.16V609.11H1830.73V614.89ZM1827.84 609.161V612H1833.62V609.161H1827.84ZM1827.84 36.8385V609.161H1833.62V36.8385H1827.84ZM1827.84 34V36.8385H1833.62V34H1827.84Z" fill="#00709B" mask="url(#path-2-inside-1)"/>
<path d="M14.8385 36.8385V33.9485C13.2424 33.9485 11.9485 35.2424 11.9485 36.8385H14.8385ZM49.799 36.8385L51.8619 38.8625C52.677 38.0318 52.9142 36.7931 52.4637 35.7199C52.0132 34.6467 50.9629 33.9485 49.799 33.9485V36.8385ZM14.8385 72.4706H11.9485C11.9485 73.6445 12.6586 74.7018 13.7453 75.1458C14.832 75.5899 16.0793 75.3325 16.9014 74.4946L14.8385 72.4706ZM12 34V31.11C10.4039 31.11 9.11 32.4039 9.11 34H12ZM12 79.4167H9.11C9.11 80.5906 9.82009 81.6479 10.9068 82.0919C11.9934 82.536 13.2407 82.2786 14.0629 81.4407L12 79.4167ZM14.8385 76.5236L16.9014 78.5476H16.9014L14.8385 76.5236ZM53.7757 36.8385L51.7128 34.8145V34.8145L53.7757 36.8385ZM56.5607 34L58.6236 36.024C59.4387 35.1932 59.6759 33.9545 59.2254 32.8814C58.7749 31.8082 57.7246 31.11 56.5607 31.11V34ZM1830.58 1214.19V1217.08C1832.18 1217.08 1833.47 1215.79 1833.47 1214.19H1830.58ZM1784.48 1214.19L1782.42 1212.17C1781.6 1213 1781.36 1214.24 1781.81 1215.31C1782.27 1216.38 1783.32 1217.08 1784.48 1217.08V1214.19ZM1830.58 1167.21H1833.47C1833.47 1166.03 1832.76 1164.98 1831.67 1164.53C1830.59 1164.09 1829.34 1164.34 1828.52 1165.18L1830.58 1167.21ZM1833.42 1217.03V1219.92C1835.01 1219.92 1836.31 1218.63 1836.31 1217.03H1833.42ZM1833.42 1160.26H1836.31C1836.31 1159.09 1835.6 1158.03 1834.51 1157.59C1833.43 1157.14 1832.18 1157.4 1831.36 1158.24L1833.42 1160.26ZM1830.58 1163.15L1832.64 1165.18L1830.58 1163.15ZM1780.5 1214.19L1782.57 1216.22L1780.5 1214.19ZM1777.72 1217.03L1775.66 1215.01C1774.84 1215.84 1774.6 1217.08 1775.05 1218.15C1775.5 1219.22 1776.55 1219.92 1777.72 1219.92V1217.03ZM14.8385 1178.56L16.9014 1176.54C16.0793 1175.7 14.832 1175.44 13.7453 1175.89C12.6586 1176.33 11.9485 1177.39 11.9485 1178.56H14.8385ZM14.8385 1214.19H11.9485C11.9485 1215.79 13.2424 1217.08 14.8385 1217.08V1214.19ZM49.799 1214.19V1217.08C50.9629 1217.08 52.0132 1216.39 52.4637 1215.31C52.9142 1214.24 52.677 1213 51.8619 1212.17L49.799 1214.19ZM12 1171.62L14.0629 1169.59C13.2407 1168.75 11.9934 1168.5 10.9068 1168.94C9.82009 1169.38 9.11 1170.44 9.11 1171.62H12ZM14.8385 1174.51L16.9014 1172.48H16.9014L14.8385 1174.51ZM53.7757 1214.19L51.7128 1216.22H51.7128L53.7757 1214.19ZM56.5607 1217.03V1219.92C57.7246 1219.92 58.7749 1219.22 59.2254 1218.15C59.6759 1217.08 59.4387 1215.84 58.6236 1215.01L56.5607 1217.03ZM12 1217.03H9.11C9.11 1218.63 10.4039 1219.92 12 1219.92V1217.03ZM1774.88 37.8385H1777.77C1777.77 36.2424 1776.48 34.9485 1774.88 34.9485V37.8385ZM1774.88 73.4706L1772.82 75.4946C1773.64 76.3325 1774.89 76.5899 1775.97 76.1458C1777.06 75.7018 1777.77 74.6445 1777.77 73.4706H1774.88ZM1739.92 37.8385V34.9485C1738.75 34.9485 1737.7 35.6467 1737.25 36.7199C1736.8 37.7931 1737.04 39.0318 1737.86 39.8626L1739.92 37.8385ZM1777.72 35H1780.61C1780.61 33.4039 1779.31 32.11 1777.72 32.11V35ZM1733.16 35V32.11C1731.99 32.11 1730.94 32.8082 1730.49 33.8814C1730.04 34.9546 1730.28 36.1933 1731.09 37.024L1733.16 35ZM1735.94 37.8385L1738.01 35.8145V35.8145L1735.94 37.8385ZM1774.88 77.5236L1776.94 75.4996V75.4996L1774.88 77.5236ZM1777.72 80.4167L1775.66 82.4407C1776.48 83.2786 1777.72 83.536 1778.81 83.0919C1779.9 82.6479 1780.61 81.5906 1780.61 80.4167H1777.72ZM1830.73 34V31.11C1829.13 31.11 1827.84 32.4039 1827.84 34H1830.73ZM1834 34H1836.89C1836.89 32.4039 1835.6 31.11 1834 31.11V34ZM1834 612V614.89C1835.6 614.89 1836.89 613.596 1836.89 612H1834ZM1830.73 612H1827.84C1827.84 613.596 1829.13 614.89 1830.73 614.89V612ZM14.8385 39.7285H49.799V33.9485H14.8385V39.7285ZM17.7285 72.4706V36.8385H11.9485V72.4706H17.7285ZM47.7361 34.8145L12.7757 70.4466L16.9014 74.4946L51.8619 38.8625L47.7361 34.8145ZM14.8385 36.89H52.584V31.11H14.8385V36.89ZM12 36.89H14.8385V31.11H12V36.89ZM14.89 36.8385V34H9.11V36.8385H14.89ZM14.89 75.3637V36.8385H9.11V75.3637H14.89ZM14.89 79.4167V75.3637H9.11V79.4167H14.89ZM12.7757 74.4996L9.93711 77.3927L14.0629 81.4407L16.9014 78.5476L12.7757 74.4996ZM51.7128 34.8145L12.7757 74.4996L16.9014 78.5476L55.8385 38.8625L51.7128 34.8145ZM54.4978 31.976L51.7128 34.8145L55.8385 38.8626L58.6236 36.024L54.4978 31.976ZM52.584 36.89H56.5607V31.11H52.584V36.89ZM1830.58 1211.3H1784.48V1217.08H1830.58V1211.3ZM1827.69 1167.21V1214.19H1833.47V1167.21H1827.69ZM1786.54 1216.22L1832.64 1169.23L1828.52 1165.18L1782.42 1212.17L1786.54 1216.22ZM1830.58 1214.14H1781.69V1219.92H1830.58V1214.14ZM1833.42 1214.14H1830.58V1219.92H1833.42V1214.14ZM1830.53 1214.19V1217.03H1836.31V1214.19H1830.53ZM1830.53 1164.31V1214.19H1836.31V1164.31H1830.53ZM1830.53 1160.26V1164.31H1836.31V1160.26H1830.53ZM1832.64 1165.18L1835.48 1162.28L1831.36 1158.24L1828.52 1161.13L1832.64 1165.18ZM1782.57 1216.22L1832.64 1165.18L1828.52 1161.13L1778.44 1212.17L1782.57 1216.22ZM1779.78 1219.06L1782.57 1216.22L1778.44 1212.17L1775.66 1215.01L1779.78 1219.06ZM1781.69 1214.14H1777.72V1219.92H1781.69V1214.14ZM11.9485 1178.56V1214.19H17.7285V1178.56H11.9485ZM51.8619 1212.17L16.9014 1176.54L12.7757 1180.59L47.7361 1216.22L51.8619 1212.17ZM14.8385 1217.08H49.799V1211.3H14.8385V1217.08ZM9.11 1175.67V1214.19H14.89V1175.67H9.11ZM9.11 1171.62V1175.67H14.89V1171.62H9.11ZM16.9014 1172.48L14.0629 1169.59L9.93712 1173.64L12.7757 1176.53L16.9014 1172.48ZM55.8386 1212.17L16.9014 1172.48L12.7757 1176.53L51.7128 1216.22L55.8386 1212.17ZM58.6236 1215.01L55.8385 1212.17L51.7128 1216.22L54.4978 1219.06L58.6236 1215.01ZM52.5841 1219.92H56.5607V1214.14H52.5841V1219.92ZM14.8385 1219.92H52.5841V1214.14H14.8385V1219.92ZM12 1219.92H14.8385V1214.14H12V1219.92ZM9.11 1214.19V1217.03H14.89V1214.19H9.11ZM1771.99 37.8385V73.4706H1777.77V37.8385H1771.99ZM1739.92 40.7285H1774.88V34.9485H1739.92V40.7285ZM1776.94 71.4466L1741.98 35.8145L1737.86 39.8626L1772.82 75.4946L1776.94 71.4466ZM1774.83 37.8385V76.3637H1780.61V37.8385H1774.83ZM1774.83 35V37.8385H1780.61V35H1774.83ZM1774.88 37.89H1777.72V32.11H1774.88V37.89ZM1737.13 37.89H1774.88V32.11H1737.13V37.89ZM1733.16 37.89H1737.13V32.11H1733.16V37.89ZM1738.01 35.8145L1735.22 32.976L1731.09 37.024L1733.88 39.8626L1738.01 35.8145ZM1776.94 75.4996L1738.01 35.8145L1733.88 39.8626L1772.82 79.5476L1776.94 75.4996ZM1779.78 78.3927L1776.94 75.4996L1772.82 79.5476L1775.66 82.4407L1779.78 78.3927ZM1774.83 76.3637V80.4167H1780.61V76.3637H1774.83ZM1831.16 31.11H1830.73V36.89H1831.16V31.11ZM1833.57 31.11H1831.16V36.89H1833.57V31.11ZM1834 31.11H1833.57V36.89H1834V31.11ZM1836.89 36.8385V34H1831.11V36.8385H1836.89ZM1836.89 609.161V36.8385H1831.11V609.161H1836.89ZM1836.89 612V609.161H1831.11V612H1836.89ZM1833.57 614.89H1834V609.11H1833.57V614.89ZM1831.16 614.89H1833.57V609.11H1831.16V614.89ZM1830.73 614.89H1831.16V609.11H1830.73V614.89ZM1827.84 609.161V612H1833.62V609.161H1827.84ZM1827.84 36.8385V609.161H1833.62V36.8385H1827.84ZM1827.84 34V36.8385H1833.62V34H1827.84Z" fill="url(#paint0_linear)" mask="url(#path-2-inside-1)"/>
</g>
<g filter="url(#filter2_d)">
<mask id="path-4-inside-2" fill="white">
<path fill-rule="evenodd" clip-rule="evenodd" d="M1777.63 549.834C1777.15 549.31 1776.88 548.625 1776.88 547.914V72.7738L1722.77 13.8385H70.9482L16.8385 72.7737V551.864V1132.26L70.9482 1191.19H1773.44L1832.58 1127.69V609.688L1777.63 549.834ZM1835.42 608.583V1128.81L1774.68 1194.03H69.7009L14 1133.36V551.864V71.6683L69.7009 11H1724.02L1779.72 71.6683V547.914L1835.42 608.583Z"/>
</mask>
<path d="M1777.63 549.834L1775.54 551.754L1775.54 551.754L1777.63 549.834ZM1776.88 72.7738H1779.72C1779.72 72.0629 1779.45 71.3778 1778.97 70.8541L1776.88 72.7738ZM1722.77 13.8385L1724.86 11.9188C1724.32 11.3333 1723.56 11 1722.77 11V13.8385ZM70.9482 13.8385V11C70.1533 11 69.3949 11.3333 68.8573 11.9188L70.9482 13.8385ZM16.8385 72.7737L14.7476 70.854C14.2668 71.3777 14 72.0628 14 72.7737H16.8385ZM16.8385 1132.26H14C14 1132.97 14.2668 1133.65 14.7476 1134.18L16.8385 1132.26ZM70.9482 1191.19L68.8573 1193.11C69.3949 1193.7 70.1533 1194.03 70.9482 1194.03V1191.19ZM1773.44 1191.19V1194.03C1774.23 1194.03 1774.98 1193.7 1775.52 1193.13L1773.44 1191.19ZM1832.58 1127.69L1834.66 1129.63C1835.15 1129.1 1835.42 1128.41 1835.42 1127.69H1832.58ZM1832.58 609.688H1835.42C1835.42 608.977 1835.15 608.292 1834.67 607.769L1832.58 609.688ZM1835.42 608.583H1838.26C1838.26 607.872 1837.99 607.187 1837.51 606.663L1835.42 608.583ZM1835.42 1128.81L1837.5 1130.74C1837.99 1130.22 1838.26 1129.53 1838.26 1128.81H1835.42ZM1774.68 1194.03V1196.87C1775.47 1196.87 1776.22 1196.54 1776.76 1195.97L1774.68 1194.03ZM69.7009 1194.03L67.6099 1195.95C68.1475 1196.54 68.906 1196.87 69.7009 1196.87V1194.03ZM14 1133.36H11.1615C11.1615 1134.07 11.4282 1134.76 11.9091 1135.28L14 1133.36ZM14 71.6683L11.9091 69.7486C11.4282 70.2723 11.1615 70.9574 11.1615 71.6683H14ZM69.7009 11V8.16146C68.906 8.16146 68.1475 8.49475 67.6099 9.08027L69.7009 11ZM1724.02 11L1726.11 9.08028C1725.57 8.49475 1724.81 8.16146 1724.02 8.16146V11ZM1779.72 71.6683H1782.56C1782.56 70.9574 1782.29 70.2723 1781.81 69.7486L1779.72 71.6683ZM1779.72 547.914H1776.88C1776.88 548.625 1777.15 549.311 1777.63 549.834L1779.72 547.914ZM1774.04 547.914C1774.04 549.336 1774.57 550.706 1775.54 551.754L1779.72 547.915L1779.72 547.914H1774.04ZM1774.04 72.7738V547.914H1779.72V72.7738H1774.04ZM1720.68 15.7583L1774.79 74.6935L1778.97 70.8541L1724.86 11.9188L1720.68 15.7583ZM70.9482 16.6771H1722.77V11H70.9482V16.6771ZM18.9295 74.6935L73.0391 15.7583L68.8573 11.9188L14.7476 70.854L18.9295 74.6935ZM19.6771 551.864V72.7737H14V551.864H19.6771ZM19.6771 1132.26V551.864H14V1132.26H19.6771ZM73.0391 1189.27L18.9295 1130.34L14.7476 1134.18L68.8573 1193.11L73.0391 1189.27ZM1773.44 1188.35H70.9482V1194.03H1773.44V1188.35ZM1830.5 1125.76L1771.37 1189.26L1775.52 1193.13L1834.66 1129.63L1830.5 1125.76ZM1829.74 609.688V1127.69H1835.42V609.688H1829.74ZM1775.54 551.754L1830.49 611.608L1834.67 607.769L1779.72 547.915L1775.54 551.754ZM1832.58 608.583V1128.81H1838.26V608.583H1832.58ZM1833.34 1126.88L1772.6 1192.1L1776.76 1195.97L1837.5 1130.74L1833.34 1126.88ZM1774.68 1191.19H69.7009V1196.87H1774.68V1191.19ZM71.7918 1192.11L16.0909 1131.44L11.9091 1135.28L67.6099 1195.95L71.7918 1192.11ZM16.8385 1133.36V551.864H11.1615V1133.36H16.8385ZM16.8385 551.864V71.6683H11.1615V551.864H16.8385ZM16.0909 73.588L71.7918 12.9197L67.6099 9.08027L11.9091 69.7486L16.0909 73.588ZM69.7009 13.8385H1724.02V8.16146H69.7009V13.8385ZM1721.93 12.9197L1777.63 73.588L1781.81 69.7486L1726.11 9.08028L1721.93 12.9197ZM1776.88 71.6683V547.914H1782.56V71.6683H1776.88ZM1777.63 549.834L1833.33 610.503L1837.51 606.663L1781.81 545.995L1777.63 549.834Z" fill="#00709B" mask="url(#path-4-inside-2)"/>
</g>
<defs>
<filter id="filter0_d" x="1763.31" y="597.117" width="73.1966" height="550.902" filterUnits="userSpaceOnUse" color-interpolation-filters="sRGB">
<feFlood flood-opacity="0" result="BackgroundImageFix"/>
<feColorMatrix in="SourceAlpha" type="matrix" values="0 0 0 0 0 0 0 0 0 0 0 0 0 0 0 0 0 0 127 0"/>
<feOffset/>
<feGaussianBlur stdDeviation="5.5"/>
<feColorMatrix type="matrix" values="0 0 0 0 0 0 0 0 0 0.439216 0 0 0 0 0.607843 0 0 0 1 0"/>
<feBlend mode="normal" in2="BackgroundImageFix" result="effect1_dropShadow"/>
<feBlend mode="normal" in="SourceGraphic" in2="effect1_dropShadow" result="shape"/>
</filter>
<filter id="filter1_di" x="0" y="22" width="1846" height="1207.03" filterUnits="userSpaceOnUse" color-interpolation-filters="sRGB">
<feFlood flood-opacity="0" result="BackgroundImageFix"/>
<feColorMatrix in="SourceAlpha" type="matrix" values="0 0 0 0 0 0 0 0 0 0 0 0 0 0 0 0 0 0 127 0"/>
<feOffset/>
<feGaussianBlur stdDeviation="6"/>
<feColorMatrix type="matrix" values="0 0 0 0 0 0 0 0 0 0.439216 0 0 0 0 0.607843 0 0 0 1 0"/>
<feBlend mode="normal" in2="BackgroundImageFix" result="effect1_dropShadow"/>
<feBlend mode="normal" in="SourceGraphic" in2="effect1_dropShadow" result="shape"/>
<feColorMatrix in="SourceAlpha" type="matrix" values="0 0 0 0 0 0 0 0 0 0 0 0 0 0 0 0 0 0 127 0" result="hardAlpha"/>
<feOffset/>
<feGaussianBlur stdDeviation="43.5"/>
<feComposite in2="hardAlpha" operator="arithmetic" k2="-1" k3="1"/>
<feColorMatrix type="matrix" values="0 0 0 0 0 0 0 0 0 0.439216 0 0 0 0 0.607843 0 0 0 0.1 0"/>
<feBlend mode="normal" in2="shape" result="effect2_innerShadow"/>
</filter>
<filter id="filter2_d" x="3" y="0" width="1843.42" height="1205.03" filterUnits="userSpaceOnUse" color-interpolation-filters="sRGB">
<feFlood flood-opacity="0" result="BackgroundImageFix"/>
<feColorMatrix in="SourceAlpha" type="matrix" values="0 0 0 0 0 0 0 0 0 0 0 0 0 0 0 0 0 0 127 0"/>
<feOffset/>
<feGaussianBlur stdDeviation="5.5"/>
<feColorMatrix type="matrix" values="0 0 0 0 0 0 0 0 0 0.439216 0 0 0 0 0.607843 0 0 0 1 0"/>
<feBlend mode="normal" in2="BackgroundImageFix" result="effect1_dropShadow"/>
<feBlend mode="normal" in="SourceGraphic" in2="effect1_dropShadow" result="shape"/>
</filter>
<linearGradient id="paint0_linear" x1="-796.119" y1="684.301" x2="149.658" y2="2240.4" gradientUnits="userSpaceOnUse">
<stop stop-color="#5FE6E9"/>
<stop offset="0.500655" stop-color="#4C8499" stop-opacity="0.01"/>
<stop offset="1" stop-color="#35E0E4"/>
</linearGradient>
</defs>
</svg>
