<?xml version="1.0" standalone="no"?><!DOCTYPE svg PUBLIC "-//W3C//DTD SVG 1.1//EN" "http://www.w3.org/Graphics/SVG/1.1/DTD/svg11.dtd"><svg t="1610603211255" class="icon" viewBox="0 0 1024 1024" version="1.1" xmlns="http://www.w3.org/2000/svg" p-id="7499" width="64" height="64" xmlns:xlink="http://www.w3.org/1999/xlink"><defs><style type="text/css"></style></defs><path d="M512 651.623176c103.720074 0 187.72864-87.507146 187.72864-195.493779V195.493779C699.72864 87.507146 615.720074 0 512 0S324.27136 87.507146 324.27136 195.493779v260.644151c0 107.978101 84.008566 195.485246 187.72864 195.485246z m375.45728-223.320284a9.301101 9.301101 0 0 0-9.104839-9.403498h-68.23936a9.301101 9.301101 0 0 0-9.10484 9.403498c0 165.184137-129.396232 299.000525-289.008241 299.000525S222.991759 593.478496 222.991759 428.302892a9.301101 9.301101 0 0 0-9.10484-9.403498h-68.23936A9.301101 9.301101 0 0 0 136.54272 428.302892c0 198.599835 144.081731 362.486938 329.933085 385.662892v120.547387h-165.286535c-15.59001 0-28.11663 16.810246-28.11663 37.707857v42.349874c0 5.119872 3.191387 9.403498 7.039824 9.403499h463.775072c3.848437 0 7.039824-4.232428 7.039824-9.403499v-42.349874c0-20.906144-12.52662-37.707857-28.108097-37.707857h-169.894419V814.52897C741.028941 793.349766 887.45728 628.532553 887.45728 428.302892z" p-id="7500" fill="#FFFFFF"></path></svg>