<?xml version="1.0" encoding="UTF-8"?>
<svg width="16px" height="16px" viewBox="0 0 16 16" version="1.1" xmlns="http://www.w3.org/2000/svg" xmlns:xlink="http://www.w3.org/1999/xlink">
    <!-- Generator: Sketch 52.2 (67145) - http://www.bohemiancoding.com/sketch -->
    <title>矩形</title>
    <desc>Created with Sketch.</desc>
    <g id="Page-1" stroke="none" stroke-width="1" fill="none" fill-rule="evenodd">
        <g id="登陆1" transform="translate(-392.000000, -258.000000)">
            <g id="分组-3" transform="translate(112.000000, 106.000000)">
                <g id="分组" transform="translate(0.000000, 88.000000)">
                    <g id="Group-4-Copy-2" transform="translate(216.000000, 60.000000)">
                        <g id="分组-4" transform="translate(64.000000, 0.000000)">
                            <g id="学生" transform="translate(0.000000, 4.000000)">
                                <g id="分组">
                                    <rect id="矩形" fill="currentColor" opacity="0" x="0" y="0" width="16" height="16"></rect>
                                    <path d="M3.5,8.52865257 L3.5,12.191 C3.569,13.068 5.655,13.8 8.054,13.8 C9.941,13.8 11.684,13.357 12.293,12.723 C12.439,12.572 12.506,12.421 12.499,12.264 L12.499,8.5378848 L8.907,9.918 C8.698,10.014 8.411,10.065 8.056,10.065 C7.732,10.065 7.45,10.02 7.167,9.924 L3.5,8.52865257 Z M3.2294714,7.35564989 L7.505,8.984 C7.669,9.039 7.838,9.066 8.055,9.066 C8.312,9.066 8.45,9.028 8.52,8.996 L12.819,7.343 L12.8278618,7.36605553 C12.8812501,7.34660851 12.9388862,7.336 12.999,7.336 C13.2751424,7.336 13.499,7.55985763 13.499,7.836 L13.499,12.191 C13.517,12.654 13.349,13.066 13.015,13.415 C12.034,14.436 9.81,14.8 8.054,14.8 C5.479,14.8 2.643,14.013 2.502,12.284 L2.5,7.8 C2.5,7.52385763 2.72385763,7.3 3,7.3 C3.08271936,7.3 3.16074709,7.32008723 3.2294714,7.35564989 Z M14.9926437,5.71406792 C14.9974796,5.74198662 15,5.77069898 15,5.8 L15,8.3 C15,8.57614237 14.7761424,8.8 14.5,8.8 C14.2238576,8.8 14,8.57614237 14,8.3 L14,6.09557666 L8.907,8.053 C8.699,8.148 8.412,8.2 8.056,8.2 C7.731,8.2 7.449,8.156 7.167,8.06 L0.77,5.623 C0.099,5.349 0,4.927 0,4.7 C0,4.472 0.099,4.05 0.759,3.781 L7.093,1.347 C7.581,1.158 8.417,1.157 8.908,1.347 L15.231,3.777 C15.901,4.049 16,4.472 16,4.7 C16,4.928 15.901,5.349 15.24,5.619 L14.9926437,5.71406792 Z M1.155,4.7 L7.506,7.118 C7.669,7.174 7.838,7.2 8.056,7.2 C8.314,7.2 8.452,7.162 8.521,7.131 L14.844,4.7 L8.548,2.281 C8.286,2.179 7.712,2.18 7.453,2.281 L1.155,4.7 Z M14,9.8 C14,9.52385763 14.2238576,9.3 14.5,9.3 C14.7761424,9.3 15,9.52385763 15,9.8 C15,10.0761424 14.7761424,10.3 14.5,10.3 C14.2238576,10.3 14,10.0761424 14,9.8 Z" id="合并形状" fill="currentColor"></path>
                                </g>
                            </g>
                        </g>
                    </g>
                </g>
            </g>
        </g>
        <g id="页面">
            <g></g>
        </g>
    </g>
</svg>