<?xml version="1.0" encoding="UTF-8"?>
<svg width="16px" height="16px" viewBox="0 0 16 16" version="1.1" xmlns="http://www.w3.org/2000/svg" xmlns:xlink="http://www.w3.org/1999/xlink">
    <!-- Generator: Sketch 52.2 (67145) - http://www.bohemiancoding.com/sketch -->
    <title>矩形</title>
    <desc>Created with Sketch.</desc>
    <g id="Page-1" stroke="none" stroke-width="1" fill="none" fill-rule="evenodd">
        <g id="登陆1" transform="translate(-576.000000, -258.000000)" opacity="0.65">
            <g id="分组-3" transform="translate(112.000000, 106.000000)">
                <g id="分组" transform="translate(0.000000, 88.000000)">
                    <g id="Group-4-Copy-2" transform="translate(216.000000, 60.000000)">
                        <g id="分组-5" transform="translate(248.000000, 0.000000)">
                            <g id="学校_教师" transform="translate(0.000000, 4.000000)">
                                <g id="分组">
                                    <rect id="矩形" fill="currentColor" opacity="0" x="0" y="0" width="16" height="16"></rect>
                                    <path d="M10.6994192,2.73421608 C10.6994192,1.23040505 9.46171733,0 7.94900005,0 C6.43637653,0 5.19858086,1.23042067 5.19858086,2.73421608 C5.19858086,4.23799586 6.43626716,5.46830716 7.94910942,5.46830716 C9.46173294,5.46830716 10.6994192,4.23799586 10.6994192,2.73420045 L10.6994192,2.73421608 Z M7.94900005,4.45566753 C6.99657911,4.45566753 6.21731423,3.68093391 6.21731423,2.73418483 C6.21731423,1.78735762 6.99657909,1.01262402 7.94900005,1.01262402 C8.90153036,1.01262402 9.68079523,1.78735764 9.68079523,2.73418483 C9.68079523,3.68102766 8.90153038,4.45566752 7.94900005,4.45566753 Z M15.5358364,10.4545992 L14.0425722,10.4545992 L11.7817307,6.29882197 C11.7100433,6.01355662 11.3691061,5.79944745 11.0101689,5.79944747 L5.09151847,5.79944747 C4.73256569,5.79944747 4.39172228,6.01355664 4.31994109,6.29893134 L2.05920892,10.454521 L0.464069859,10.454521 C0.266710672,10.454521 0.105226453,10.716302 0.105226453,10.9126143 C0.105226453,11.1088329 0.266710672,11.4718794 0.464179234,11.4718794 L1.54060006,11.4718794 L1.54060006,15.6430316 C1.54060006,15.8392502 1.70206866,15.999875 1.89955283,15.999875 L14.1004784,15.999875 C14.2978532,15.999875 14.4593218,15.8392502 14.4593218,15.6430316 L14.4593218,11.4718794 L15.535852,11.4718794 C15.7332112,11.4718794 15.8946954,11.1088329 15.8946954,10.9126143 C15.8946954,10.7164114 15.7332112,10.4547242 15.5357426,10.4547242 L15.5358364,10.4545992 Z M5.39131505,6.75102466 C5.40920566,6.73313405 5.44511188,6.71535281 5.49900244,6.71535281 L10.6027943,6.71535281 C10.6385755,6.71535281 10.6745755,6.73324342 10.7104661,6.75102466 C10.7104661,6.76893089 10.7283723,6.76893089 10.7283723,6.78671212 L12.8456203,10.4544117 L11.4281529,10.4544117 L10.0106855,7.98702345 C9.9568887,7.79071114 9.45384233,7.70155498 9.2744675,7.75502367 C9.09499892,7.80861738 8.88553038,8.02260153 8.93931158,8.20092948 L10.2671072,10.454396 L5.83468961,10.454396 L7.16246956,8.20102323 C7.21626639,8.00492967 7.02468845,7.80871113 6.82731364,7.75513305 C6.64784506,7.70166434 6.14489244,7.79091427 6.09111123,7.98702345 L4.67362825,10.454521 L3.25616087,10.454521 L5.37344006,6.78683712 C5.37344006,6.76894652 5.39133067,6.76894652 5.39133067,6.75114966 L5.39131505,6.75102466 Z M2.5491147,14.9881885 L2.5491147,11.5018794 L13.4501509,11.5018794 L13.4501509,14.9881885 L2.54900533,14.9881885 L2.5491147,14.9881885 Z" id="形状" fill="currentColor" ></path>
                                </g>
                            </g>
                        </g>
                    </g>
                </g>
            </g>
        </g>
        <g id="页面">
            <g></g>
        </g>
    </g>
</svg>