<svg width="3586" height="1108" viewBox="0 0 3586 1108" fill="none" xmlns="http://www.w3.org/2000/svg">
<g filter="url(#filter0_di)">
<mask id="path-1-inside-1" fill="white">
<path fill-rule="evenodd" clip-rule="evenodd" d="M3585.68 608.62V606.019L3536.77 554V551.399V52.0188L3487.86 0H48.9091L0 52.0188V1055.98L48.9091 1108H3583.08H3585.68V1105.4V608.62ZM3583.08 1105.4V607.049L3534.88 555.782C3534.52 555.406 3534.3 554.951 3534.21 554.479L3534.21 554.46C3534.18 554.308 3534.17 554.154 3534.17 554V553.98V53.0495L3486.74 2.60094H50.0337L2.60094 53.0495V1054.95L50.0337 1105.4H3583.08ZM33.1118 2.60094H2.60094V35.0517L33.1118 2.60094ZM35.5573 0H2.60094H0V2.60094V37.818V41.615L2.60094 38.8487L36.6818 2.60094L39.1273 0H35.5573ZM2.60094 1105.4V1072.95L33.1118 1105.4H2.60094ZM0 1105.4V1070.18V1066.39L2.60094 1069.15L36.6818 1105.4L39.1273 1108H35.5573H2.60094H0V1105.4ZM3534.17 35.0517V2.60094H3503.66L3534.17 35.0517ZM3536.77 37.818V2.60094V0H3534.17H3501.21H3497.64L3500.09 2.60094L3534.17 38.8487L3536.77 41.615V37.818ZM3585.68 0H3583.24V2.60094V551.399V554H3585.68V551.399V2.60094V0Z"/>
</mask>
<path fill-rule="evenodd" clip-rule="evenodd" d="M3585.68 608.62V606.019L3536.77 554V551.399V52.0188L3487.86 0H48.9091L0 52.0188V1055.98L48.9091 1108H3583.08H3585.68V1105.4V608.62ZM3583.08 1105.4V607.049L3534.88 555.782C3534.52 555.406 3534.3 554.951 3534.21 554.479L3534.21 554.46C3534.18 554.308 3534.17 554.154 3534.17 554V553.98V53.0495L3486.74 2.60094H50.0337L2.60094 53.0495V1054.95L50.0337 1105.4H3583.08ZM33.1118 2.60094H2.60094V35.0517L33.1118 2.60094ZM35.5573 0H2.60094H0V2.60094V37.818V41.615L2.60094 38.8487L36.6818 2.60094L39.1273 0H35.5573ZM2.60094 1105.4V1072.95L33.1118 1105.4H2.60094ZM0 1105.4V1070.18V1066.39L2.60094 1069.15L36.6818 1105.4L39.1273 1108H35.5573H2.60094H0V1105.4ZM3534.17 35.0517V2.60094H3503.66L3534.17 35.0517ZM3536.77 37.818V2.60094V0H3534.17H3501.21H3497.64L3500.09 2.60094L3534.17 38.8487L3536.77 41.615V37.818ZM3585.68 0H3583.24V2.60094V551.399V554H3585.68V551.399V2.60094V0Z" fill="black" fill-opacity="0.148246"/>
<path d="M3532.73 554.724L3532.74 554.743L3535.69 554.215L3535.69 554.195L3532.73 554.724ZM3585.68 606.019H3588.68C3588.68 605.255 3588.39 604.52 3587.87 603.964L3585.68 606.019ZM3536.77 554H3533.77C3533.77 554.764 3534.06 555.499 3534.59 556.055L3536.77 554ZM3536.77 52.0188H3539.77C3539.77 51.2551 3539.48 50.5202 3538.96 49.9638L3536.77 52.0188ZM3487.86 0L3490.05 -2.05498C3489.48 -2.65802 3488.69 -3 3487.86 -3V0ZM48.9091 0V-3C48.0814 -3 47.2905 -2.65802 46.7235 -2.05499L48.9091 0ZM0 52.0188L-2.18564 49.9638C-2.70876 50.5202 -3 51.2551 -3 52.0188H0ZM0 1055.98H-3C-3 1056.74 -2.70876 1057.48 -2.18564 1058.04L0 1055.98ZM48.9091 1108L46.7235 1110.05C47.2905 1110.66 48.0814 1111 48.9091 1111V1108ZM3585.68 1108V1111C3587.34 1111 3588.68 1109.66 3588.68 1108H3585.68ZM3583.08 607.049H3586.08C3586.08 606.286 3585.79 605.551 3585.27 604.995L3583.08 607.049ZM3583.08 1105.4V1108.4C3584.74 1108.4 3586.08 1107.06 3586.08 1105.4H3583.08ZM3534.88 555.782L3537.06 553.727V553.726L3534.88 555.782ZM3534.21 554.479L3531.26 555.007C3531.26 555.014 3531.26 555.021 3531.27 555.029L3534.21 554.479ZM3534.21 554.46L3531.26 554.986L3531.26 554.988L3534.21 554.46ZM3534.17 53.0495H3537.17C3537.17 52.2858 3536.88 51.5509 3536.36 50.9945L3534.17 53.0495ZM3486.74 2.60094L3488.92 0.54595C3488.36 -0.0570804 3487.57 -0.399061 3486.74 -0.399061V2.60094ZM50.0337 2.60094V-0.399061C49.206 -0.399061 48.415 -0.0570792 47.848 0.545954L50.0337 2.60094ZM2.60094 53.0495L0.415296 50.9945C-0.10782 51.5509 -0.399061 52.2858 -0.399061 53.0495H2.60094ZM2.60094 1054.95H-0.399061C-0.399061 1055.71 -0.107819 1056.45 0.415297 1057.01L2.60094 1054.95ZM50.0337 1105.4L47.848 1107.45C48.415 1108.06 49.2059 1108.4 50.0337 1108.4V1105.4ZM2.60094 2.60094V-0.399061C0.944085 -0.399061 -0.399061 0.944085 -0.399061 2.60094H2.60094ZM33.1118 2.60094L35.2974 4.65592C36.1171 3.78415 36.3403 2.50866 35.8654 1.41034C35.3905 0.312021 34.3084 -0.399061 33.1118 -0.399061V2.60094ZM2.60094 35.0517H-0.399061C-0.399061 36.2819 0.352014 37.3875 1.49571 37.8407C2.6394 38.2939 3.94388 38.003 4.78658 37.1067L2.60094 35.0517ZM0 0V-3C-1.65685 -3 -3 -1.65685 -3 0L0 0ZM0 41.615H-3C-3 42.8452 -2.24893 43.9508 -1.10523 44.404C0.0384629 44.8572 1.34294 44.5663 2.18564 43.67L0 41.615ZM2.60094 38.8487L4.78658 40.9037H4.78658L2.60094 38.8487ZM36.6818 2.60094L34.4962 0.545953V0.545954L36.6818 2.60094ZM39.1273 0L41.3129 2.05499C42.1326 1.18321 42.3558 -0.0922756 41.8809 -1.1906C41.406 -2.28892 40.3239 -3 39.1273 -3V0ZM2.60094 1072.95L4.78658 1070.89C3.94388 1070 2.6394 1069.71 1.49571 1070.16C0.352013 1070.61 -0.399061 1071.72 -0.399061 1072.95H2.60094ZM2.60094 1105.4H-0.399061C-0.399061 1107.06 0.944085 1108.4 2.60094 1108.4V1105.4ZM33.1118 1105.4V1108.4C34.3084 1108.4 35.3905 1107.69 35.8654 1106.59C36.3403 1105.49 36.1171 1104.22 35.2974 1103.34L33.1118 1105.4ZM0 1066.39L2.18566 1064.33C1.34297 1063.43 0.038482 1063.14 -1.10522 1063.6C-2.24892 1064.05 -3 1065.15 -3 1066.39H0ZM2.60094 1069.15L0.415278 1071.21H0.415299L2.60094 1069.15ZM36.6818 1105.4L38.8675 1103.34H38.8675L36.6818 1105.4ZM39.1273 1108V1111C40.3239 1111 41.406 1110.29 41.8809 1109.19C42.3558 1108.09 42.1326 1106.82 41.3129 1105.95L39.1273 1108ZM0 1108H-3C-3 1109.66 -1.65685 1111 0 1111L0 1108ZM3534.17 2.60094H3537.17C3537.17 0.944085 3535.83 -0.399061 3534.17 -0.399061V2.60094ZM3534.17 35.0517L3531.99 37.1066C3532.83 38.0029 3534.13 38.2939 3535.28 37.8406C3536.42 37.3874 3537.17 36.2819 3537.17 35.0517H3534.17ZM3503.66 2.60094V-0.399061C3502.46 -0.399061 3501.38 0.31202 3500.91 1.41034C3500.43 2.50866 3500.65 3.78415 3501.47 4.65592L3503.66 2.60094ZM3536.77 0H3539.77C3539.77 -1.65685 3538.43 -3 3536.77 -3V0ZM3497.64 0V-3C3496.45 -3 3495.37 -2.28894 3494.89 -1.19064C3494.42 -0.0923381 3494.64 1.18314 3495.46 2.05492L3497.64 0ZM3500.09 2.60094L3497.9 4.65586L3497.9 4.65592L3500.09 2.60094ZM3534.17 38.8487L3536.36 36.7938L3536.36 36.7937L3534.17 38.8487ZM3536.77 41.615L3534.59 43.67C3535.43 44.5663 3536.73 44.8572 3537.88 44.404C3539.02 43.9508 3539.77 42.8453 3539.77 41.615H3536.77ZM3583.24 0V-3C3581.58 -3 3580.24 -1.65685 3580.24 0L3583.24 0ZM3585.68 0H3588.68C3588.68 -1.65685 3587.34 -3 3585.68 -3V0ZM3583.24 554H3580.24C3580.24 555.657 3581.58 557 3583.24 557V554ZM3585.68 554V557C3587.34 557 3588.68 555.657 3588.68 554H3585.68ZM3582.68 606.019V608.62H3588.68V606.019H3582.68ZM3534.59 556.055L3583.5 608.074L3587.87 603.964L3538.96 551.945L3534.59 556.055ZM3533.77 551.399V554H3539.77V551.399H3533.77ZM3533.77 52.0188V551.399H3539.77V52.0188H3533.77ZM3485.68 2.05498L3534.59 54.0738L3538.96 49.9638L3490.05 -2.05498L3485.68 2.05498ZM48.9091 3H3487.86V-3H48.9091V3ZM2.18564 54.0738L51.0948 2.05499L46.7235 -2.05499L-2.18564 49.9638L2.18564 54.0738ZM3 1055.98V52.0188H-3V1055.98H3ZM51.0948 1105.95L2.18564 1053.93L-2.18564 1058.04L46.7235 1110.05L51.0948 1105.95ZM3583.08 1105H48.9091V1111H3583.08V1105ZM3585.68 1105H3583.08V1111H3585.68V1105ZM3582.68 1105.4V1108H3588.68V1105.4H3582.68ZM3582.68 608.62V1105.4H3588.68V608.62H3582.68ZM3580.08 607.049V1105.4H3586.08V607.049H3580.08ZM3532.69 557.837L3580.89 609.104L3585.27 604.995L3537.06 553.727L3532.69 557.837ZM3531.27 555.029C3531.46 556.048 3531.93 557.03 3532.69 557.837L3537.06 553.726C3537.11 553.782 3537.15 553.855 3537.16 553.929L3531.27 555.029ZM3531.26 554.988L3531.26 555.007L3537.17 553.95L3537.16 553.931L3531.26 554.988ZM3531.17 554C3531.17 554.331 3531.2 554.661 3531.26 554.986L3537.16 553.933C3537.17 553.954 3537.17 553.976 3537.17 554H3531.17ZM3531.17 553.98V554H3537.17V553.98H3531.17ZM3531.17 53.0495V553.98H3537.17V53.0495H3531.17ZM3484.55 4.65593L3531.99 55.1045L3536.36 50.9945L3488.92 0.54595L3484.55 4.65593ZM50.0337 5.60094H3486.74V-0.399061H50.0337V5.60094ZM4.78658 55.1045L52.2193 4.65592L47.848 0.545954L0.415296 50.9945L4.78658 55.1045ZM5.60094 1054.95V53.0495H-0.399061V1054.95H5.60094ZM52.2193 1103.34L4.78658 1052.9L0.415297 1057.01L47.848 1107.45L52.2193 1103.34ZM3583.08 1102.4H50.0337V1108.4H3583.08V1102.4ZM2.60094 5.60094H33.1118V-0.399061H2.60094V5.60094ZM5.60094 35.0517V2.60094H-0.399061V35.0517H5.60094ZM30.9262 0.545954L0.415296 32.9967L4.78658 37.1067L35.2974 4.65592L30.9262 0.545954ZM2.60094 3H35.5573V-3H2.60094V3ZM0 3H2.60094V-3H0V3ZM3 2.60094V0H-3V2.60094H3ZM3 37.818V2.60094H-3V37.818H3ZM3 41.615V37.818H-3V41.615H3ZM0.415296 36.7937L-2.18564 39.56L2.18564 43.67L4.78658 40.9037L0.415296 36.7937ZM34.4962 0.545954L0.415296 36.7937L4.78658 40.9037L38.8675 4.65592L34.4962 0.545954ZM36.9416 -2.05499L34.4962 0.545953L38.8675 4.65593L41.3129 2.05499L36.9416 -2.05499ZM35.5573 3H39.1273V-3H35.5573V3ZM-0.399061 1072.95V1105.4H5.60094V1072.95H-0.399061ZM35.2974 1103.34L4.78658 1070.89L0.415298 1075L30.9262 1107.45L35.2974 1103.34ZM2.60094 1108.4H33.1118V1102.4H2.60094V1108.4ZM-3 1070.18V1105.4H3V1070.18H-3ZM-3 1066.39V1070.18H3V1066.39H-3ZM4.7866 1067.1L2.18566 1064.33L-2.18566 1068.44L0.415278 1071.21L4.7866 1067.1ZM38.8675 1103.34L4.78658 1067.1L0.415299 1071.21L34.4962 1107.45L38.8675 1103.34ZM41.3129 1105.95L38.8675 1103.34L34.4962 1107.45L36.9416 1110.05L41.3129 1105.95ZM35.5573 1111H39.1273V1105H35.5573V1111ZM2.60094 1111H35.5573V1105H2.60094V1111ZM0 1111H2.60094V1105H0V1111ZM-3 1105.4V1108H3V1105.4H-3ZM3531.17 2.60094V35.0517H3537.17V2.60094H3531.17ZM3503.66 5.60094H3534.17V-0.399061H3503.66V5.60094ZM3536.36 32.9967L3505.85 0.545956L3501.47 4.65592L3531.99 37.1066L3536.36 32.9967ZM3533.77 2.60094V37.818H3539.77V2.60094H3533.77ZM3533.77 0V2.60094H3539.77V0H3533.77ZM3534.17 3H3536.77V-3H3534.17V3ZM3501.21 3H3534.17V-3H3501.21V3ZM3497.64 3H3501.21V-3H3497.64V3ZM3502.28 0.546017L3499.83 -2.05492L3495.46 2.05492L3497.9 4.65586L3502.28 0.546017ZM3536.36 36.7937L3502.28 0.545955L3497.9 4.65592L3531.99 40.9037L3536.36 36.7937ZM3538.96 39.5601L3536.36 36.7938L3531.98 40.9036L3534.59 43.67L3538.96 39.5601ZM3533.77 37.818V41.615H3539.77V37.818H3533.77ZM3583.24 3H3585.68V-3H3583.24V3ZM3586.24 2.60094V0H3580.24V2.60094H3586.24ZM3586.24 551.399V2.60094H3580.24V551.399H3586.24ZM3586.24 554V551.399H3580.24V554H3586.24ZM3585.68 551H3583.24V557H3585.68V551ZM3582.68 551.399V554H3588.68V551.399H3582.68ZM3582.68 2.60094V551.399H3588.68V2.60094H3582.68ZM3582.68 0V2.60094H3588.68V0H3582.68Z" fill="#00709B" mask="url(#path-1-inside-1)"/>
<path d="M3532.73 554.724L3532.74 554.743L3535.69 554.215L3535.69 554.195L3532.73 554.724ZM3585.68 606.019H3588.68C3588.68 605.255 3588.39 604.52 3587.87 603.964L3585.68 606.019ZM3536.77 554H3533.77C3533.77 554.764 3534.06 555.499 3534.59 556.055L3536.77 554ZM3536.77 52.0188H3539.77C3539.77 51.2551 3539.48 50.5202 3538.96 49.9638L3536.77 52.0188ZM3487.86 0L3490.05 -2.05498C3489.48 -2.65802 3488.69 -3 3487.86 -3V0ZM48.9091 0V-3C48.0814 -3 47.2905 -2.65802 46.7235 -2.05499L48.9091 0ZM0 52.0188L-2.18564 49.9638C-2.70876 50.5202 -3 51.2551 -3 52.0188H0ZM0 1055.98H-3C-3 1056.74 -2.70876 1057.48 -2.18564 1058.04L0 1055.98ZM48.9091 1108L46.7235 1110.05C47.2905 1110.66 48.0814 1111 48.9091 1111V1108ZM3585.68 1108V1111C3587.34 1111 3588.68 1109.66 3588.68 1108H3585.68ZM3583.08 607.049H3586.08C3586.08 606.286 3585.79 605.551 3585.27 604.995L3583.08 607.049ZM3583.08 1105.4V1108.4C3584.74 1108.4 3586.08 1107.06 3586.08 1105.4H3583.08ZM3534.88 555.782L3537.06 553.727V553.726L3534.88 555.782ZM3534.21 554.479L3531.26 555.007C3531.26 555.014 3531.26 555.021 3531.27 555.029L3534.21 554.479ZM3534.21 554.46L3531.26 554.986L3531.26 554.988L3534.21 554.46ZM3534.17 53.0495H3537.17C3537.17 52.2858 3536.88 51.5509 3536.36 50.9945L3534.17 53.0495ZM3486.74 2.60094L3488.92 0.54595C3488.36 -0.0570804 3487.57 -0.399061 3486.74 -0.399061V2.60094ZM50.0337 2.60094V-0.399061C49.206 -0.399061 48.415 -0.0570792 47.848 0.545954L50.0337 2.60094ZM2.60094 53.0495L0.415296 50.9945C-0.10782 51.5509 -0.399061 52.2858 -0.399061 53.0495H2.60094ZM2.60094 1054.95H-0.399061C-0.399061 1055.71 -0.107819 1056.45 0.415297 1057.01L2.60094 1054.95ZM50.0337 1105.4L47.848 1107.45C48.415 1108.06 49.2059 1108.4 50.0337 1108.4V1105.4ZM2.60094 2.60094V-0.399061C0.944085 -0.399061 -0.399061 0.944085 -0.399061 2.60094H2.60094ZM33.1118 2.60094L35.2974 4.65592C36.1171 3.78415 36.3403 2.50866 35.8654 1.41034C35.3905 0.312021 34.3084 -0.399061 33.1118 -0.399061V2.60094ZM2.60094 35.0517H-0.399061C-0.399061 36.2819 0.352014 37.3875 1.49571 37.8407C2.6394 38.2939 3.94388 38.003 4.78658 37.1067L2.60094 35.0517ZM0 0V-3C-1.65685 -3 -3 -1.65685 -3 0L0 0ZM0 41.615H-3C-3 42.8452 -2.24893 43.9508 -1.10523 44.404C0.0384629 44.8572 1.34294 44.5663 2.18564 43.67L0 41.615ZM2.60094 38.8487L4.78658 40.9037H4.78658L2.60094 38.8487ZM36.6818 2.60094L34.4962 0.545953V0.545954L36.6818 2.60094ZM39.1273 0L41.3129 2.05499C42.1326 1.18321 42.3558 -0.0922756 41.8809 -1.1906C41.406 -2.28892 40.3239 -3 39.1273 -3V0ZM2.60094 1072.95L4.78658 1070.89C3.94388 1070 2.6394 1069.71 1.49571 1070.16C0.352013 1070.61 -0.399061 1071.72 -0.399061 1072.95H2.60094ZM2.60094 1105.4H-0.399061C-0.399061 1107.06 0.944085 1108.4 2.60094 1108.4V1105.4ZM33.1118 1105.4V1108.4C34.3084 1108.4 35.3905 1107.69 35.8654 1106.59C36.3403 1105.49 36.1171 1104.22 35.2974 1103.34L33.1118 1105.4ZM0 1066.39L2.18566 1064.33C1.34297 1063.43 0.038482 1063.14 -1.10522 1063.6C-2.24892 1064.05 -3 1065.15 -3 1066.39H0ZM2.60094 1069.15L0.415278 1071.21H0.415299L2.60094 1069.15ZM36.6818 1105.4L38.8675 1103.34H38.8675L36.6818 1105.4ZM39.1273 1108V1111C40.3239 1111 41.406 1110.29 41.8809 1109.19C42.3558 1108.09 42.1326 1106.82 41.3129 1105.95L39.1273 1108ZM0 1108H-3C-3 1109.66 -1.65685 1111 0 1111L0 1108ZM3534.17 2.60094H3537.17C3537.17 0.944085 3535.83 -0.399061 3534.17 -0.399061V2.60094ZM3534.17 35.0517L3531.99 37.1066C3532.83 38.0029 3534.13 38.2939 3535.28 37.8406C3536.42 37.3874 3537.17 36.2819 3537.17 35.0517H3534.17ZM3503.66 2.60094V-0.399061C3502.46 -0.399061 3501.38 0.31202 3500.91 1.41034C3500.43 2.50866 3500.65 3.78415 3501.47 4.65592L3503.66 2.60094ZM3536.77 0H3539.77C3539.77 -1.65685 3538.43 -3 3536.77 -3V0ZM3497.64 0V-3C3496.45 -3 3495.37 -2.28894 3494.89 -1.19064C3494.42 -0.0923381 3494.64 1.18314 3495.46 2.05492L3497.64 0ZM3500.09 2.60094L3497.9 4.65586L3497.9 4.65592L3500.09 2.60094ZM3534.17 38.8487L3536.36 36.7938L3536.36 36.7937L3534.17 38.8487ZM3536.77 41.615L3534.59 43.67C3535.43 44.5663 3536.73 44.8572 3537.88 44.404C3539.02 43.9508 3539.77 42.8453 3539.77 41.615H3536.77ZM3583.24 0V-3C3581.58 -3 3580.24 -1.65685 3580.24 0L3583.24 0ZM3585.68 0H3588.68C3588.68 -1.65685 3587.34 -3 3585.68 -3V0ZM3583.24 554H3580.24C3580.24 555.657 3581.58 557 3583.24 557V554ZM3585.68 554V557C3587.34 557 3588.68 555.657 3588.68 554H3585.68ZM3582.68 606.019V608.62H3588.68V606.019H3582.68ZM3534.59 556.055L3583.5 608.074L3587.87 603.964L3538.96 551.945L3534.59 556.055ZM3533.77 551.399V554H3539.77V551.399H3533.77ZM3533.77 52.0188V551.399H3539.77V52.0188H3533.77ZM3485.68 2.05498L3534.59 54.0738L3538.96 49.9638L3490.05 -2.05498L3485.68 2.05498ZM48.9091 3H3487.86V-3H48.9091V3ZM2.18564 54.0738L51.0948 2.05499L46.7235 -2.05499L-2.18564 49.9638L2.18564 54.0738ZM3 1055.98V52.0188H-3V1055.98H3ZM51.0948 1105.95L2.18564 1053.93L-2.18564 1058.04L46.7235 1110.05L51.0948 1105.95ZM3583.08 1105H48.9091V1111H3583.08V1105ZM3585.68 1105H3583.08V1111H3585.68V1105ZM3582.68 1105.4V1108H3588.68V1105.4H3582.68ZM3582.68 608.62V1105.4H3588.68V608.62H3582.68ZM3580.08 607.049V1105.4H3586.08V607.049H3580.08ZM3532.69 557.837L3580.89 609.104L3585.27 604.995L3537.06 553.727L3532.69 557.837ZM3531.27 555.029C3531.46 556.048 3531.93 557.03 3532.69 557.837L3537.06 553.726C3537.11 553.782 3537.15 553.855 3537.16 553.929L3531.27 555.029ZM3531.26 554.988L3531.26 555.007L3537.17 553.95L3537.16 553.931L3531.26 554.988ZM3531.17 554C3531.17 554.331 3531.2 554.661 3531.26 554.986L3537.16 553.933C3537.17 553.954 3537.17 553.976 3537.17 554H3531.17ZM3531.17 553.98V554H3537.17V553.98H3531.17ZM3531.17 53.0495V553.98H3537.17V53.0495H3531.17ZM3484.55 4.65593L3531.99 55.1045L3536.36 50.9945L3488.92 0.54595L3484.55 4.65593ZM50.0337 5.60094H3486.74V-0.399061H50.0337V5.60094ZM4.78658 55.1045L52.2193 4.65592L47.848 0.545954L0.415296 50.9945L4.78658 55.1045ZM5.60094 1054.95V53.0495H-0.399061V1054.95H5.60094ZM52.2193 1103.34L4.78658 1052.9L0.415297 1057.01L47.848 1107.45L52.2193 1103.34ZM3583.08 1102.4H50.0337V1108.4H3583.08V1102.4ZM2.60094 5.60094H33.1118V-0.399061H2.60094V5.60094ZM5.60094 35.0517V2.60094H-0.399061V35.0517H5.60094ZM30.9262 0.545954L0.415296 32.9967L4.78658 37.1067L35.2974 4.65592L30.9262 0.545954ZM2.60094 3H35.5573V-3H2.60094V3ZM0 3H2.60094V-3H0V3ZM3 2.60094V0H-3V2.60094H3ZM3 37.818V2.60094H-3V37.818H3ZM3 41.615V37.818H-3V41.615H3ZM0.415296 36.7937L-2.18564 39.56L2.18564 43.67L4.78658 40.9037L0.415296 36.7937ZM34.4962 0.545954L0.415296 36.7937L4.78658 40.9037L38.8675 4.65592L34.4962 0.545954ZM36.9416 -2.05499L34.4962 0.545953L38.8675 4.65593L41.3129 2.05499L36.9416 -2.05499ZM35.5573 3H39.1273V-3H35.5573V3ZM-0.399061 1072.95V1105.4H5.60094V1072.95H-0.399061ZM35.2974 1103.34L4.78658 1070.89L0.415298 1075L30.9262 1107.45L35.2974 1103.34ZM2.60094 1108.4H33.1118V1102.4H2.60094V1108.4ZM-3 1070.18V1105.4H3V1070.18H-3ZM-3 1066.39V1070.18H3V1066.39H-3ZM4.7866 1067.1L2.18566 1064.33L-2.18566 1068.44L0.415278 1071.21L4.7866 1067.1ZM38.8675 1103.34L4.78658 1067.1L0.415299 1071.21L34.4962 1107.45L38.8675 1103.34ZM41.3129 1105.95L38.8675 1103.34L34.4962 1107.45L36.9416 1110.05L41.3129 1105.95ZM35.5573 1111H39.1273V1105H35.5573V1111ZM2.60094 1111H35.5573V1105H2.60094V1111ZM0 1111H2.60094V1105H0V1111ZM-3 1105.4V1108H3V1105.4H-3ZM3531.17 2.60094V35.0517H3537.17V2.60094H3531.17ZM3503.66 5.60094H3534.17V-0.399061H3503.66V5.60094ZM3536.36 32.9967L3505.85 0.545956L3501.47 4.65592L3531.99 37.1066L3536.36 32.9967ZM3533.77 2.60094V37.818H3539.77V2.60094H3533.77ZM3533.77 0V2.60094H3539.77V0H3533.77ZM3534.17 3H3536.77V-3H3534.17V3ZM3501.21 3H3534.17V-3H3501.21V3ZM3497.64 3H3501.21V-3H3497.64V3ZM3502.28 0.546017L3499.83 -2.05492L3495.46 2.05492L3497.9 4.65586L3502.28 0.546017ZM3536.36 36.7937L3502.28 0.545955L3497.9 4.65592L3531.99 40.9037L3536.36 36.7937ZM3538.96 39.5601L3536.36 36.7938L3531.98 40.9036L3534.59 43.67L3538.96 39.5601ZM3533.77 37.818V41.615H3539.77V37.818H3533.77ZM3583.24 3H3585.68V-3H3583.24V3ZM3586.24 2.60094V0H3580.24V2.60094H3586.24ZM3586.24 551.399V2.60094H3580.24V551.399H3586.24ZM3586.24 554V551.399H3580.24V554H3586.24ZM3585.68 551H3583.24V557H3585.68V551ZM3582.68 551.399V554H3588.68V551.399H3582.68ZM3582.68 2.60094V551.399H3588.68V2.60094H3582.68ZM3582.68 0V2.60094H3588.68V0H3582.68Z" fill="url(#paint0_linear)" mask="url(#path-1-inside-1)"/>
</g>
<g filter="url(#filter1_d)">
<path d="M3535.61 572.969L3536.55 572.078L3535.66 571.131L3534.72 572.022L3535.61 572.969ZM3536.5 573.917L3537.44 573.026L3537.44 573.026L3536.5 573.917ZM3533.71 574.751L3532.82 573.803L3531.87 574.694L3532.76 575.642L3533.71 574.751ZM3534.6 575.698L3535.55 574.808L3534.6 575.698ZM3572.51 616.013L3571.56 616.904V616.904L3572.51 616.013ZM3573.4 616.96L3572.45 617.851L3573.34 618.799L3574.29 617.908L3573.4 616.96ZM3575.29 615.179L3576.18 616.126L3577.13 615.235L3576.24 614.288L3575.29 615.179ZM3574.4 614.231L3575.35 613.34L3574.4 614.231ZM3535.61 739.429L3536.55 738.539L3535.66 737.591L3534.72 738.482L3535.61 739.429ZM3536.5 740.377L3537.44 739.486H3537.44L3536.5 740.377ZM3533.71 741.211L3532.82 740.264L3531.87 741.154L3532.76 742.102L3533.71 741.211ZM3534.6 742.158L3533.65 743.049L3533.65 743.049L3534.6 742.158ZM3572.51 782.473L3571.56 783.364H3571.56L3572.51 782.473ZM3573.4 783.42L3572.45 784.311L3573.34 785.259L3574.29 784.368L3573.4 783.42ZM3575.29 781.639L3576.18 782.586L3577.13 781.695L3576.24 780.748L3575.29 781.639ZM3574.4 780.691L3573.45 781.582L3574.4 780.691ZM3536.5 906.837L3537.44 905.946H3537.44L3536.5 906.837ZM3535.61 905.889L3536.55 904.999L3535.66 904.051L3534.72 904.942L3535.61 905.889ZM3574.4 947.151L3573.45 948.042L3574.4 947.151ZM3575.29 948.099L3576.18 949.046L3577.13 948.156L3576.24 947.208L3575.29 948.099ZM3573.4 949.881L3572.45 950.771L3573.34 951.719L3574.29 950.828L3573.4 949.881ZM3572.51 948.933L3571.56 949.824H3571.56L3572.51 948.933ZM3534.6 908.619L3535.55 907.728H3535.55L3534.6 908.619ZM3533.71 907.671L3532.82 906.724L3531.87 907.614L3532.76 908.562L3533.71 907.671ZM3535.61 656.199L3536.55 655.309L3535.66 654.361L3534.72 655.252L3535.61 656.199ZM3536.5 657.147L3535.55 658.038H3535.55L3536.5 657.147ZM3533.71 657.981L3532.82 657.034L3531.87 657.924L3532.76 658.872L3533.71 657.981ZM3534.6 658.928L3535.55 658.038H3535.55L3534.6 658.928ZM3572.51 699.243L3571.56 700.134L3571.56 700.134L3572.51 699.243ZM3573.4 700.19L3572.45 701.081L3573.34 702.029L3574.29 701.138L3573.4 700.19ZM3575.29 698.409L3576.18 699.356L3577.13 698.465L3576.24 697.518L3575.29 698.409ZM3574.4 697.461L3573.45 698.352L3574.4 697.461ZM3536.5 823.607L3537.44 822.716H3537.44L3536.5 823.607ZM3535.61 822.659L3536.55 821.769L3535.66 820.821L3534.72 821.712L3535.61 822.659ZM3574.4 863.921L3573.45 864.812L3574.4 863.921ZM3575.29 864.869L3576.18 865.816L3577.13 864.925L3576.24 863.978L3575.29 864.869ZM3573.4 866.65L3572.45 867.541L3573.34 868.489L3574.29 867.598L3573.4 866.65ZM3572.51 865.703L3571.56 866.594H3571.56L3572.51 865.703ZM3534.6 825.389L3533.65 826.279L3533.65 826.279L3534.6 825.389ZM3533.71 824.441L3532.82 823.494L3531.87 824.384L3532.76 825.332L3533.71 824.441ZM3535.61 989.12L3536.55 988.229L3535.66 987.281L3534.72 988.172L3535.61 989.12ZM3536.5 990.067L3537.44 989.176H3537.44L3536.5 990.067ZM3533.71 990.901L3532.82 989.954L3531.87 990.844L3532.76 991.792L3533.71 990.901ZM3534.6 991.849L3535.55 990.958H3535.55L3534.6 991.849ZM3572.51 1032.16L3571.56 1033.05H3571.56L3572.51 1032.16ZM3573.4 1033.11L3572.45 1034L3573.34 1034.95L3574.29 1034.06L3573.4 1033.11ZM3575.29 1031.33L3576.18 1032.28L3577.13 1031.39L3576.24 1030.44L3575.29 1031.33ZM3574.4 1030.38L3573.45 1031.27L3574.4 1030.38ZM3536.5 615.532L3537.44 614.641L3536.5 615.532ZM3535.61 614.584L3536.55 613.693L3535.66 612.746L3534.72 613.637L3535.61 614.584ZM3574.4 655.846L3575.35 654.955H3575.35L3574.4 655.846ZM3575.29 656.794L3576.18 657.741L3577.13 656.85L3576.24 655.903L3575.29 656.794ZM3573.4 658.575L3572.45 659.466L3573.34 660.414L3574.29 659.523L3573.4 658.575ZM3572.51 657.628L3573.45 656.737L3572.51 657.628ZM3534.6 617.313L3535.55 616.423L3534.6 617.313ZM3533.71 616.366L3532.82 615.418L3531.87 616.309L3532.76 617.257L3533.71 616.366ZM3535.61 781.044L3536.55 780.154L3535.66 779.206L3534.72 780.097L3535.61 781.044ZM3536.5 781.992L3537.44 781.101H3537.44L3536.5 781.992ZM3533.71 782.826L3532.82 781.879L3531.87 782.769L3532.76 783.717L3533.71 782.826ZM3534.6 783.773L3533.65 784.664L3533.65 784.664L3534.6 783.773ZM3572.51 824.088L3571.56 824.979H3571.56L3572.51 824.088ZM3573.4 825.035L3572.45 825.926L3573.34 826.874L3574.29 825.983L3573.4 825.035ZM3575.29 823.254L3576.18 824.201L3577.13 823.311L3576.24 822.363L3575.29 823.254ZM3574.4 822.306L3575.35 821.416L3575.35 821.416L3574.4 822.306ZM3536.5 948.452L3537.44 947.561H3537.44L3536.5 948.452ZM3535.61 947.505L3536.55 946.614L3535.66 945.666L3534.72 946.557L3535.61 947.505ZM3574.4 988.766L3573.45 989.657L3574.4 988.766ZM3575.29 989.714L3576.18 990.661L3577.13 989.771L3576.24 988.823L3575.29 989.714ZM3573.4 991.496L3572.45 992.386L3573.34 993.334L3574.29 992.443L3573.4 991.496ZM3572.51 990.548L3571.56 991.439H3571.56L3572.51 990.548ZM3534.6 950.234L3535.55 949.343H3535.55L3534.6 950.234ZM3533.71 949.286L3532.82 948.339L3531.87 949.229L3532.76 950.177L3533.71 949.286ZM3535.61 697.814L3536.55 696.924L3535.66 695.976L3534.72 696.867L3535.61 697.814ZM3536.5 698.762L3535.55 699.653H3535.55L3536.5 698.762ZM3533.71 699.596L3532.82 698.649L3531.87 699.539L3532.76 700.487L3533.71 699.596ZM3534.6 700.543L3535.55 699.653H3535.55L3534.6 700.543ZM3572.51 740.858L3571.56 741.749H3571.56L3572.51 740.858ZM3573.4 741.805L3572.45 742.696L3573.34 743.644L3574.29 742.753L3573.4 741.805ZM3575.29 740.024L3576.18 740.971L3577.13 740.08L3576.24 739.133L3575.29 740.024ZM3574.4 739.076L3575.35 738.186L3575.35 738.186L3574.4 739.076ZM3536.5 865.222L3537.44 864.331H3537.44L3536.5 865.222ZM3535.61 864.274L3536.55 863.384L3535.66 862.436L3534.72 863.327L3535.61 864.274ZM3574.4 905.536L3573.45 906.427L3574.4 905.536ZM3575.29 906.484L3576.18 907.431L3577.13 906.541L3576.24 905.593L3575.29 906.484ZM3573.4 908.266L3572.45 909.156L3573.34 910.104L3574.29 909.213L3573.4 908.266ZM3572.51 907.318L3571.56 908.209H3571.56L3572.51 907.318ZM3534.6 867.003L3535.55 866.113H3535.55L3534.6 867.003ZM3533.71 866.056L3532.82 865.109L3531.87 865.999L3532.76 866.947L3533.71 866.056ZM3535.61 593.777L3536.55 592.886L3535.66 591.939L3534.72 592.829L3535.61 593.777ZM3536.5 594.724L3535.55 595.615H3535.55L3536.5 594.724ZM3533.71 595.558L3532.82 594.611L3531.87 595.502L3532.76 596.449L3533.71 595.558ZM3534.6 596.506L3533.65 597.397H3533.65L3534.6 596.506ZM3572.51 636.82L3571.56 637.711L3571.56 637.711L3572.51 636.82ZM3573.4 637.768L3572.45 638.659L3573.34 639.606L3574.29 638.715L3573.4 637.768ZM3575.29 635.986L3576.18 636.934L3577.13 636.043L3576.24 635.095L3575.29 635.986ZM3574.4 635.039L3573.45 635.93V635.93L3574.4 635.039ZM3536.5 761.184L3537.44 760.294H3537.44L3536.5 761.184ZM3535.61 760.237L3536.55 759.346L3535.66 758.399L3534.72 759.289L3535.61 760.237ZM3574.4 801.499L3575.35 800.608L3575.35 800.608L3574.4 801.499ZM3575.29 802.446L3576.18 803.394L3577.13 802.503L3576.24 801.556L3575.29 802.446ZM3573.4 804.228L3572.45 805.119L3573.34 806.066L3574.29 805.175L3573.4 804.228ZM3572.51 803.281L3571.56 804.171H3571.56L3572.51 803.281ZM3534.6 762.966L3533.65 763.857L3533.65 763.857L3534.6 762.966ZM3533.71 762.019L3532.82 761.071L3531.87 761.962L3532.76 762.909L3533.71 762.019ZM3535.61 926.697L3536.55 925.806L3535.66 924.859L3534.72 925.75L3535.61 926.697ZM3536.5 927.644L3537.44 926.754H3537.44L3536.5 927.644ZM3533.71 928.479L3532.82 927.531L3531.87 928.422L3532.76 929.369L3533.71 928.479ZM3534.6 929.426L3535.55 928.535H3535.55L3534.6 929.426ZM3572.51 969.741L3571.56 970.631H3571.56L3572.51 969.741ZM3573.4 970.688L3572.45 971.579L3573.34 972.526L3574.29 971.635L3573.4 970.688ZM3575.29 968.906L3576.18 969.854L3577.13 968.963L3576.24 968.016L3575.29 968.906ZM3574.4 967.959L3573.45 968.85L3574.4 967.959ZM3536.5 677.954L3535.55 678.845H3535.55L3536.5 677.954ZM3535.61 677.007L3536.55 676.116L3535.66 675.169L3534.72 676.059L3535.61 677.007ZM3574.4 718.269L3573.45 719.16L3574.4 718.269ZM3575.29 719.216L3576.18 720.164L3577.13 719.273L3576.24 718.325L3575.29 719.216ZM3573.4 720.998L3572.45 721.889L3573.34 722.836L3574.29 721.945L3573.4 720.998ZM3572.51 720.05L3571.56 720.941H3571.56L3572.51 720.05ZM3534.6 679.736L3535.55 678.845H3535.55L3534.6 679.736ZM3533.71 678.788L3532.82 677.841L3531.87 678.732L3532.76 679.679L3533.71 678.788ZM3535.61 843.467L3536.55 842.576L3535.66 841.629L3534.72 842.519L3535.61 843.467ZM3536.5 844.414L3537.44 843.524H3537.44L3536.5 844.414ZM3533.71 845.249L3532.82 844.301L3531.87 845.192L3532.76 846.139L3533.71 845.249ZM3534.6 846.196L3535.55 845.305H3535.55L3534.6 846.196ZM3572.51 886.511L3571.56 887.401H3571.56L3572.51 886.511ZM3573.4 887.458L3572.45 888.349L3573.34 889.296L3574.29 888.405L3573.4 887.458ZM3575.29 885.676L3576.18 886.624L3577.13 885.733L3576.24 884.786L3575.29 885.676ZM3574.4 884.729L3573.45 885.62L3574.4 884.729ZM3536.5 1010.87L3537.44 1009.98H3537.44L3536.5 1010.87ZM3535.61 1009.93L3536.55 1009.04L3535.66 1008.09L3534.72 1008.98L3535.61 1009.93ZM3574.4 1051.19L3573.45 1052.08L3574.4 1051.19ZM3575.29 1052.14L3576.18 1053.08L3577.13 1052.19L3576.24 1051.25L3575.29 1052.14ZM3573.4 1053.92L3572.45 1054.81L3573.34 1055.76L3574.29 1054.87L3573.4 1053.92ZM3572.51 1052.97L3571.56 1053.86H3571.56L3572.51 1052.97ZM3534.6 1012.66L3535.55 1011.77H3535.55L3534.6 1012.66ZM3533.71 1011.71L3532.82 1010.76L3531.87 1011.65L3532.76 1012.6L3533.71 1011.71ZM3535.61 635.392L3536.55 634.501L3535.66 633.554L3534.72 634.444L3535.61 635.392ZM3536.5 636.339L3537.44 635.448H3537.44L3536.5 636.339ZM3533.71 637.173L3532.82 636.226L3531.87 637.117L3532.76 638.064L3533.71 637.173ZM3534.6 638.121L3535.55 637.23H3535.55L3534.6 638.121ZM3572.51 678.435L3571.56 679.326L3571.56 679.326L3572.51 678.435ZM3573.4 679.383L3572.45 680.274L3573.34 681.221L3574.29 680.33L3573.4 679.383ZM3575.29 677.601L3576.18 678.549L3577.13 677.658L3576.24 676.71L3575.29 677.601ZM3574.4 676.654L3575.35 675.763H3575.35L3574.4 676.654ZM3536.5 802.799L3537.44 801.909H3537.44L3536.5 802.799ZM3535.61 801.852L3536.55 800.961L3535.66 800.014L3534.72 800.904L3535.61 801.852ZM3574.4 843.114L3573.45 844.005L3574.4 843.114ZM3575.29 844.061L3576.18 845.009L3577.13 844.118L3576.24 843.171L3575.29 844.061ZM3573.4 845.843L3572.45 846.734L3573.34 847.681L3574.29 846.79L3573.4 845.843ZM3572.51 844.896L3571.56 845.786H3571.56L3572.51 844.896ZM3534.6 804.581L3533.65 805.472L3533.65 805.472L3534.6 804.581ZM3533.71 803.634L3532.82 802.686L3531.87 803.577L3532.76 804.524L3533.71 803.634ZM3535.61 968.312L3536.55 967.421L3535.66 966.474L3534.72 967.365L3535.61 968.312ZM3536.5 969.259L3537.44 968.369H3537.44L3536.5 969.259ZM3533.71 970.094L3532.82 969.146L3531.87 970.037L3532.76 970.984L3533.71 970.094ZM3534.6 971.041L3535.55 970.15H3535.55L3534.6 971.041ZM3572.51 1011.36L3571.56 1012.25H3571.56L3572.51 1011.36ZM3573.4 1012.3L3572.45 1013.19L3573.34 1014.14L3574.29 1013.25L3573.4 1012.3ZM3575.29 1010.52L3576.18 1011.47L3577.13 1010.58L3576.24 1009.63L3575.29 1010.52ZM3574.4 1009.57L3573.45 1010.46L3574.4 1009.57ZM3536.5 719.569L3537.44 718.678H3537.44L3536.5 719.569ZM3535.61 718.622L3536.55 717.731L3535.66 716.784L3534.72 717.674L3535.61 718.622ZM3574.4 759.884L3575.35 758.993L3575.35 758.993L3574.4 759.884ZM3575.29 760.831L3576.18 761.779L3577.13 760.888L3576.24 759.941L3575.29 760.831ZM3573.4 762.613L3572.45 763.504L3573.34 764.451L3574.29 763.56L3573.4 762.613ZM3572.51 761.665L3571.56 762.556H3571.56L3572.51 761.665ZM3534.6 721.351L3533.65 722.242L3533.65 722.242L3534.6 721.351ZM3533.71 720.403L3532.82 719.456L3531.87 720.347L3532.76 721.294L3533.71 720.403ZM3535.61 885.082L3536.55 884.191L3535.66 883.244L3534.72 884.134L3535.61 885.082ZM3536.5 886.029L3537.44 885.139H3537.44L3536.5 886.029ZM3533.71 886.864L3532.82 885.916L3531.87 886.807L3532.76 887.754L3533.71 886.864ZM3534.6 887.811L3535.55 886.92H3535.55L3534.6 887.811ZM3572.51 928.126L3571.56 929.016H3571.56L3572.51 928.126ZM3573.4 929.073L3572.45 929.964L3573.34 930.911L3574.29 930.02L3573.4 929.073ZM3575.29 927.291L3576.18 928.239L3577.13 927.348L3576.24 926.401L3575.29 927.291ZM3574.4 926.344L3573.45 927.235L3574.4 926.344ZM3534.66 573.86L3535.55 574.808L3537.44 573.026L3536.55 572.078L3534.66 573.86ZM3534.6 575.698L3536.5 573.917L3534.72 572.022L3532.82 573.803L3534.6 575.698ZM3535.55 574.808L3534.66 573.86L3532.76 575.642L3533.65 576.589L3535.55 574.808ZM3573.45 615.122L3535.55 574.808L3533.65 576.589L3571.56 616.904L3573.45 615.122ZM3574.34 616.07L3573.45 615.122L3571.56 616.904L3572.45 617.851L3574.34 616.07ZM3574.4 614.231L3572.51 616.013L3574.29 617.908L3576.18 616.126L3574.4 614.231ZM3573.45 615.122L3574.34 616.07L3576.24 614.288L3575.35 613.34L3573.45 615.122ZM3535.55 574.808L3573.45 615.122L3575.35 613.34L3537.44 573.026L3535.55 574.808ZM3534.66 740.32L3535.55 741.268L3537.44 739.486L3536.55 738.539L3534.66 740.32ZM3534.6 742.158L3536.5 740.377L3534.72 738.482L3532.82 740.264L3534.6 742.158ZM3535.55 741.268L3534.66 740.32L3532.76 742.102L3533.65 743.049L3535.55 741.268ZM3573.45 781.582L3535.55 741.268L3533.65 743.049L3571.56 783.364L3573.45 781.582ZM3574.34 782.53L3573.45 781.582L3571.56 783.364L3572.45 784.311L3574.34 782.53ZM3574.4 780.691L3572.51 782.473L3574.29 784.368L3576.18 782.586L3574.4 780.691ZM3573.45 781.582L3574.34 782.53L3576.24 780.748L3575.35 779.801L3573.45 781.582ZM3535.55 741.268L3573.45 781.582L3575.35 779.801L3537.44 739.486L3535.55 741.268ZM3537.44 905.946L3536.55 904.999L3534.66 906.78L3535.55 907.728L3537.44 905.946ZM3575.35 946.261L3537.44 905.946L3535.55 907.728L3573.45 948.042L3575.35 946.261ZM3576.24 947.208L3575.35 946.261L3573.45 948.042L3574.34 948.99L3576.24 947.208ZM3574.29 950.828L3576.18 949.046L3574.4 947.151L3572.51 948.933L3574.29 950.828ZM3571.56 949.824L3572.45 950.771L3574.34 948.99L3573.45 948.042L3571.56 949.824ZM3533.65 909.509L3571.56 949.824L3573.45 948.042L3535.55 907.728L3533.65 909.509ZM3532.76 908.562L3533.65 909.509L3535.55 907.728L3534.66 906.78L3532.76 908.562ZM3534.72 904.942L3532.82 906.724L3534.6 908.619L3536.5 906.837L3534.72 904.942ZM3534.66 657.09L3535.55 658.038L3537.44 656.256L3536.55 655.309L3534.66 657.09ZM3534.6 658.928L3536.5 657.147L3534.72 655.252L3532.82 657.034L3534.6 658.928ZM3535.55 658.038L3534.66 657.09L3532.76 658.872L3533.65 659.819L3535.55 658.038ZM3573.45 698.352L3535.55 658.038L3533.65 659.819L3571.56 700.134L3573.45 698.352ZM3574.34 699.3L3573.45 698.352L3571.56 700.134L3572.45 701.081L3574.34 699.3ZM3574.4 697.461L3572.51 699.243L3574.29 701.138L3576.18 699.356L3574.4 697.461ZM3573.45 698.352L3574.34 699.3L3576.24 697.518L3575.35 696.571L3573.45 698.352ZM3535.55 658.038L3573.45 698.352L3575.35 696.571L3537.44 656.256L3535.55 658.038ZM3537.44 822.716L3536.55 821.769L3534.66 823.55L3535.55 824.498L3537.44 822.716ZM3575.35 863.031L3537.44 822.716L3535.55 824.498L3573.45 864.812L3575.35 863.031ZM3576.24 863.978L3575.35 863.031L3573.45 864.812L3574.34 865.76L3576.24 863.978ZM3574.29 867.598L3576.18 865.816L3574.4 863.921L3572.51 865.703L3574.29 867.598ZM3571.56 866.594L3572.45 867.541L3574.34 865.76L3573.45 864.812L3571.56 866.594ZM3533.65 826.279L3571.56 866.594L3573.45 864.812L3535.55 824.498L3533.65 826.279ZM3532.76 825.332L3533.65 826.279L3535.55 824.498L3534.66 823.55L3532.76 825.332ZM3534.72 821.712L3532.82 823.494L3534.6 825.389L3536.5 823.607L3534.72 821.712ZM3534.66 990.01L3535.55 990.958L3537.44 989.176L3536.55 988.229L3534.66 990.01ZM3534.6 991.849L3536.5 990.067L3534.72 988.172L3532.82 989.954L3534.6 991.849ZM3535.55 990.958L3534.66 990.01L3532.76 991.792L3533.65 992.739L3535.55 990.958ZM3573.45 1031.27L3535.55 990.958L3533.65 992.739L3571.56 1033.05L3573.45 1031.27ZM3574.34 1032.22L3573.45 1031.27L3571.56 1033.05L3572.45 1034L3574.34 1032.22ZM3574.4 1030.38L3572.51 1032.16L3574.29 1034.06L3576.18 1032.28L3574.4 1030.38ZM3573.45 1031.27L3574.34 1032.22L3576.24 1030.44L3575.35 1029.49L3573.45 1031.27ZM3535.55 990.958L3573.45 1031.27L3575.35 1029.49L3537.44 989.176L3535.55 990.958ZM3537.44 614.641L3536.55 613.693L3534.66 615.475L3535.55 616.423L3537.44 614.641ZM3575.35 654.955L3537.44 614.641L3535.55 616.423L3573.45 656.737L3575.35 654.955ZM3576.24 655.903L3575.35 654.955L3573.45 656.737L3574.34 657.685L3576.24 655.903ZM3574.29 659.523L3576.18 657.741L3574.4 655.846L3572.51 657.628L3574.29 659.523ZM3571.56 658.519L3572.45 659.466L3574.34 657.685L3573.45 656.737L3571.56 658.519ZM3533.65 618.204L3571.56 658.519L3573.45 656.737L3535.55 616.423L3533.65 618.204ZM3532.76 617.257L3533.65 618.204L3535.55 616.423L3534.66 615.475L3532.76 617.257ZM3534.72 613.637L3532.82 615.418L3534.6 617.313L3536.5 615.532L3534.72 613.637ZM3534.66 781.935L3535.55 782.883L3537.44 781.101L3536.55 780.154L3534.66 781.935ZM3534.6 783.773L3536.5 781.992L3534.72 780.097L3532.82 781.879L3534.6 783.773ZM3535.55 782.883L3534.66 781.935L3532.76 783.717L3533.65 784.664L3535.55 782.883ZM3573.45 823.197L3535.55 782.883L3533.65 784.664L3571.56 824.979L3573.45 823.197ZM3574.34 824.145L3573.45 823.197L3571.56 824.979L3572.45 825.926L3574.34 824.145ZM3574.4 822.306L3572.51 824.088L3574.29 825.983L3576.18 824.201L3574.4 822.306ZM3573.45 823.197L3574.34 824.145L3576.24 822.363L3575.35 821.416L3573.45 823.197ZM3535.55 782.883L3573.45 823.197L3575.35 821.416L3537.44 781.101L3535.55 782.883ZM3537.44 947.561L3536.55 946.614L3534.66 948.395L3535.55 949.343L3537.44 947.561ZM3575.35 987.876L3537.44 947.561L3535.55 949.343L3573.45 989.657L3575.35 987.876ZM3576.24 988.823L3575.35 987.876L3573.45 989.657L3574.34 990.605L3576.24 988.823ZM3574.29 992.443L3576.18 990.661L3574.4 988.766L3572.51 990.548L3574.29 992.443ZM3571.56 991.439L3572.45 992.386L3574.34 990.605L3573.45 989.657L3571.56 991.439ZM3533.65 951.124L3571.56 991.439L3573.45 989.657L3535.55 949.343L3533.65 951.124ZM3532.76 950.177L3533.65 951.124L3535.55 949.343L3534.66 948.395L3532.76 950.177ZM3534.72 946.557L3532.82 948.339L3534.6 950.234L3536.5 948.452L3534.72 946.557ZM3534.66 698.705L3535.55 699.653L3537.44 697.871L3536.55 696.924L3534.66 698.705ZM3534.6 700.543L3536.5 698.762L3534.72 696.867L3532.82 698.649L3534.6 700.543ZM3535.55 699.653L3534.66 698.705L3532.76 700.487L3533.65 701.434L3535.55 699.653ZM3573.45 739.967L3535.55 699.653L3533.65 701.434L3571.56 741.749L3573.45 739.967ZM3574.34 740.915L3573.45 739.967L3571.56 741.749L3572.45 742.696L3574.34 740.915ZM3574.4 739.076L3572.51 740.858L3574.29 742.753L3576.18 740.971L3574.4 739.076ZM3573.45 739.967L3574.34 740.915L3576.24 739.133L3575.35 738.186L3573.45 739.967ZM3535.55 699.653L3573.45 739.967L3575.35 738.186L3537.44 697.871L3535.55 699.653ZM3537.44 864.331L3536.55 863.384L3534.66 865.165L3535.55 866.113L3537.44 864.331ZM3575.35 904.646L3537.44 864.331L3535.55 866.113L3573.45 906.427L3575.35 904.646ZM3576.24 905.593L3575.35 904.646L3573.45 906.427L3574.34 907.375L3576.24 905.593ZM3574.29 909.213L3576.18 907.431L3574.4 905.536L3572.51 907.318L3574.29 909.213ZM3571.56 908.209L3572.45 909.156L3574.34 907.375L3573.45 906.427L3571.56 908.209ZM3533.65 867.894L3571.56 908.209L3573.45 906.427L3535.55 866.113L3533.65 867.894ZM3532.76 866.947L3533.65 867.894L3535.55 866.113L3534.66 865.165L3532.76 866.947ZM3534.72 863.327L3532.82 865.109L3534.6 867.003L3536.5 865.222L3534.72 863.327ZM3534.66 594.668L3535.55 595.615L3537.44 593.833L3536.55 592.886L3534.66 594.668ZM3534.6 596.506L3536.5 594.724L3534.72 592.829L3532.82 594.611L3534.6 596.506ZM3535.55 595.615L3534.66 594.668L3532.76 596.449L3533.65 597.397L3535.55 595.615ZM3573.45 635.93L3535.55 595.615L3533.65 597.397L3571.56 637.711L3573.45 635.93ZM3574.34 636.877L3573.45 635.93L3571.56 637.711L3572.45 638.659L3574.34 636.877ZM3574.4 635.039L3572.51 636.82L3574.29 638.715L3576.18 636.934L3574.4 635.039ZM3573.45 635.93L3574.34 636.877L3576.24 635.095L3575.35 634.148L3573.45 635.93ZM3535.55 595.615L3573.45 635.93L3575.35 634.148L3537.44 593.833L3535.55 595.615ZM3537.44 760.294L3536.55 759.346L3534.66 761.128L3535.55 762.075L3537.44 760.294ZM3575.35 800.608L3537.44 760.294L3535.55 762.075L3573.45 802.39L3575.35 800.608ZM3576.24 801.556L3575.35 800.608L3573.45 802.39L3574.34 803.337L3576.24 801.556ZM3574.29 805.175L3576.18 803.394L3574.4 801.499L3572.51 803.281L3574.29 805.175ZM3571.56 804.171L3572.45 805.119L3574.34 803.337L3573.45 802.39L3571.56 804.171ZM3533.65 763.857L3571.56 804.171L3573.45 802.39L3535.55 762.075L3533.65 763.857ZM3532.76 762.909L3533.65 763.857L3535.55 762.075L3534.66 761.128L3532.76 762.909ZM3534.72 759.289L3532.82 761.071L3534.6 762.966L3536.5 761.184L3534.72 759.289ZM3534.66 927.588L3535.55 928.535L3537.44 926.754L3536.55 925.806L3534.66 927.588ZM3534.6 929.426L3536.5 927.644L3534.72 925.75L3532.82 927.531L3534.6 929.426ZM3535.55 928.535L3534.66 927.588L3532.76 929.369L3533.65 930.317L3535.55 928.535ZM3573.45 968.85L3535.55 928.535L3533.65 930.317L3571.56 970.631L3573.45 968.85ZM3574.34 969.797L3573.45 968.85L3571.56 970.631L3572.45 971.579L3574.34 969.797ZM3574.4 967.959L3572.51 969.741L3574.29 971.635L3576.18 969.854L3574.4 967.959ZM3573.45 968.85L3574.34 969.797L3576.24 968.016L3575.35 967.068L3573.45 968.85ZM3535.55 928.535L3573.45 968.85L3575.35 967.068L3537.44 926.754L3535.55 928.535ZM3537.44 677.063L3536.55 676.116L3534.66 677.898L3535.55 678.845L3537.44 677.063ZM3575.35 717.378L3537.44 677.063L3535.55 678.845L3573.45 719.16L3575.35 717.378ZM3576.24 718.325L3575.35 717.378L3573.45 719.16L3574.34 720.107L3576.24 718.325ZM3574.29 721.945L3576.18 720.164L3574.4 718.269L3572.51 720.05L3574.29 721.945ZM3571.56 720.941L3572.45 721.889L3574.34 720.107L3573.45 719.16L3571.56 720.941ZM3533.65 680.627L3571.56 720.941L3573.45 719.16L3535.55 678.845L3533.65 680.627ZM3532.76 679.679L3533.65 680.627L3535.55 678.845L3534.66 677.898L3532.76 679.679ZM3534.72 676.059L3532.82 677.841L3534.6 679.736L3536.5 677.954L3534.72 676.059ZM3534.66 844.358L3535.55 845.305L3537.44 843.524L3536.55 842.576L3534.66 844.358ZM3534.6 846.196L3536.5 844.414L3534.72 842.519L3532.82 844.301L3534.6 846.196ZM3535.55 845.305L3534.66 844.358L3532.76 846.139L3533.65 847.087L3535.55 845.305ZM3573.45 885.62L3535.55 845.305L3533.65 847.087L3571.56 887.401L3573.45 885.62ZM3574.34 886.567L3573.45 885.62L3571.56 887.401L3572.45 888.349L3574.34 886.567ZM3574.4 884.729L3572.51 886.511L3574.29 888.405L3576.18 886.624L3574.4 884.729ZM3573.45 885.62L3574.34 886.567L3576.24 884.786L3575.35 883.838L3573.45 885.62ZM3535.55 845.305L3573.45 885.62L3575.35 883.838L3537.44 843.524L3535.55 845.305ZM3537.44 1009.98L3536.55 1009.04L3534.66 1010.82L3535.55 1011.77L3537.44 1009.98ZM3575.35 1050.3L3537.44 1009.98L3535.55 1011.77L3573.45 1052.08L3575.35 1050.3ZM3576.24 1051.25L3575.35 1050.3L3573.45 1052.08L3574.34 1053.03L3576.24 1051.25ZM3574.29 1054.87L3576.18 1053.08L3574.4 1051.19L3572.51 1052.97L3574.29 1054.87ZM3571.56 1053.86L3572.45 1054.81L3574.34 1053.03L3573.45 1052.08L3571.56 1053.86ZM3533.65 1013.55L3571.56 1053.86L3573.45 1052.08L3535.55 1011.77L3533.65 1013.55ZM3532.76 1012.6L3533.65 1013.55L3535.55 1011.77L3534.66 1010.82L3532.76 1012.6ZM3534.72 1008.98L3532.82 1010.76L3534.6 1012.66L3536.5 1010.87L3534.72 1008.98ZM3534.66 636.283L3535.55 637.23L3537.44 635.448L3536.55 634.501L3534.66 636.283ZM3534.6 638.121L3536.5 636.339L3534.72 634.444L3532.82 636.226L3534.6 638.121ZM3535.55 637.23L3534.66 636.283L3532.76 638.064L3533.65 639.012L3535.55 637.23ZM3573.45 677.545L3535.55 637.23L3533.65 639.012L3571.56 679.326L3573.45 677.545ZM3574.34 678.492L3573.45 677.545L3571.56 679.326L3572.45 680.274L3574.34 678.492ZM3574.4 676.654L3572.51 678.435L3574.29 680.33L3576.18 678.549L3574.4 676.654ZM3573.45 677.545L3574.34 678.492L3576.24 676.71L3575.35 675.763L3573.45 677.545ZM3535.55 637.23L3573.45 677.545L3575.35 675.763L3537.44 635.448L3535.55 637.23ZM3537.44 801.909L3536.55 800.961L3534.66 802.743L3535.55 803.69L3537.44 801.909ZM3575.35 842.223L3537.44 801.909L3535.55 803.69L3573.45 844.005L3575.35 842.223ZM3576.24 843.171L3575.35 842.223L3573.45 844.005L3574.34 844.952L3576.24 843.171ZM3574.29 846.79L3576.18 845.009L3574.4 843.114L3572.51 844.896L3574.29 846.79ZM3571.56 845.786L3572.45 846.734L3574.34 844.952L3573.45 844.005L3571.56 845.786ZM3533.65 805.472L3571.56 845.786L3573.45 844.005L3535.55 803.69L3533.65 805.472ZM3532.76 804.524L3533.65 805.472L3535.55 803.69L3534.66 802.743L3532.76 804.524ZM3534.72 800.904L3532.82 802.686L3534.6 804.581L3536.5 802.799L3534.72 800.904ZM3534.66 969.203L3535.55 970.15L3537.44 968.369L3536.55 967.421L3534.66 969.203ZM3534.6 971.041L3536.5 969.259L3534.72 967.365L3532.82 969.146L3534.6 971.041ZM3535.55 970.15L3534.66 969.203L3532.76 970.984L3533.65 971.932L3535.55 970.15ZM3573.45 1010.46L3535.55 970.15L3533.65 971.932L3571.56 1012.25L3573.45 1010.46ZM3574.34 1011.41L3573.45 1010.46L3571.56 1012.25L3572.45 1013.19L3574.34 1011.41ZM3574.4 1009.57L3572.51 1011.36L3574.29 1013.25L3576.18 1011.47L3574.4 1009.57ZM3573.45 1010.46L3574.34 1011.41L3576.24 1009.63L3575.35 1008.68L3573.45 1010.46ZM3535.55 970.15L3573.45 1010.46L3575.35 1008.68L3537.44 968.369L3535.55 970.15ZM3537.44 718.678L3536.55 717.731L3534.66 719.513L3535.55 720.46L3537.44 718.678ZM3575.35 758.993L3537.44 718.678L3535.55 720.46L3573.45 760.775L3575.35 758.993ZM3576.24 759.941L3575.35 758.993L3573.45 760.775L3574.34 761.722L3576.24 759.941ZM3574.29 763.56L3576.18 761.779L3574.4 759.884L3572.51 761.665L3574.29 763.56ZM3571.56 762.556L3572.45 763.504L3574.34 761.722L3573.45 760.775L3571.56 762.556ZM3533.65 722.242L3571.56 762.556L3573.45 760.775L3535.55 720.46L3533.65 722.242ZM3532.76 721.294L3533.65 722.242L3535.55 720.46L3534.66 719.513L3532.76 721.294ZM3534.72 717.674L3532.82 719.456L3534.6 721.351L3536.5 719.569L3534.72 717.674ZM3534.66 885.973L3535.55 886.92L3537.44 885.139L3536.55 884.191L3534.66 885.973ZM3534.6 887.811L3536.5 886.029L3534.72 884.134L3532.82 885.916L3534.6 887.811ZM3535.55 886.92L3534.66 885.973L3532.76 887.754L3533.65 888.702L3535.55 886.92ZM3573.45 927.235L3535.55 886.92L3533.65 888.702L3571.56 929.016L3573.45 927.235ZM3574.34 928.182L3573.45 927.235L3571.56 929.016L3572.45 929.964L3574.34 928.182ZM3574.4 926.344L3572.51 928.126L3574.29 930.02L3576.18 928.239L3574.4 926.344ZM3573.45 927.235L3574.34 928.182L3576.24 926.401L3575.35 925.453L3573.45 927.235ZM3535.55 886.92L3573.45 927.235L3575.35 925.453L3537.44 885.139L3535.55 886.92Z" fill="#00709B"/>
</g>
<defs>
<filter id="filter0_di" x="-12" y="-12" width="3609.68" height="1132" filterUnits="userSpaceOnUse" color-interpolation-filters="sRGB">
<feFlood flood-opacity="0" result="BackgroundImageFix"/>
<feColorMatrix in="SourceAlpha" type="matrix" values="0 0 0 0 0 0 0 0 0 0 0 0 0 0 0 0 0 0 127 0"/>
<feOffset/>
<feGaussianBlur stdDeviation="6"/>
<feColorMatrix type="matrix" values="0 0 0 0 0 0 0 0 0 0.439216 0 0 0 0 0.607843 0 0 0 1 0"/>
<feBlend mode="normal" in2="BackgroundImageFix" result="effect1_dropShadow"/>
<feBlend mode="normal" in="SourceGraphic" in2="effect1_dropShadow" result="shape"/>
<feColorMatrix in="SourceAlpha" type="matrix" values="0 0 0 0 0 0 0 0 0 0 0 0 0 0 0 0 0 0 127 0" result="hardAlpha"/>
<feOffset/>
<feGaussianBlur stdDeviation="43.5"/>
<feComposite in2="hardAlpha" operator="arithmetic" k2="-1" k3="1"/>
<feColorMatrix type="matrix" values="0 0 0 0 0 0 0 0 0 0.439216 0 0 0 0 0.607843 0 0 0 0.1 0"/>
<feBlend mode="normal" in2="shape" result="effect2_innerShadow"/>
</filter>
<filter id="filter1_d" x="3521.87" y="561.131" width="65.2578" height="504.625" filterUnits="userSpaceOnUse" color-interpolation-filters="sRGB">
<feFlood flood-opacity="0" result="BackgroundImageFix"/>
<feColorMatrix in="SourceAlpha" type="matrix" values="0 0 0 0 0 0 0 0 0 0 0 0 0 0 0 0 0 0 127 0"/>
<feOffset/>
<feGaussianBlur stdDeviation="5"/>
<feColorMatrix type="matrix" values="0 0 0 0 0 0 0 0 0 0.439216 0 0 0 0 0.607843 0 0 0 1 0"/>
<feBlend mode="normal" in2="BackgroundImageFix" result="effect1_dropShadow"/>
<feBlend mode="normal" in="SourceGraphic" in2="effect1_dropShadow" result="shape"/>
</filter>
<linearGradient id="paint0_linear" x1="-1590.88" y1="574.803" x2="-989.276" y2="2521.69" gradientUnits="userSpaceOnUse">
<stop stop-color="#5FE6E9"/>
<stop offset="0.500655" stop-color="#4C8499" stop-opacity="0.01"/>
<stop offset="1" stop-color="#35E0E4"/>
</linearGradient>
</defs>
</svg>
