<svg width="3681" height="571" viewBox="0 0 3681 571" fill="none" xmlns="http://www.w3.org/2000/svg">
<g filter="url(#filter0_d)">
<path d="M13.5 555.5H43.6943L13.5 520.992L13.5 555.5Z" stroke="#47FFF4" stroke-width="3"/>
</g>
<g filter="url(#filter1_d)">
<path d="M3667.5 557.5H3613.91L3667.5 509.364V557.5Z" stroke="#47FFF4" stroke-width="3"/>
</g>
<g filter="url(#filter2_d)">
<path d="M3667.5 54.5L3613.91 54.5L3667.5 102.636V54.5Z" stroke="#47FFF4" stroke-width="3"/>
</g>
<path d="M13 60.7985L3593.88 51L3628.43 81.9686L3669 118.322V491.475L3635.46 519.503L3595.38 553H55.069L39.5438 537.494L13 510.983V60.7985Z" fill="black" fill-opacity="0.1"/>
<g filter="url(#filter3_d)">
<path d="M672.207 55.1741C671.917 55.1741 671.633 55.0901 671.39 54.9323L607.556 13.5H13.5V507.979L56.2871 555.5L3594.94 555.5L3667 493.335V118.632L3594.93 55.1741L672.207 55.1741Z" stroke="#47FFF4" stroke-width="3" stroke-linejoin="round"/>
</g>
<g filter="url(#filter4_d)">
<path d="M1047.47 41.9028L1048.32 40.6623L1049.56 41.5056L1048.71 42.7461L1047.47 41.9028ZM1046.23 41.0595L1045.39 42.3L1046.23 41.0595ZM1045.79 44.3838L1047.03 45.2271L1046.18 46.4676L1044.94 45.6243L1045.79 44.3838ZM1044.55 43.5405L1043.7 44.781L1044.55 43.5405ZM1010.4 20.3246L1009.55 21.5651L1010.4 20.3246ZM1009.15 19.4813L1008.31 20.7218L1007.07 19.8785L1007.91 18.638L1009.15 19.4813ZM1010.84 17.0003L1009.6 16.157L1010.44 14.9165L1011.68 15.7598L1010.84 17.0003ZM1012.08 17.8436L1011.24 19.0841L1012.08 17.8436ZM906.462 41.9028L907.305 40.6623L908.546 41.5056L907.703 42.7461L906.462 41.9028ZM905.222 41.0595L904.378 42.3V42.3L905.222 41.0595ZM904.775 44.3838L906.016 45.2271L905.173 46.4676L903.932 45.6243L904.775 44.3838ZM903.535 43.5405L902.692 44.781V44.781L903.535 43.5405ZM869.384 20.3246L868.54 21.5651V21.5651L869.384 20.3246ZM868.143 19.4813L867.3 20.7218L866.059 19.8785L866.903 18.638L868.143 19.4813ZM869.83 17.0003L868.589 16.157L869.433 14.9165L870.673 15.7598L869.83 17.0003ZM871.07 17.8436L871.914 16.6031V16.6031L871.07 17.8436ZM764.21 41.0595L763.367 42.3V42.3L764.21 41.0595ZM765.451 41.9028L766.294 40.6623L767.535 41.5056L766.691 42.7461L765.451 41.9028ZM730.059 17.8436L729.216 19.0841V19.0841L730.059 17.8436ZM728.819 17.0003L727.578 16.157L728.421 14.9165L729.662 15.7598L728.819 17.0003ZM727.132 19.4813L726.289 20.7218L725.048 19.8785L725.891 18.638L727.132 19.4813ZM728.372 20.3246L729.216 19.0841V19.0841L728.372 20.3246ZM762.524 43.5405L761.68 44.781V44.781L762.524 43.5405ZM763.764 44.3838L765.005 45.2271L764.161 46.4676L762.921 45.6243L763.764 44.3838ZM976.968 41.9028L977.811 40.6623L979.052 41.5056L978.208 42.7461L976.968 41.9028ZM975.727 41.0595L974.884 42.3V42.3L975.727 41.0595ZM975.281 44.3838L976.522 45.2271L975.678 46.4676L974.438 45.6243L975.281 44.3838ZM974.041 43.5405L974.884 42.3L974.884 42.3L974.041 43.5405ZM939.89 20.3246L939.046 21.5651H939.046L939.89 20.3246ZM938.649 19.4813L937.806 20.7218L936.565 19.8785L937.408 18.638L938.649 19.4813ZM940.336 17.0003L939.095 16.157L939.938 14.9165L941.179 15.7598L940.336 17.0003ZM941.576 17.8436L942.419 16.6031V16.6031L941.576 17.8436ZM834.716 41.0595L833.873 42.3V42.3L834.716 41.0595ZM835.957 41.9028L836.8 40.6623L838.04 41.5056L837.197 42.7461L835.957 41.9028ZM800.565 17.8436L801.408 16.6031V16.6031L800.565 17.8436ZM799.324 17.0003L798.084 16.157L798.927 14.9165L800.168 15.7598L799.324 17.0003ZM797.638 19.4813L796.795 20.7218L795.554 19.8785L796.397 18.638L797.638 19.4813ZM798.878 20.3246L798.035 21.5651V21.5651L798.878 20.3246ZM833.03 43.5405L832.186 44.781V44.781L833.03 43.5405ZM834.27 44.3838L835.511 45.2271L834.667 46.4676L833.427 45.6243L834.27 44.3838ZM694.945 41.9028L695.789 40.6623L697.029 41.5056L696.186 42.7461L694.945 41.9028ZM693.705 41.0595L692.861 42.3V42.3L693.705 41.0595ZM693.259 44.3838L694.499 45.2271L693.656 46.4676L692.415 45.6243L693.259 44.3838ZM692.018 43.5405L691.175 44.781V44.781L692.018 43.5405ZM657.867 20.3246L658.71 19.0841V19.0841L657.867 20.3246ZM656.626 19.4813L655.783 20.7218L654.543 19.8785L655.386 18.638L656.626 19.4813ZM658.313 17.0003L657.073 16.157L657.916 14.9165L659.156 15.7598L658.313 17.0003ZM659.554 17.8436L658.71 19.0841V19.0841L659.554 17.8436ZM1010.98 41.0595L1011.82 39.819L1010.98 41.0595ZM1012.22 41.9028L1013.06 40.6623L1014.3 41.5056L1013.46 42.7461L1012.22 41.9028ZM976.829 17.8436L977.672 16.6031V16.6031L976.829 17.8436ZM975.588 17.0003L974.348 16.157L975.191 14.9165L976.432 15.7598L975.588 17.0003ZM973.902 19.4813L973.058 20.7218L971.818 19.8785L972.661 18.638L973.902 19.4813ZM975.142 20.3246L974.299 21.5651H974.299L975.142 20.3246ZM1009.29 43.5405L1008.45 44.781L1008.45 44.781L1009.29 43.5405ZM1010.53 44.3838L1011.77 45.2271L1010.93 46.4676L1009.69 45.6243L1010.53 44.3838ZM871.209 41.9028L872.053 40.6623L873.293 41.5056L872.45 42.7461L871.209 41.9028ZM869.969 41.0595L869.125 42.3V42.3L869.969 41.0595ZM869.523 44.3838L870.763 45.2271L869.92 46.4676L868.679 45.6243L869.523 44.3838ZM868.282 43.5405L867.439 44.781V44.781L868.282 43.5405ZM834.131 20.3246L833.288 21.5651V21.5651L834.131 20.3246ZM832.89 19.4813L832.047 20.7218L830.807 19.8785L831.65 18.638L832.89 19.4813ZM834.577 17.0003L833.337 16.157L834.18 14.9165L835.42 15.7598L834.577 17.0003ZM835.818 17.8436L836.661 16.6031V16.6031L835.818 17.8436ZM728.957 41.0595L728.114 42.3V42.3L728.957 41.0595ZM730.198 41.9028L731.041 40.6623L732.282 41.5056L731.438 42.7461L730.198 41.9028ZM694.806 17.8436L693.963 19.0841V19.0841L694.806 17.8436ZM693.566 17.0003L692.325 16.157L693.169 14.9165L694.409 15.7598L693.566 17.0003ZM691.879 19.4813L691.036 20.7218L689.795 19.8785L690.639 18.638L691.879 19.4813ZM693.12 20.3246L693.963 19.0841V19.0841L693.12 20.3246ZM727.271 43.5405L726.428 44.781V44.781L727.271 43.5405ZM728.511 44.3838L729.752 45.2271L728.909 46.4676L727.668 45.6243L728.511 44.3838ZM941.715 41.9028L942.558 40.6623L943.799 41.5056L942.955 42.7461L941.715 41.9028ZM940.474 41.0595L939.631 42.3V42.3L940.474 41.0595ZM940.028 44.3838L941.269 45.2271L940.426 46.4676L939.185 45.6243L940.028 44.3838ZM938.788 43.5405L939.631 42.3L939.631 42.3L938.788 43.5405ZM904.637 20.3246L903.793 21.5651V21.5651L904.637 20.3246ZM903.396 19.4813L902.553 20.7218L901.312 19.8785L902.156 18.638L903.396 19.4813ZM905.083 17.0003L903.842 16.157L904.686 14.9165L905.926 15.7598L905.083 17.0003ZM906.323 17.8436L907.167 16.6031V16.6031L906.323 17.8436ZM799.463 41.0595L798.62 42.3V42.3L799.463 41.0595ZM800.704 41.9028L801.547 40.6623L802.787 41.5056L801.944 42.7461L800.704 41.9028ZM765.312 17.8436L766.155 16.6031V16.6031L765.312 17.8436ZM764.071 17.0003L762.831 16.157L763.674 14.9165L764.915 15.7598L764.071 17.0003ZM762.385 19.4813L761.542 20.7218L760.301 19.8785L761.144 18.638L762.385 19.4813ZM763.625 20.3246L764.469 19.0841V19.0841L763.625 20.3246ZM797.777 43.5405L796.933 44.781V44.781L797.777 43.5405ZM799.017 44.3838L800.258 45.2271L799.414 46.4676L798.174 45.6243L799.017 44.3838ZM1029.85 41.9028L1030.69 40.6623L1031.93 41.5056L1031.09 42.7461L1029.85 41.9028ZM1028.61 41.0595L1029.45 39.819L1028.61 41.0595ZM1028.16 44.3838L1029.4 45.2271L1028.56 46.4676L1027.32 45.6243L1028.16 44.3838ZM1026.92 43.5405L1027.76 42.3V42.3L1026.92 43.5405ZM992.769 20.3246L991.925 21.5651L992.769 20.3246ZM991.528 19.4813L990.685 20.7218L989.444 19.8785L990.288 18.638L991.528 19.4813ZM993.215 17.0003L991.974 16.157L992.818 14.9165L994.058 15.7598L993.215 17.0003ZM994.455 17.8436L993.612 19.0841L994.455 17.8436ZM887.595 41.0595L886.752 42.3V42.3L887.595 41.0595ZM888.836 41.9028L889.679 40.6623L890.919 41.5056L890.076 42.7461L888.836 41.9028ZM853.444 17.8436L854.287 16.6031V16.6031L853.444 17.8436ZM852.203 17.0003L850.963 16.157L851.806 14.9165L853.047 15.7598L852.203 17.0003ZM850.517 19.4813L849.674 20.7218L848.433 19.8785L849.276 18.638L850.517 19.4813ZM851.757 20.3246L850.914 21.5651V21.5651L851.757 20.3246ZM885.909 43.5405L885.065 44.781V44.781L885.909 43.5405ZM887.149 44.3838L888.39 45.2271L887.546 46.4676L886.306 45.6243L887.149 44.3838ZM747.824 41.9028L748.668 40.6623L749.908 41.5056L749.065 42.7461L747.824 41.9028ZM746.584 41.0595L745.741 42.3V42.3L746.584 41.0595ZM746.138 44.3838L747.378 45.2271L746.535 46.4676L745.294 45.6243L746.138 44.3838ZM744.897 43.5405L744.054 44.781V44.781L744.897 43.5405ZM710.746 20.3246L711.589 19.0841V19.0841L710.746 20.3246ZM709.506 19.4813L708.662 20.7218L707.422 19.8785L708.265 18.638L709.506 19.4813ZM711.192 17.0003L709.952 16.157L710.795 14.9165L712.035 15.7598L711.192 17.0003ZM712.433 17.8436L713.276 16.6031V16.6031L712.433 17.8436ZM958.101 41.0595L957.258 42.3V42.3L958.101 41.0595ZM959.341 41.9028L960.185 40.6623L961.425 41.5056L960.582 42.7461L959.341 41.9028ZM923.95 17.8436L924.793 16.6031V16.6031L923.95 17.8436ZM922.709 17.0003L921.469 16.157L922.312 14.9165L923.552 15.7598L922.709 17.0003ZM921.023 19.4813L920.179 20.7218L918.939 19.8785L919.782 18.638L921.023 19.4813ZM922.263 20.3246L921.42 21.5651H921.42L922.263 20.3246ZM956.414 43.5405L957.258 42.3L957.258 42.3L956.414 43.5405ZM957.655 44.3838L958.895 45.2271L958.052 46.4676L956.811 45.6243L957.655 44.3838ZM818.33 41.9028L819.173 40.6623L820.414 41.5056L819.57 42.7461L818.33 41.9028ZM817.089 41.0595L816.246 42.3V42.3L817.089 41.0595ZM816.643 44.3838L817.884 45.2271L817.041 46.4676L815.8 45.6243L816.643 44.3838ZM815.403 43.5405L814.56 44.781V44.781L815.403 43.5405ZM781.252 20.3246L782.095 19.0841V19.0841L781.252 20.3246ZM780.011 19.4813L779.168 20.7218L777.927 19.8785L778.771 18.638L780.011 19.4813ZM781.698 17.0003L780.457 16.157L781.301 14.9165L782.541 15.7598L781.698 17.0003ZM782.938 17.8436L782.095 19.0841V19.0841L782.938 17.8436ZM676.078 41.0595L675.235 42.3V42.3L676.078 41.0595ZM677.319 41.9028L678.162 40.6623L679.403 41.5056L678.559 42.7461L677.319 41.9028ZM641.927 17.8436L642.77 16.6031V16.6031L641.927 17.8436ZM640.687 17.0003L639.446 16.157L640.289 14.9165L641.53 15.7598L640.687 17.0003ZM639 19.4813L638.157 20.7218L636.916 19.8785L637.759 18.638L639 19.4813ZM640.24 20.3246L641.084 19.0841V19.0841L640.24 20.3246ZM674.392 43.5405L673.548 44.781V44.781L674.392 43.5405ZM675.632 44.3838L676.873 45.2271L676.029 46.4676L674.789 45.6243L675.632 44.3838ZM994.594 41.9028L995.438 40.6623L996.678 41.5056L995.835 42.7461L994.594 41.9028ZM993.354 41.0595L994.197 39.819L993.354 41.0595ZM992.908 44.3838L994.148 45.2271L993.305 46.4676L992.064 45.6243L992.908 44.3838ZM991.667 43.5405L990.824 44.781L990.824 44.781L991.667 43.5405ZM957.516 20.3246L956.673 21.5651H956.673L957.516 20.3246ZM956.275 19.4813L955.432 20.7218L954.192 19.8785L955.035 18.638L956.275 19.4813ZM957.962 17.0003L956.722 16.157L957.565 14.9165L958.805 15.7598L957.962 17.0003ZM959.203 17.8436L960.046 16.6031V16.6031L959.203 17.8436ZM852.342 41.0595L851.499 42.3V42.3L852.342 41.0595ZM853.583 41.9028L854.426 40.6623L855.667 41.5056L854.823 42.7461L853.583 41.9028ZM818.191 17.8436L819.034 16.6031V16.6031L818.191 17.8436ZM816.951 17.0003L815.71 16.157L816.553 14.9165L817.794 15.7598L816.951 17.0003ZM815.264 19.4813L814.421 20.7218L813.18 19.8785L814.024 18.638L815.264 19.4813ZM816.505 20.3246L815.661 21.5651V21.5651L816.505 20.3246ZM850.656 43.5405L849.812 44.781V44.781L850.656 43.5405ZM851.896 44.3838L853.137 45.2271L852.293 46.4676L851.053 45.6243L851.896 44.3838ZM712.572 41.9028L713.415 40.6623L714.655 41.5056L713.812 42.7461L712.572 41.9028ZM711.331 41.0595L710.488 42.3V42.3L711.331 41.0595ZM710.885 44.3838L712.126 45.2271L711.282 46.4676L710.042 45.6243L710.885 44.3838ZM709.645 43.5405L708.801 44.781V44.781L709.645 43.5405ZM675.493 20.3246L676.337 19.0841V19.0841L675.493 20.3246ZM674.253 19.4813L673.41 20.7218L672.169 19.8785L673.012 18.638L674.253 19.4813ZM675.939 17.0003L674.699 16.157L675.542 14.9165L676.783 15.7598L675.939 17.0003ZM677.18 17.8436L678.023 16.6031V16.6031L677.18 17.8436ZM922.848 41.0595L922.005 42.3V42.3L922.848 41.0595ZM924.088 41.9028L924.932 40.6623L926.172 41.5056L925.329 42.7461L924.088 41.9028ZM888.697 17.8436L889.54 16.6031V16.6031L888.697 17.8436ZM887.456 17.0003L886.216 16.157L887.059 14.9165L888.3 15.7598L887.456 17.0003ZM885.77 19.4813L884.926 20.7218L883.686 19.8785L884.529 18.638L885.77 19.4813ZM887.01 20.3246L886.167 21.5651V21.5651L887.01 20.3246ZM921.161 43.5405L922.005 42.3L922.005 42.3L921.161 43.5405ZM922.402 44.3838L923.642 45.2271L922.799 46.4676L921.559 45.6243L922.402 44.3838ZM783.077 41.9028L783.921 40.6623L785.161 41.5056L784.318 42.7461L783.077 41.9028ZM781.837 41.0595L780.993 42.3V42.3L781.837 41.0595ZM781.391 44.3838L782.631 45.2271L781.788 46.4676L780.547 45.6243L781.391 44.3838ZM780.15 43.5405L779.307 44.781V44.781L780.15 43.5405ZM745.999 20.3246L746.842 19.0841V19.0841L745.999 20.3246ZM744.758 19.4813L743.915 20.7218L742.675 19.8785L743.518 18.638L744.758 19.4813ZM746.445 17.0003L745.204 16.157L746.048 14.9165L747.288 15.7598L746.445 17.0003ZM747.686 17.8436L748.529 16.6031V16.6031L747.686 17.8436ZM1046.63 43.1433L1045.39 42.3L1047.08 39.819L1048.32 40.6623L1046.63 43.1433ZM1044.55 43.5405L1046.23 41.0595L1048.71 42.7461L1047.03 45.2271L1044.55 43.5405ZM1045.39 42.3L1046.63 43.1433L1044.94 45.6243L1043.7 44.781L1045.39 42.3ZM1011.24 19.0841L1045.39 42.3L1043.7 44.781L1009.55 21.5651L1011.24 19.0841ZM1010 18.2408L1011.24 19.0841L1009.55 21.5651L1008.31 20.7218L1010 18.2408ZM1012.08 17.8436L1010.4 20.3246L1007.91 18.638L1009.6 16.157L1012.08 17.8436ZM1011.24 19.0841L1010 18.2408L1011.68 15.7598L1012.93 16.6031L1011.24 19.0841ZM1045.39 42.3L1011.24 19.0841L1012.93 16.6031L1047.08 39.819L1045.39 42.3ZM905.619 43.1433L904.378 42.3L906.065 39.819L907.305 40.6623L905.619 43.1433ZM903.535 43.5405L905.222 41.0595L907.703 42.7461L906.016 45.2271L903.535 43.5405ZM904.378 42.3L905.619 43.1433L903.932 45.6243L902.692 44.781L904.378 42.3ZM870.227 19.0841L904.378 42.3L902.692 44.781L868.54 21.5651L870.227 19.0841ZM868.987 18.2408L870.227 19.0841L868.54 21.5651L867.3 20.7218L868.987 18.2408ZM871.07 17.8436L869.384 20.3246L866.903 18.638L868.589 16.157L871.07 17.8436ZM870.227 19.0841L868.987 18.2408L870.673 15.7598L871.914 16.6031L870.227 19.0841ZM904.378 42.3L870.227 19.0841L871.914 16.6031L906.065 39.819L904.378 42.3ZM765.053 39.819L766.294 40.6623L764.607 43.1433L763.367 42.3L765.053 39.819ZM730.902 16.6031L765.053 39.819L763.367 42.3L729.216 19.0841L730.902 16.6031ZM729.662 15.7598L730.902 16.6031L729.216 19.0841L727.975 18.2408L729.662 15.7598ZM725.891 18.638L727.578 16.157L730.059 17.8436L728.372 20.3246L725.891 18.638ZM727.529 21.5651L726.289 20.7218L727.975 18.2408L729.216 19.0841L727.529 21.5651ZM761.68 44.781L727.529 21.5651L729.216 19.0841L763.367 42.3L761.68 44.781ZM762.921 45.6243L761.68 44.781L763.367 42.3L764.607 43.1433L762.921 45.6243ZM766.691 42.7461L765.005 45.2271L762.524 43.5405L764.21 41.0595L766.691 42.7461ZM976.124 43.1433L974.884 42.3L976.571 39.819L977.811 40.6623L976.124 43.1433ZM974.041 43.5405L975.727 41.0595L978.208 42.7461L976.522 45.2271L974.041 43.5405ZM974.884 42.3L976.124 43.1433L974.438 45.6243L973.197 44.781L974.884 42.3ZM940.733 19.0841L974.884 42.3L973.197 44.781L939.046 21.5651L940.733 19.0841ZM939.492 18.2408L940.733 19.0841L939.046 21.5651L937.806 20.7218L939.492 18.2408ZM941.576 17.8436L939.89 20.3246L937.408 18.638L939.095 16.157L941.576 17.8436ZM940.733 19.0841L939.492 18.2408L941.179 15.7598L942.419 16.6031L940.733 19.0841ZM974.884 42.3L940.733 19.0841L942.419 16.6031L976.571 39.819L974.884 42.3ZM835.559 39.819L836.8 40.6623L835.113 43.1433L833.873 42.3L835.559 39.819ZM801.408 16.6031L835.559 39.819L833.873 42.3L799.722 19.0841L801.408 16.6031ZM800.168 15.7598L801.408 16.6031L799.722 19.0841L798.481 18.2408L800.168 15.7598ZM796.397 18.638L798.084 16.157L800.565 17.8436L798.878 20.3246L796.397 18.638ZM798.035 21.5651L796.795 20.7218L798.481 18.2408L799.722 19.0841L798.035 21.5651ZM832.186 44.781L798.035 21.5651L799.722 19.0841L833.873 42.3L832.186 44.781ZM833.427 45.6243L832.186 44.781L833.873 42.3L835.113 43.1433L833.427 45.6243ZM837.197 42.7461L835.511 45.2271L833.03 43.5405L834.716 41.0595L837.197 42.7461ZM694.102 43.1433L692.861 42.3L694.548 39.819L695.789 40.6623L694.102 43.1433ZM692.018 43.5405L693.705 41.0595L696.186 42.7461L694.499 45.2271L692.018 43.5405ZM692.861 42.3L694.102 43.1433L692.415 45.6243L691.175 44.781L692.861 42.3ZM658.71 19.0841L692.861 42.3L691.175 44.781L657.024 21.5651L658.71 19.0841ZM657.47 18.2408L658.71 19.0841L657.024 21.5651L655.783 20.7218L657.47 18.2408ZM659.554 17.8436L657.867 20.3246L655.386 18.638L657.073 16.157L659.554 17.8436ZM658.71 19.0841L657.47 18.2408L659.156 15.7598L660.397 16.6031L658.71 19.0841ZM692.861 42.3L658.71 19.0841L660.397 16.6031L694.548 39.819L692.861 42.3ZM1011.82 39.819L1013.06 40.6623L1011.38 43.1433L1010.14 42.3L1011.82 39.819ZM977.672 16.6031L1011.82 39.819L1010.14 42.3L975.986 19.0841L977.672 16.6031ZM976.432 15.7598L977.672 16.6031L975.986 19.0841L974.745 18.2408L976.432 15.7598ZM972.661 18.638L974.348 16.157L976.829 17.8436L975.142 20.3246L972.661 18.638ZM974.299 21.5651L973.058 20.7218L974.745 18.2408L975.986 19.0841L974.299 21.5651ZM1008.45 44.781L974.299 21.5651L975.986 19.0841L1010.14 42.3L1008.45 44.781ZM1009.69 45.6243L1008.45 44.781L1010.14 42.3L1011.38 43.1433L1009.69 45.6243ZM1013.46 42.7461L1011.77 45.2271L1009.29 43.5405L1010.98 41.0595L1013.46 42.7461ZM870.366 43.1433L869.125 42.3L870.812 39.819L872.053 40.6623L870.366 43.1433ZM868.282 43.5405L869.969 41.0595L872.45 42.7461L870.763 45.2271L868.282 43.5405ZM869.125 42.3L870.366 43.1433L868.679 45.6243L867.439 44.781L869.125 42.3ZM834.974 19.0841L869.125 42.3L867.439 44.781L833.288 21.5651L834.974 19.0841ZM833.734 18.2408L834.974 19.0841L833.288 21.5651L832.047 20.7218L833.734 18.2408ZM835.818 17.8436L834.131 20.3246L831.65 18.638L833.337 16.157L835.818 17.8436ZM834.974 19.0841L833.734 18.2408L835.42 15.7598L836.661 16.6031L834.974 19.0841ZM869.125 42.3L834.974 19.0841L836.661 16.6031L870.812 39.819L869.125 42.3ZM729.801 39.819L731.041 40.6623L729.355 43.1433L728.114 42.3L729.801 39.819ZM695.65 16.6031L729.801 39.819L728.114 42.3L693.963 19.0841L695.65 16.6031ZM694.409 15.7598L695.65 16.6031L693.963 19.0841L692.723 18.2408L694.409 15.7598ZM690.639 18.638L692.325 16.157L694.806 17.8436L693.12 20.3246L690.639 18.638ZM692.276 21.5651L691.036 20.7218L692.722 18.2408L693.963 19.0841L692.276 21.5651ZM726.428 44.781L692.276 21.5651L693.963 19.0841L728.114 42.3L726.428 44.781ZM727.668 45.6243L726.428 44.781L728.114 42.3L729.355 43.1433L727.668 45.6243ZM731.438 42.7461L729.752 45.2271L727.271 43.5405L728.957 41.0595L731.438 42.7461ZM940.872 43.1433L939.631 42.3L941.318 39.819L942.558 40.6623L940.872 43.1433ZM938.788 43.5405L940.474 41.0595L942.955 42.7461L941.269 45.2271L938.788 43.5405ZM939.631 42.3L940.872 43.1433L939.185 45.6243L937.945 44.781L939.631 42.3ZM905.48 19.0841L939.631 42.3L937.945 44.781L903.793 21.5651L905.48 19.0841ZM904.239 18.2408L905.48 19.0841L903.793 21.5651L902.553 20.7218L904.239 18.2408ZM906.323 17.8436L904.637 20.3246L902.156 18.638L903.842 16.157L906.323 17.8436ZM905.48 19.0841L904.239 18.2408L905.926 15.7598L907.167 16.6031L905.48 19.0841ZM939.631 42.3L905.48 19.0841L907.167 16.6031L941.318 39.819L939.631 42.3ZM800.306 39.819L801.547 40.6623L799.86 43.1433L798.62 42.3L800.306 39.819ZM766.155 16.6031L800.306 39.819L798.62 42.3L764.469 19.0841L766.155 16.6031ZM764.915 15.7598L766.155 16.6031L764.469 19.0841L763.228 18.2408L764.915 15.7598ZM761.144 18.638L762.831 16.157L765.312 17.8436L763.625 20.3246L761.144 18.638ZM762.782 21.5651L761.542 20.7218L763.228 18.2408L764.469 19.0841L762.782 21.5651ZM796.933 44.781L762.782 21.5651L764.469 19.0841L798.62 42.3L796.933 44.781ZM798.174 45.6243L796.933 44.781L798.62 42.3L799.86 43.1433L798.174 45.6243ZM801.944 42.7461L800.258 45.2271L797.777 43.5405L799.463 41.0595L801.944 42.7461ZM1029 43.1433L1027.76 42.3L1029.45 39.819L1030.69 40.6623L1029 43.1433ZM1026.92 43.5405L1028.61 41.0595L1031.09 42.7461L1029.4 45.2271L1026.92 43.5405ZM1027.76 42.3L1029 43.1433L1027.32 45.6243L1026.08 44.781L1027.76 42.3ZM993.612 19.0841L1027.76 42.3L1026.08 44.781L991.925 21.5651L993.612 19.0841ZM992.371 18.2408L993.612 19.0841L991.925 21.5651L990.685 20.7218L992.371 18.2408ZM994.455 17.8436L992.769 20.3246L990.288 18.638L991.974 16.157L994.455 17.8436ZM993.612 19.0841L992.371 18.2408L994.058 15.7598L995.299 16.6031L993.612 19.0841ZM1027.76 42.3L993.612 19.0841L995.299 16.6031L1029.45 39.819L1027.76 42.3ZM888.438 39.819L889.679 40.6623L887.992 43.1433L886.752 42.3L888.438 39.819ZM854.287 16.6031L888.438 39.819L886.752 42.3L852.601 19.0841L854.287 16.6031ZM853.047 15.7598L854.287 16.6031L852.601 19.0841L851.36 18.2408L853.047 15.7598ZM849.276 18.638L850.963 16.157L853.444 17.8436L851.757 20.3246L849.276 18.638ZM850.914 21.5651L849.674 20.7218L851.36 18.2408L852.601 19.0841L850.914 21.5651ZM885.065 44.781L850.914 21.5651L852.601 19.0841L886.752 42.3L885.065 44.781ZM886.306 45.6243L885.065 44.781L886.752 42.3L887.992 43.1433L886.306 45.6243ZM890.076 42.7461L888.39 45.2271L885.909 43.5405L887.595 41.0595L890.076 42.7461ZM746.981 43.1433L745.741 42.3L747.427 39.819L748.668 40.6623L746.981 43.1433ZM744.897 43.5405L746.584 41.0595L749.065 42.7461L747.378 45.2271L744.897 43.5405ZM745.741 42.3L746.981 43.1433L745.294 45.6243L744.054 44.781L745.741 42.3ZM711.589 19.0841L745.741 42.3L744.054 44.781L709.903 21.5651L711.589 19.0841ZM710.349 18.2408L711.589 19.0841L709.903 21.5651L708.662 20.7218L710.349 18.2408ZM712.433 17.8436L710.746 20.3246L708.265 18.638L709.952 16.157L712.433 17.8436ZM711.589 19.0841L710.349 18.2408L712.035 15.7598L713.276 16.6031L711.589 19.0841ZM745.741 42.3L711.589 19.0841L713.276 16.6031L747.427 39.819L745.741 42.3ZM958.944 39.819L960.185 40.6623L958.498 43.1433L957.258 42.3L958.944 39.819ZM924.793 16.6031L958.944 39.819L957.258 42.3L923.106 19.0841L924.793 16.6031ZM923.552 15.7598L924.793 16.6031L923.106 19.0841L921.866 18.2408L923.552 15.7598ZM919.782 18.638L921.469 16.157L923.95 17.8436L922.263 20.3246L919.782 18.638ZM921.42 21.5651L920.179 20.7218L921.866 18.2408L923.106 19.0841L921.42 21.5651ZM955.571 44.781L921.42 21.5651L923.106 19.0841L957.258 42.3L955.571 44.781ZM956.811 45.6243L955.571 44.781L957.258 42.3L958.498 43.1433L956.811 45.6243ZM960.582 42.7461L958.895 45.2271L956.414 43.5405L958.101 41.0595L960.582 42.7461ZM817.487 43.1433L816.246 42.3L817.933 39.819L819.173 40.6623L817.487 43.1433ZM815.403 43.5405L817.089 41.0595L819.57 42.7461L817.884 45.2271L815.403 43.5405ZM816.246 42.3L817.487 43.1433L815.8 45.6243L814.56 44.781L816.246 42.3ZM782.095 19.0841L816.246 42.3L814.56 44.781L780.408 21.5651L782.095 19.0841ZM780.854 18.2408L782.095 19.0841L780.408 21.5651L779.168 20.7218L780.854 18.2408ZM782.938 17.8436L781.252 20.3246L778.771 18.638L780.457 16.157L782.938 17.8436ZM782.095 19.0841L780.855 18.2408L782.541 15.7598L783.782 16.6031L782.095 19.0841ZM816.246 42.3L782.095 19.0841L783.782 16.6031L817.933 39.819L816.246 42.3ZM676.922 39.819L678.162 40.6623L676.475 43.1433L675.235 42.3L676.922 39.819ZM642.77 16.6031L676.922 39.819L675.235 42.3L641.084 19.0841L642.77 16.6031ZM641.53 15.7598L642.77 16.6031L641.084 19.0841L639.843 18.2408L641.53 15.7598ZM637.759 18.638L639.446 16.157L641.927 17.8436L640.24 20.3246L637.759 18.638ZM639.397 21.5651L638.157 20.7218L639.843 18.2408L641.084 19.0841L639.397 21.5651ZM673.548 44.781L639.397 21.5651L641.084 19.0841L675.235 42.3L673.548 44.781ZM674.789 45.6243L673.548 44.781L675.235 42.3L676.475 43.1433L674.789 45.6243ZM678.559 42.7461L676.873 45.2271L674.392 43.5405L676.078 41.0595L678.559 42.7461ZM993.751 43.1433L992.51 42.3L994.197 39.819L995.438 40.6623L993.751 43.1433ZM991.667 43.5405L993.354 41.0595L995.835 42.7461L994.148 45.2271L991.667 43.5405ZM992.51 42.3L993.751 43.1433L992.064 45.6243L990.824 44.781L992.51 42.3ZM958.359 19.0841L992.51 42.3L990.824 44.781L956.673 21.5651L958.359 19.0841ZM957.119 18.2408L958.359 19.0841L956.673 21.5651L955.432 20.7218L957.119 18.2408ZM959.203 17.8436L957.516 20.3246L955.035 18.638L956.722 16.157L959.203 17.8436ZM958.359 19.0841L957.119 18.2408L958.805 15.7598L960.046 16.6031L958.359 19.0841ZM992.51 42.3L958.359 19.0841L960.046 16.6031L994.197 39.819L992.51 42.3ZM853.186 39.819L854.426 40.6623L852.74 43.1433L851.499 42.3L853.186 39.819ZM819.034 16.6031L853.186 39.819L851.499 42.3L817.348 19.0841L819.034 16.6031ZM817.794 15.7598L819.034 16.6031L817.348 19.0841L816.107 18.2408L817.794 15.7598ZM814.024 18.638L815.71 16.157L818.191 17.8436L816.505 20.3246L814.024 18.638ZM815.661 21.5651L814.421 20.7218L816.107 18.2408L817.348 19.0841L815.661 21.5651ZM849.812 44.781L815.661 21.5651L817.348 19.0841L851.499 42.3L849.812 44.781ZM851.053 45.6243L849.812 44.781L851.499 42.3L852.74 43.1433L851.053 45.6243ZM854.823 42.7461L853.137 45.2271L850.656 43.5405L852.342 41.0595L854.823 42.7461ZM711.728 43.1433L710.488 42.3L712.174 39.819L713.415 40.6623L711.728 43.1433ZM709.645 43.5405L711.331 41.0595L713.812 42.7461L712.126 45.2271L709.645 43.5405ZM710.488 42.3L711.728 43.1433L710.042 45.6243L708.801 44.781L710.488 42.3ZM676.337 19.0841L710.488 42.3L708.801 44.781L674.65 21.5651L676.337 19.0841ZM675.096 18.2408L676.337 19.0841L674.65 21.5651L673.41 20.7218L675.096 18.2408ZM677.18 17.8436L675.493 20.3246L673.012 18.638L674.699 16.157L677.18 17.8436ZM676.337 19.0841L675.096 18.2408L676.783 15.7598L678.023 16.6031L676.337 19.0841ZM710.488 42.3L676.337 19.0841L678.023 16.6031L712.174 39.819L710.488 42.3ZM923.691 39.819L924.932 40.6623L923.245 43.1433L922.005 42.3L923.691 39.819ZM889.54 16.6031L923.691 39.819L922.005 42.3L887.854 19.0841L889.54 16.6031ZM888.3 15.7598L889.54 16.6031L887.854 19.0841L886.613 18.2408L888.3 15.7598ZM884.529 18.638L886.216 16.157L888.697 17.8436L887.01 20.3246L884.529 18.638ZM886.167 21.5651L884.926 20.7218L886.613 18.2408L887.853 19.0841L886.167 21.5651ZM920.318 44.781L886.167 21.5651L887.853 19.0841L922.005 42.3L920.318 44.781ZM921.559 45.6243L920.318 44.781L922.005 42.3L923.245 43.1433L921.559 45.6243ZM925.329 42.7461L923.642 45.2271L921.161 43.5405L922.848 41.0595L925.329 42.7461ZM782.234 43.1433L780.993 42.3L782.68 39.819L783.921 40.6623L782.234 43.1433ZM780.15 43.5405L781.837 41.0595L784.318 42.7461L782.631 45.2271L780.15 43.5405ZM780.993 42.3L782.234 43.1433L780.547 45.6243L779.307 44.781L780.993 42.3ZM746.842 19.0841L780.993 42.3L779.307 44.781L745.156 21.5651L746.842 19.0841ZM745.602 18.2408L746.842 19.0841L745.156 21.5651L743.915 20.7218L745.602 18.2408ZM747.686 17.8436L745.999 20.3246L743.518 18.638L745.204 16.157L747.686 17.8436ZM746.842 19.0841L745.602 18.2408L747.288 15.7598L748.529 16.6031L746.842 19.0841ZM780.993 42.3L746.842 19.0841L748.529 16.6031L782.68 39.819L780.993 42.3Z" fill="#47FFF4"/>
</g>
<defs>
<filter id="filter0_d" x="0" y="505" width="59" height="64" filterUnits="userSpaceOnUse" color-interpolation-filters="sRGB">
<feFlood flood-opacity="0" result="BackgroundImageFix"/>
<feColorMatrix in="SourceAlpha" type="matrix" values="0 0 0 0 0 0 0 0 0 0 0 0 0 0 0 0 0 0 127 0"/>
<feOffset/>
<feGaussianBlur stdDeviation="6"/>
<feColorMatrix type="matrix" values="0 0 0 0 0 0 0 0 0 0.439216 0 0 0 0 0.607843 0 0 0 1 0"/>
<feBlend mode="normal" in2="BackgroundImageFix" result="effect1_dropShadow"/>
<feBlend mode="normal" in="SourceGraphic" in2="effect1_dropShadow" result="shape"/>
</filter>
<filter id="filter1_d" x="3598" y="494" width="83" height="77" filterUnits="userSpaceOnUse" color-interpolation-filters="sRGB">
<feFlood flood-opacity="0" result="BackgroundImageFix"/>
<feColorMatrix in="SourceAlpha" type="matrix" values="0 0 0 0 0 0 0 0 0 0 0 0 0 0 0 0 0 0 127 0"/>
<feOffset/>
<feGaussianBlur stdDeviation="6"/>
<feColorMatrix type="matrix" values="0 0 0 0 0 0 0 0 0 0.439216 0 0 0 0 0.607843 0 0 0 1 0"/>
<feBlend mode="normal" in2="BackgroundImageFix" result="effect1_dropShadow"/>
<feBlend mode="normal" in="SourceGraphic" in2="effect1_dropShadow" result="shape"/>
</filter>
<filter id="filter2_d" x="3598" y="41" width="83" height="77" filterUnits="userSpaceOnUse" color-interpolation-filters="sRGB">
<feFlood flood-opacity="0" result="BackgroundImageFix"/>
<feColorMatrix in="SourceAlpha" type="matrix" values="0 0 0 0 0 0 0 0 0 0 0 0 0 0 0 0 0 0 127 0"/>
<feOffset/>
<feGaussianBlur stdDeviation="6"/>
<feColorMatrix type="matrix" values="0 0 0 0 0 0 0 0 0 0.439216 0 0 0 0 0.607843 0 0 0 1 0"/>
<feBlend mode="normal" in2="BackgroundImageFix" result="effect1_dropShadow"/>
<feBlend mode="normal" in="SourceGraphic" in2="effect1_dropShadow" result="shape"/>
</filter>
<filter id="filter3_d" x="0" y="0" width="3680.5" height="569" filterUnits="userSpaceOnUse" color-interpolation-filters="sRGB">
<feFlood flood-opacity="0" result="BackgroundImageFix"/>
<feColorMatrix in="SourceAlpha" type="matrix" values="0 0 0 0 0 0 0 0 0 0 0 0 0 0 0 0 0 0 127 0"/>
<feOffset/>
<feGaussianBlur stdDeviation="6"/>
<feColorMatrix type="matrix" values="0 0 0 0 0 0 0 0 0 0.439216 0 0 0 0 0.607843 0 0 0 1 0"/>
<feBlend mode="normal" in2="BackgroundImageFix" result="effect1_dropShadow"/>
<feBlend mode="normal" in="SourceGraphic" in2="effect1_dropShadow" result="shape"/>
</filter>
<filter id="filter4_d" x="624.916" y="2.91602" width="436.641" height="55.5511" filterUnits="userSpaceOnUse" color-interpolation-filters="sRGB">
<feFlood flood-opacity="0" result="BackgroundImageFix"/>
<feColorMatrix in="SourceAlpha" type="matrix" values="0 0 0 0 0 0 0 0 0 0 0 0 0 0 0 0 0 0 127 0"/>
<feOffset/>
<feGaussianBlur stdDeviation="6"/>
<feColorMatrix type="matrix" values="0 0 0 0 0 0 0 0 0 0.439216 0 0 0 0 0.607843 0 0 0 1 0"/>
<feBlend mode="normal" in2="BackgroundImageFix" result="effect1_dropShadow"/>
<feBlend mode="normal" in="SourceGraphic" in2="effect1_dropShadow" result="shape"/>
</filter>
</defs>
</svg>
